<?xml version="1.0" encoding="UTF-8"?>
<!DOCTYPE svg PUBLIC "-//W3C//DTD SVG 1.1//EN" "http://www.w3.org/Graphics/SVG/1.1/DTD/svg11.dtd">
<svg xmlns="http://www.w3.org/2000/svg" version="1.1" width="800px" height="208px" style="shape-rendering:geometricPrecision; text-rendering:geometricPrecision; image-rendering:optimizeQuality; fill-rule:evenodd; clip-rule:evenodd" xmlns:xlink="http://www.w3.org/1999/xlink">
<g><path style="opacity:1" fill="#fefdfd" d="M -0.5,-0.5 C 266.167,-0.5 532.833,-0.5 799.5,-0.5C 799.5,68.8333 799.5,138.167 799.5,207.5C 532.833,207.5 266.167,207.5 -0.5,207.5C -0.5,138.167 -0.5,68.8333 -0.5,-0.5 Z"/></g>
<g><path style="opacity:1" fill="#e64d55" d="M 64.5,11.5 C 64.5,60.1667 64.5,108.833 64.5,157.5C 72.1667,157.5 79.8333,157.5 87.5,157.5C 87.5,108.833 87.5,60.1667 87.5,11.5C 88.4988,60.3305 88.8322,109.33 88.5,158.5C 80.1667,158.5 71.8333,158.5 63.5,158.5C 63.1678,109.33 63.5012,60.3305 64.5,11.5 Z"/></g>
<g><path style="opacity:1" fill="#df1d29" d="M 64.5,11.5 C 72.1667,11.5 79.8333,11.5 87.5,11.5C 87.5,60.1667 87.5,108.833 87.5,157.5C 79.8333,157.5 72.1667,157.5 64.5,157.5C 64.5,108.833 64.5,60.1667 64.5,11.5 Z"/></g>
<g><path style="opacity:1" fill="#7a578a" d="M 107.5,11.5 C 107.5,60.1667 107.5,108.833 107.5,157.5C 109.167,157.5 110.833,157.5 112.5,157.5C 110.735,158.461 108.735,158.795 106.5,158.5C 106.168,109.33 106.501,60.3305 107.5,11.5 Z"/></g>
<g><path style="opacity:1" fill="#6583b1" d="M 168.5,11.5 C 168.5,60.1667 168.5,108.833 168.5,157.5C 172.167,157.5 175.833,157.5 179.5,157.5C 179.5,108.833 179.5,60.1667 179.5,11.5C 180.499,60.3305 180.832,109.33 180.5,158.5C 176.167,158.5 171.833,158.5 167.5,158.5C 167.168,109.33 167.501,60.3305 168.5,11.5 Z"/></g>
<g><path style="opacity:1" fill="#124087" d="M 168.5,11.5 C 168.833,11.5 169.167,11.5 169.5,11.5C 169.5,59.8333 169.5,108.167 169.5,156.5C 172.5,156.5 175.5,156.5 178.5,156.5C 178.5,108.167 178.5,59.8333 178.5,11.5C 178.833,11.5 179.167,11.5 179.5,11.5C 179.5,60.1667 179.5,108.833 179.5,157.5C 175.833,157.5 172.167,157.5 168.5,157.5C 168.5,108.833 168.5,60.1667 168.5,11.5 Z"/></g>
<g><path style="opacity:1" fill="#532667" d="M 107.5,11.5 C 107.833,11.5 108.167,11.5 108.5,11.5C 108.5,59.8333 108.5,108.167 108.5,156.5C 109.5,156.5 110.5,156.5 111.5,156.5C 111.5,108.167 111.5,59.8333 111.5,11.5C 112.499,59.9971 112.832,108.664 112.5,157.5C 110.833,157.5 109.167,157.5 107.5,157.5C 107.5,108.833 107.5,60.1667 107.5,11.5 Z"/></g>
<g><path style="opacity:1" fill="#5e326f" d="M 108.5,11.5 C 109.5,11.5 110.5,11.5 111.5,11.5C 111.5,59.8333 111.5,108.167 111.5,156.5C 110.5,156.5 109.5,156.5 108.5,156.5C 108.5,108.167 108.5,59.8333 108.5,11.5 Z"/></g>
<g><path style="opacity:1" fill="#1f4c8e" d="M 169.5,11.5 C 172.5,11.5 175.5,11.5 178.5,11.5C 178.5,59.8333 178.5,108.167 178.5,156.5C 175.5,156.5 172.5,156.5 169.5,156.5C 169.5,108.167 169.5,59.8333 169.5,11.5 Z"/></g>
<g><path style="opacity:1" fill="#7c7c80" d="M 678.5,22.5 C 719.212,20.106 748.378,37.106 766,73.5C 766.494,75.1341 766.66,76.8008 766.5,78.5C 764.833,78.5 763.167,78.5 761.5,78.5C 748.472,46.2959 724.472,29.2959 689.5,27.5C 652.592,30.5336 628.092,49.5336 616,84.5C 608.637,127.612 624.804,158.112 664.5,176C 687.211,183.231 708.878,180.898 729.5,169C 731.134,168.506 732.801,168.34 734.5,168.5C 734.822,170.722 734.155,172.556 732.5,174C 698.711,191.647 666.711,188.98 636.5,166C 606.309,136.041 600.476,101.874 619,63.5C 632.726,40.9367 652.559,27.27 678.5,22.5 Z"/></g>
<g><path style="opacity:1" fill="#e1272e" d="M 340.5,23.5 C 356.434,20.469 365.767,26.8024 368.5,42.5C 368.525,46.286 367.525,49.786 365.5,53C 366.101,54.605 367.101,55.9384 368.5,57C 367.547,58.9552 366.213,60.6218 364.5,62C 362.533,61.76 360.7,60.9266 359,59.5C 344.543,65.9062 334.21,61.9062 328,47.5C 326.627,36.579 330.793,28.579 340.5,23.5 Z"/></g>
<g><path style="opacity:1" fill="#e1262e" d="M 256.5,23.5 C 259.448,23.2229 262.281,23.5562 265,24.5C 270.038,36.7396 275.204,48.9063 280.5,61C 273.82,62.9873 269.82,60.6539 268.5,54C 262.843,53.5006 257.176,53.3339 251.5,53.5C 250.833,56.1667 250.167,58.8333 249.5,61.5C 246.428,61.8174 243.428,61.4841 240.5,60.5C 245.84,48.1375 251.174,35.8041 256.5,23.5 Z"/></g>
<g><path style="opacity:1" fill="#6180ae" d="M 23.5,170.5 C 23.5,121.833 23.5,73.1667 23.5,24.5C 19.8333,24.5 16.1667,24.5 12.5,24.5C 12.5,73.1667 12.5,121.833 12.5,170.5C 11.5012,121.67 11.1678,72.6695 11.5,23.5C 15.8333,23.5 20.1667,23.5 24.5,23.5C 24.8322,72.6695 24.4988,121.67 23.5,170.5 Z"/></g>
<g><path style="opacity:1" fill="#ab1848" d="M 115.5,23.5 C 131.833,23.5 148.167,23.5 164.5,23.5C 164.5,72.5 164.5,121.5 164.5,170.5C 148.167,170.5 131.833,170.5 115.5,170.5C 115.5,121.5 115.5,72.5 115.5,23.5 Z"/></g>
<g><path style="opacity:1" fill="#e0202a" d="M 310.5,45.5 C 310.56,46.0431 310.893,46.3764 311.5,46.5C 312.497,39.1968 312.831,31.8635 312.5,24.5C 314.833,24.5 317.167,24.5 319.5,24.5C 319.5,36.8333 319.5,49.1667 319.5,61.5C 317.143,61.6633 314.81,61.4966 312.5,61C 307.036,53.8929 301.702,46.7262 296.5,39.5C 296.44,38.9569 296.107,38.6236 295.5,38.5C 294.503,46.1378 294.169,53.8045 294.5,61.5C 291.833,61.5 289.167,61.5 286.5,61.5C 286.5,48.8333 286.5,36.1667 286.5,23.5C 289.187,23.3359 291.854,23.5026 294.5,24C 299.964,31.1071 305.298,38.2738 310.5,45.5 Z"/></g>
<g><path style="opacity:1" fill="#e0212b" d="M 399.5,47.5 C 400.492,40.0182 400.825,32.3516 400.5,24.5C 402.833,24.5 405.167,24.5 407.5,24.5C 407.5,33.1667 407.5,41.8333 407.5,50.5C 405.37,58.6164 400.036,62.6164 391.5,62.5C 383.407,62.8763 378.24,59.2097 376,51.5C 375.5,42.1726 375.334,32.8393 375.5,23.5C 378.167,23.5 380.833,23.5 383.5,23.5C 383.083,32.9146 383.583,42.2479 385,51.5C 389.536,55.4613 394.036,55.4613 398.5,51.5C 399.246,50.2638 399.579,48.9305 399.5,47.5 Z"/></g>
<g><path style="opacity:1" fill="#1d4a8d" d="M 23.5,170.5 C 19.8333,170.5 16.1667,170.5 12.5,170.5C 12.5,121.833 12.5,73.1667 12.5,24.5C 16.1667,24.5 19.8333,24.5 23.5,24.5C 23.5,73.1667 23.5,121.833 23.5,170.5 Z"/></g>
<g><path style="opacity:1" fill="#5c306e" d="M 36.5,23.5 C 44.5,23.5 52.5,23.5 60.5,23.5C 60.5,72.5 60.5,121.5 60.5,170.5C 52.5,170.5 44.5,170.5 36.5,170.5C 36.5,121.5 36.5,72.5 36.5,23.5 Z"/></g>
<g><path style="opacity:1" fill="#e0252d" d="M 204.5,23.5 C 211.508,23.3337 218.508,23.5004 225.5,24C 235.283,27.5411 236.95,33.3744 230.5,41.5C 238.052,47.2199 238.386,53.3865 231.5,60C 222.568,61.3813 213.568,61.8813 204.5,61.5C 204.5,48.8333 204.5,36.1667 204.5,23.5 Z"/></g>
<g><path style="opacity:1" fill="#ee8e94" d="M 312.5,23.5 C 312.5,23.8333 312.5,24.1667 312.5,24.5C 312.831,31.8635 312.497,39.1968 311.5,46.5C 310.893,46.3764 310.56,46.0431 310.5,45.5C 311.167,38.1667 311.833,30.8333 312.5,23.5 Z"/></g>
<g><path style="opacity:1" fill="#e5414b" d="M 312.5,24.5 C 312.5,24.1667 312.5,23.8333 312.5,23.5C 315.167,23.5 317.833,23.5 320.5,23.5C 320.829,36.3443 320.495,49.011 319.5,61.5C 319.5,49.1667 319.5,36.8333 319.5,24.5C 317.167,24.5 314.833,24.5 312.5,24.5 Z"/></g>
<g><path style="opacity:1" fill="#e95e64" d="M 407.5,50.5 C 407.5,41.8333 407.5,33.1667 407.5,24.5C 405.167,24.5 402.833,24.5 400.5,24.5C 400.825,32.3516 400.492,40.0182 399.5,47.5C 399.5,39.5 399.5,31.5 399.5,23.5C 402.5,23.5 405.5,23.5 408.5,23.5C 408.827,32.6822 408.493,41.6822 407.5,50.5 Z"/></g>
<g><path style="opacity:1" fill="#e0232c" d="M 417.5,23.5 C 426.833,23.5 436.167,23.5 445.5,23.5C 445.5,26.1667 445.5,28.8333 445.5,31.5C 438.833,31.5 432.167,31.5 425.5,31.5C 425.5,33.8333 425.5,36.1667 425.5,38.5C 430.975,39.4889 436.642,39.8222 442.5,39.5C 442.5,41.5 442.5,43.5 442.5,45.5C 436.642,45.1778 430.975,45.5111 425.5,46.5C 425.5,49.1667 425.5,51.8333 425.5,54.5C 432.167,54.5 438.833,54.5 445.5,54.5C 445.5,56.8333 445.5,59.1667 445.5,61.5C 436.167,61.5 426.833,61.5 417.5,61.5C 417.5,48.8333 417.5,36.1667 417.5,23.5 Z"/></g>
<g><path style="opacity:1" fill="#feefef" d="M 212.5,31.5 C 216.514,31.3345 220.514,31.5012 224.5,32C 227.341,35.1588 226.674,37.4922 222.5,39C 219.183,39.4983 215.85,39.665 212.5,39.5C 212.5,36.8333 212.5,34.1667 212.5,31.5 Z"/></g>
<g><path style="opacity:1" fill="#fef7f7" d="M 344.5,30.5 C 351.271,29.6982 356.104,32.3648 359,38.5C 359.79,41.634 359.457,44.634 358,47.5C 356.316,45.6487 354.483,43.982 352.5,42.5C 346.044,46.3427 346.044,50.0094 352.5,53.5C 340.745,55.5811 335.578,50.5811 337,38.5C 339.028,35.3078 341.528,32.6411 344.5,30.5 Z"/></g>
<g><path style="opacity:1" fill="#fdf1f2" d="M 259.5,34.5 C 262.488,37.4809 264.154,41.1476 264.5,45.5C 261.428,45.8174 258.428,45.4841 255.5,44.5C 257.036,41.2225 258.369,37.8891 259.5,34.5 Z"/></g>
<g><path style="opacity:1" fill="#1f4c8d" d="M 91.5,35.5 C 95.5,35.5 99.5,35.5 103.5,35.5C 103.5,84.5 103.5,133.5 103.5,182.5C 99.5,182.5 95.5,182.5 91.5,182.5C 91.5,133.5 91.5,84.5 91.5,35.5 Z"/></g>
<g><path style="opacity:1" fill="#f5babc" d="M 296.5,39.5 C 295.833,46.8333 295.167,54.1667 294.5,61.5C 294.169,53.8045 294.503,46.1378 295.5,38.5C 296.107,38.6236 296.44,38.9569 296.5,39.5 Z"/></g>
<g><path style="opacity:1" fill="#e7525b" d="M 425.5,38.5 C 431.5,38.5 437.5,38.5 443.5,38.5C 443.5,41.1667 443.5,43.8333 443.5,46.5C 437.5,46.5 431.5,46.5 425.5,46.5C 430.975,45.5111 436.642,45.1778 442.5,45.5C 442.5,43.5 442.5,41.5 442.5,39.5C 436.642,39.8222 430.975,39.4889 425.5,38.5 Z"/></g>
<g><path style="opacity:1" fill="#fef4f4" d="M 212.5,46.5 C 217.179,46.3342 221.845,46.5008 226.5,47C 229.371,49.8402 229.037,52.1735 225.5,54C 221.179,54.499 216.846,54.6657 212.5,54.5C 212.5,51.8333 212.5,49.1667 212.5,46.5 Z"/></g>
<g><path style="opacity:1" fill="#d58ca4" d="M 27.5,48.5 C 27.5,97.1667 27.5,145.833 27.5,194.5C 29.1667,194.5 30.8333,194.5 32.5,194.5C 32.8333,194.5 33.1667,194.5 33.5,194.5C 31.3926,195.468 29.0593,195.802 26.5,195.5C 26.1678,146.33 26.5012,97.3305 27.5,48.5 Z"/></g>
<g><path style="opacity:1" fill="#c86988" d="M 27.5,48.5 C 29.2646,47.5386 31.2646,47.2053 33.5,47.5C 33.5,96.5 33.5,145.5 33.5,194.5C 33.1667,194.5 32.8333,194.5 32.5,194.5C 32.5,145.833 32.5,97.1667 32.5,48.5C 30.8333,48.5 29.1667,48.5 27.5,48.5 Z"/></g>
<g><path style="opacity:1" fill="#a5063b" d="M 27.5,48.5 C 29.1667,48.5 30.8333,48.5 32.5,48.5C 32.5,97.1667 32.5,145.833 32.5,194.5C 30.8333,194.5 29.1667,194.5 27.5,194.5C 27.5,145.833 27.5,97.1667 27.5,48.5 Z"/></g>
<g><path style="opacity:1" fill="#ab1748" d="M 28.5,49.5 C 29.5,49.5 30.5,49.5 31.5,49.5C 31.5,97.5 31.5,145.5 31.5,193.5C 30.5,193.5 29.5,193.5 28.5,193.5C 28.5,145.5 28.5,97.5 28.5,49.5 Z"/></g>
<g><path style="opacity:1" fill="#7c7c80" d="M 645.5,51.5 C 649.675,51.188 653.675,51.8547 657.5,53.5C 658.052,55.0026 658.052,56.6693 657.5,58.5C 649.036,54.1372 644.036,56.6372 642.5,66C 643.198,75.6913 648.198,78.858 657.5,75.5C 657.734,80.6546 655.234,82.6546 650,81.5C 643.517,81.6935 639.183,78.6935 637,72.5C 634.389,63.0812 637.222,56.0812 645.5,51.5 Z"/></g>
<g><path style="opacity:1" fill="#7d7d81" d="M 668.5,51.5 C 683.6,49.7665 690.1,56.4332 688,71.5C 684.426,80.3694 677.926,83.5361 668.5,81C 660.886,75.7922 658.386,68.6255 661,59.5C 663.028,56.3078 665.528,53.6411 668.5,51.5 Z"/></g>
<g><path style="opacity:1" fill="#a9a9ab" d="M 704.5,52.5 C 700.833,52.5 697.167,52.5 693.5,52.5C 693.5,61.8333 693.5,71.1667 693.5,80.5C 695.167,80.5 696.833,80.5 698.5,80.5C 698.5,76.8333 698.5,73.1667 698.5,69.5C 700.099,69.2322 701.432,69.5655 702.5,70.5C 701.5,70.5 700.5,70.5 699.5,70.5C 699.5,74.1667 699.5,77.8333 699.5,81.5C 697.167,81.5 694.833,81.5 692.5,81.5C 692.5,71.5 692.5,61.5 692.5,51.5C 696.702,51.1832 700.702,51.5166 704.5,52.5 Z"/></g>
<g><path style="opacity:1" fill="#79797d" d="M 704.5,52.5 C 711.652,53.5 714.152,57.5 712,64.5C 710.5,66 709,67.5 707.5,69C 710.29,72.7461 712.957,76.5794 715.5,80.5C 713.167,81.8333 710.833,81.8333 708.5,80.5C 706.489,77.1389 704.489,73.8056 702.5,70.5C 701.432,69.5655 700.099,69.2322 698.5,69.5C 698.5,73.1667 698.5,76.8333 698.5,80.5C 696.833,80.5 695.167,80.5 693.5,80.5C 693.5,71.1667 693.5,61.8333 693.5,52.5C 697.167,52.5 700.833,52.5 704.5,52.5 Z"/></g>
<g><path style="opacity:1" fill="#7d7d81" d="M 735.5,52.5 C 735.5,54.1667 735.5,55.8333 735.5,57.5C 732.167,57.5 728.833,57.5 725.5,57.5C 725.5,59.5 725.5,61.5 725.5,63.5C 728.5,63.5 731.5,63.5 734.5,63.5C 734.5,65.1667 734.5,66.8333 734.5,68.5C 731.5,68.5 728.5,68.5 725.5,68.5C 725.5,70.8333 725.5,73.1667 725.5,75.5C 728.833,75.5 732.167,75.5 735.5,75.5C 735.5,77.1667 735.5,78.8333 735.5,80.5C 730.167,80.5 724.833,80.5 719.5,80.5C 719.5,71.1667 719.5,61.8333 719.5,52.5C 724.833,52.5 730.167,52.5 735.5,52.5 Z"/></g>
<g><path style="opacity:1" fill="#acacae" d="M 735.5,52.5 C 730.167,52.5 724.833,52.5 719.5,52.5C 719.5,61.8333 719.5,71.1667 719.5,80.5C 724.833,80.5 730.167,80.5 735.5,80.5C 730.025,81.4889 724.358,81.8222 718.5,81.5C 718.5,71.5 718.5,61.5 718.5,51.5C 724.358,51.1778 730.025,51.5111 735.5,52.5 Z"/></g>
<g><path style="opacity:1" fill="#f8f8f8" d="M 671.5,56.5 C 680.303,57.0644 683.469,61.7311 681,70.5C 679.047,76.5324 675.213,78.0324 669.5,75C 664.99,68.0993 665.656,61.9327 671.5,56.5 Z"/></g>
<g><path style="opacity:1" fill="#f8f8f8" d="M 703.5,57.5 C 705.722,57.5587 706.722,58.7253 706.5,61C 706.722,63.2747 705.722,64.4413 703.5,64.5C 702.167,64.5 700.833,64.5 699.5,64.5C 699.5,62.1667 699.5,59.8333 699.5,57.5C 700.833,57.5 702.167,57.5 703.5,57.5 Z"/></g>
<g><path style="opacity:1" fill="#b7b7b8" d="M 703.5,57.5 C 702.167,57.5 700.833,57.5 699.5,57.5C 699.5,59.8333 699.5,62.1667 699.5,64.5C 700.833,64.5 702.167,64.5 703.5,64.5C 702.081,65.4511 700.415,65.7845 698.5,65.5C 698.5,62.5 698.5,59.5 698.5,56.5C 700.415,56.2155 702.081,56.5489 703.5,57.5 Z"/></g>
<g><path style="opacity:1" fill="#f3a5a9" d="M 417.5,23.5 C 417.5,36.1667 417.5,48.8333 417.5,61.5C 426.833,61.5 436.167,61.5 445.5,61.5C 436.014,62.4938 426.348,62.8271 416.5,62.5C 416.171,49.3226 416.505,36.3226 417.5,23.5 Z"/></g>
<g><path style="opacity:1" fill="#e1282f" d="M 492.5,74.5 C 490.265,74.7947 488.265,74.4614 486.5,73.5C 488.477,71.1862 490.477,68.8528 492.5,66.5C 494.664,67.4143 496.664,68.581 498.5,70C 496.649,71.7524 494.649,73.2524 492.5,74.5 Z"/></g>
<g><path style="opacity:1" fill="#ee888e" d="M 486.5,73.5 C 488.265,74.4614 490.265,74.7947 492.5,74.5C 490.307,75.7969 487.973,75.7969 485.5,74.5C 485.624,73.8933 485.957,73.56 486.5,73.5 Z"/></g>
<g><path style="opacity:1" fill="#f09096" d="M 474.5,78.5 C 483.986,77.5062 493.652,77.1729 503.5,77.5C 503.806,80.3854 503.473,83.0521 502.5,85.5C 502.5,83.1667 502.5,80.8333 502.5,78.5C 493.167,78.5 483.833,78.5 474.5,78.5 Z"/></g>
<g><path style="opacity:1" fill="#e0222b" d="M 204.5,78.5 C 211.508,78.3337 218.508,78.5004 225.5,79C 238.475,84.2439 242.308,93.4106 237,106.5C 233.946,111.614 229.446,114.614 223.5,115.5C 217.167,115.5 210.833,115.5 204.5,115.5C 204.5,103.167 204.5,90.8333 204.5,78.5 Z"/></g>
<g><path style="opacity:1" fill="#e1252d" d="M 354.5,77.5 C 374.999,76.1997 383.165,85.533 379,105.5C 373.221,115.093 364.721,118.593 353.5,116C 340.388,108.941 337.222,98.7744 344,85.5C 346.94,81.9632 350.44,79.2965 354.5,77.5 Z"/></g>
<g><path style="opacity:1" fill="#e0242d" d="M 554.5,77.5 C 561.596,76.536 567.929,78.2027 573.5,82.5C 572.243,84.6789 570.743,86.6789 569,88.5C 564.854,85.1029 560.354,84.2695 555.5,86C 554.115,88.5848 554.782,90.5848 557.5,92C 562.383,93.0722 567.05,94.7388 571.5,97C 574.849,101.478 575.349,106.312 573,111.5C 564.939,117.594 556.439,118.094 547.5,113C 546.426,112.261 545.759,111.261 545.5,110C 546.608,107.888 548.108,106.054 550,104.5C 554.665,109.499 559.999,110.499 566,107.5C 566.72,105.888 566.554,104.388 565.5,103C 561.289,101.29 556.956,99.9572 552.5,99C 546.891,95.7231 545.058,90.8897 547,84.5C 548.742,81.2543 551.242,78.921 554.5,77.5 Z"/></g>
<g><path style="opacity:1" fill="#e0242d" d="M 299.5,78.5 C 306.508,78.3337 313.508,78.5004 320.5,79C 334.675,84.8515 338.175,94.6848 331,108.5C 327.579,112.257 323.412,114.757 318.5,116C 312.175,116.5 305.842,116.666 299.5,116.5C 299.5,103.833 299.5,91.1667 299.5,78.5 Z"/></g>
<g><path style="opacity:1" fill="#ee868d" d="M 422.5,78.5 C 422.167,78.5 421.833,78.5 421.5,78.5C 419.167,78.5 416.833,78.5 414.5,78.5C 414.831,85.8635 414.497,93.1968 413.5,100.5C 412.893,100.376 412.56,100.043 412.5,99.5C 413.492,92.3524 413.825,85.0191 413.5,77.5C 416.713,77.19 419.713,77.5233 422.5,78.5 Z"/></g>
<g><path style="opacity:1" fill="#eb6970" d="M 275.5,78.5 C 266.167,78.5 256.833,78.5 247.5,78.5C 247.5,90.8333 247.5,103.167 247.5,115.5C 256.833,115.5 266.167,115.5 275.5,115.5C 266.014,116.494 256.348,116.827 246.5,116.5C 246.5,103.5 246.5,90.5 246.5,77.5C 256.348,77.1729 266.014,77.5062 275.5,78.5 Z"/></g>
<g><path style="opacity:1" fill="#e01e29" d="M 275.5,78.5 C 275.5,80.8333 275.5,83.1667 275.5,85.5C 268.833,85.5 262.167,85.5 255.5,85.5C 254.527,87.9479 254.194,90.6146 254.5,93.5C 260.5,93.5 266.5,93.5 272.5,93.5C 272.5,95.8333 272.5,98.1667 272.5,100.5C 266.5,100.5 260.5,100.5 254.5,100.5C 254.194,103.385 254.527,106.052 255.5,108.5C 262.167,108.5 268.833,108.5 275.5,108.5C 275.5,110.833 275.5,113.167 275.5,115.5C 266.167,115.5 256.833,115.5 247.5,115.5C 247.5,103.167 247.5,90.8333 247.5,78.5C 256.833,78.5 266.167,78.5 275.5,78.5 Z"/></g>
<g><path style="opacity:1" fill="#e0202a" d="M 412.5,99.5 C 412.56,100.043 412.893,100.376 413.5,100.5C 414.497,93.1968 414.831,85.8635 414.5,78.5C 416.833,78.5 419.167,78.5 421.5,78.5C 421.5,90.8333 421.5,103.167 421.5,115.5C 419.167,115.5 416.833,115.5 414.5,115.5C 408.676,107.863 402.842,100.197 397,92.5C 396.5,100.493 396.334,108.493 396.5,116.5C 393.833,116.5 391.167,116.5 388.5,116.5C 388.5,103.833 388.5,91.1667 388.5,78.5C 391.187,78.3359 393.854,78.5026 396.5,79C 402.048,85.7089 407.381,92.5422 412.5,99.5 Z"/></g>
<g><path style="opacity:1" fill="#e85c65" d="M 421.5,78.5 C 421.833,78.5 422.167,78.5 422.5,78.5C 422.5,91.1667 422.5,103.833 422.5,116.5C 419.615,116.806 416.948,116.473 414.5,115.5C 416.833,115.5 419.167,115.5 421.5,115.5C 421.5,103.167 421.5,90.8333 421.5,78.5 Z"/></g>
<g><path style="opacity:1" fill="#e0202a" d="M 455.5,99.5 C 455.56,100.043 455.893,100.376 456.5,100.5C 457.497,93.1968 457.831,85.8635 457.5,78.5C 459.833,78.5 462.167,78.5 464.5,78.5C 464.5,90.8333 464.5,103.167 464.5,115.5C 462.167,115.5 459.833,115.5 457.5,115.5C 452.167,108.5 446.833,101.5 441.5,94.5C 441.217,93.7109 440.717,93.0442 440,92.5C 439.5,100.493 439.334,108.493 439.5,116.5C 436.833,116.5 434.167,116.5 431.5,116.5C 431.5,103.833 431.5,91.1667 431.5,78.5C 434.187,78.3359 436.854,78.5026 439.5,79C 445.048,85.7089 450.381,92.5422 455.5,99.5 Z"/></g>
<g><path style="opacity:1" fill="#ee828a" d="M 457.5,78.5 C 457.831,85.8635 457.497,93.1968 456.5,100.5C 455.893,100.376 455.56,100.043 455.5,99.5C 456.167,92.5 456.833,85.5 457.5,78.5 Z"/></g>
<g><path style="opacity:1" fill="#ea646b" d="M 457.5,78.5 C 459.948,77.5269 462.615,77.1936 465.5,77.5C 465.5,90.5 465.5,103.5 465.5,116.5C 462.615,116.806 459.948,116.473 457.5,115.5C 459.833,115.5 462.167,115.5 464.5,115.5C 464.5,103.167 464.5,90.8333 464.5,78.5C 462.167,78.5 459.833,78.5 457.5,78.5 Z"/></g>
<g><path style="opacity:1" fill="#e0232c" d="M 474.5,78.5 C 483.833,78.5 493.167,78.5 502.5,78.5C 502.5,80.8333 502.5,83.1667 502.5,85.5C 496.167,85.5 489.833,85.5 483.5,85.5C 482.527,87.9479 482.194,90.6146 482.5,93.5C 488.5,93.5 494.5,93.5 500.5,93.5C 500.5,95.8333 500.5,98.1667 500.5,100.5C 494.5,100.5 488.5,100.5 482.5,100.5C 482.194,103.385 482.527,106.052 483.5,108.5C 490.167,108.5 496.833,108.5 503.5,108.5C 503.5,111.167 503.5,113.833 503.5,116.5C 493.833,116.5 484.167,116.5 474.5,116.5C 474.5,103.833 474.5,91.1667 474.5,78.5 Z"/></g>
<g><path style="opacity:1" fill="#ec7a80" d="M 539.5,78.5 C 530.167,78.5 520.833,78.5 511.5,78.5C 511.5,90.8333 511.5,103.167 511.5,115.5C 520.833,115.5 530.167,115.5 539.5,115.5C 539.5,113.167 539.5,110.833 539.5,108.5C 540.473,110.948 540.806,113.615 540.5,116.5C 530.5,116.5 520.5,116.5 510.5,116.5C 510.5,103.5 510.5,90.5 510.5,77.5C 520.348,77.1729 530.014,77.5062 539.5,78.5 Z"/></g>
<g><path style="opacity:1" fill="#e0222c" d="M 539.5,78.5 C 539.5,80.8333 539.5,83.1667 539.5,85.5C 532.833,85.5 526.167,85.5 519.5,85.5C 519.5,88.1667 519.5,90.8333 519.5,93.5C 525.5,93.5 531.5,93.5 537.5,93.5C 537.5,95.8333 537.5,98.1667 537.5,100.5C 531.5,100.5 525.5,100.5 519.5,100.5C 519.5,103.167 519.5,105.833 519.5,108.5C 526.167,108.5 532.833,108.5 539.5,108.5C 539.5,110.833 539.5,113.167 539.5,115.5C 530.167,115.5 520.833,115.5 511.5,115.5C 511.5,103.167 511.5,90.8333 511.5,78.5C 520.833,78.5 530.167,78.5 539.5,78.5 Z"/></g>
<g><path style="opacity:1" fill="#f1a20f" d="M 773.5,82.5 C 778.651,82.8141 781.151,85.4808 781,90.5C 771.667,114.5 762.333,138.5 753,162.5C 750.79,165.29 747.956,166.123 744.5,165C 737.286,152.74 730.452,140.24 724,127.5C 723.898,120.605 727.065,118.439 733.5,121C 738.127,129.086 742.627,137.253 747,145.5C 754.53,126.578 761.863,107.578 769,88.5C 769.804,85.8541 771.304,83.8541 773.5,82.5 Z"/></g>
<g><path style="opacity:1" fill="#fef9f9" d="M 355.5,85.5 C 366.726,83.8212 372.226,88.4879 372,99.5C 369.421,107.708 363.921,110.541 355.5,108C 347.528,100.548 347.528,93.0476 355.5,85.5 Z"/></g>
<g><path style="opacity:1" fill="#f2a61f" d="M 717.5,85.5 C 722.214,85.3531 726.881,85.6864 731.5,86.5C 731.767,88.9711 730.767,90.6378 728.5,91.5C 725.61,90.315 722.776,90.315 720,91.5C 719.333,92.5 719.333,93.5 720,94.5C 724.537,96.77 728.537,99.77 732,103.5C 732.85,111.82 729.016,115.82 720.5,115.5C 716.438,115.814 713.772,114.147 712.5,110.5C 712.833,109.5 713.167,108.5 713.5,107.5C 716.962,109.391 720.628,109.891 724.5,109C 725.747,107.506 725.747,106.006 724.5,104.5C 720.241,102.729 716.741,100.063 714,96.5C 712.662,91.9597 713.829,88.293 717.5,85.5 Z"/></g>
<g><path style="opacity:1" fill="#fef9f9" d="M 212.5,85.5 C 226.766,83.9209 232.266,89.9209 229,103.5C 224.471,107.989 218.971,109.655 212.5,108.5C 212.5,100.833 212.5,93.1667 212.5,85.5 Z"/></g>
<g><path style="opacity:1" fill="#fef6f6" d="M 307.5,85.5 C 320.344,83.5178 326.177,88.8511 325,101.5C 320.923,107.812 315.09,110.145 307.5,108.5C 307.5,100.833 307.5,93.1667 307.5,85.5 Z"/></g>
<g><path style="opacity:1" fill="#f2a61f" d="M 634.5,85.5 C 641.833,85.5 649.167,85.5 656.5,85.5C 656.5,87.1667 656.5,88.8333 656.5,90.5C 654.167,90.5 651.833,90.5 649.5,90.5C 649.5,98.5 649.5,106.5 649.5,114.5C 647.167,114.5 644.833,114.5 642.5,114.5C 642.5,106.5 642.5,98.5 642.5,90.5C 639.833,90.5 637.167,90.5 634.5,90.5C 634.5,88.8333 634.5,87.1667 634.5,85.5 Z"/></g>
<g><path style="opacity:1" fill="#f1a311" d="M 660.5,85.5 C 665.179,85.3342 669.845,85.5008 674.5,86C 682.114,90.9195 682.447,96.4195 675.5,102.5C 678.043,106.421 680.71,110.254 683.5,114C 681.167,114.667 678.833,114.667 676.5,114C 674.273,111.436 672.439,108.603 671,105.5C 669.89,103.963 668.39,103.297 666.5,103.5C 666.5,107.167 666.5,110.833 666.5,114.5C 664.5,114.5 662.5,114.5 660.5,114.5C 660.5,104.833 660.5,95.1667 660.5,85.5 Z"/></g>
<g><path style="opacity:1" fill="#f2a829" d="M 684.5,85.5 C 686.833,85.5 689.167,85.5 691.5,85.5C 691.334,92.8409 691.5,100.174 692,107.5C 695.333,110.167 698.667,110.167 702,107.5C 702.5,100.174 702.666,92.8409 702.5,85.5C 704.833,85.5 707.167,85.5 709.5,85.5C 709.901,93.5852 709.401,101.585 708,109.5C 701.91,116.365 695.076,117.199 687.5,112C 686.54,110.581 685.707,109.081 685,107.5C 684.5,100.174 684.334,92.8409 684.5,85.5 Z"/></g>
<g><path style="opacity:1" fill="#f1a20a" d="M 742.5,114.5 C 742.5,106.5 742.5,98.5 742.5,90.5C 739.833,90.5 737.167,90.5 734.5,90.5C 734.5,88.8333 734.5,87.1667 734.5,85.5C 741.833,85.5 749.167,85.5 756.5,85.5C 756.5,87.1667 756.5,88.8333 756.5,90.5C 753.833,90.5 751.167,90.5 748.5,90.5C 748.5,98.5 748.5,106.5 748.5,114.5C 746.5,114.5 744.5,114.5 742.5,114.5 Z"/></g>
<g><path style="opacity:1" fill="#fef7ec" d="M 666.5,90.5 C 670.271,89.7737 672.937,91.107 674.5,94.5C 672.937,97.893 670.271,99.2263 666.5,98.5C 666.5,95.8333 666.5,93.1667 666.5,90.5 Z"/></g>
<g><path style="opacity:1" fill="#f4a8ac" d="M 255.5,85.5 C 255.5,87.8333 255.5,90.1667 255.5,92.5C 261.5,92.5 267.5,92.5 273.5,92.5C 273.5,95.5 273.5,98.5 273.5,101.5C 267.5,101.5 261.5,101.5 255.5,101.5C 255.5,103.833 255.5,106.167 255.5,108.5C 254.527,106.052 254.194,103.385 254.5,100.5C 260.5,100.5 266.5,100.5 272.5,100.5C 272.5,98.1667 272.5,95.8333 272.5,93.5C 266.5,93.5 260.5,93.5 254.5,93.5C 254.194,90.6146 254.527,87.9479 255.5,85.5 Z"/></g>
<g><path style="opacity:1" fill="#f4b9bd" d="M 483.5,85.5 C 483.5,87.8333 483.5,90.1667 483.5,92.5C 489.358,92.1778 495.025,92.5111 500.5,93.5C 494.5,93.5 488.5,93.5 482.5,93.5C 482.194,90.6146 482.527,87.9479 483.5,85.5 Z"/></g>
<g><path style="opacity:1" fill="#f9d89d" d="M 734.5,90.5 C 737.167,90.5 739.833,90.5 742.5,90.5C 742.5,98.5 742.5,106.5 742.5,114.5C 741.508,107.018 741.175,99.3516 741.5,91.5C 738.941,91.8016 736.607,91.4682 734.5,90.5 Z"/></g>
<g><path style="opacity:1" fill="#f7c9cb" d="M 441.5,94.5 C 440.833,101.833 440.167,109.167 439.5,116.5C 439.334,108.493 439.5,100.493 440,92.5C 440.717,93.0442 441.217,93.7109 441.5,94.5 Z"/></g>
<g><path style="opacity:1" fill="#f6c5c8" d="M 500.5,100.5 C 495.025,101.489 489.358,101.822 483.5,101.5C 483.5,103.833 483.5,106.167 483.5,108.5C 482.527,106.052 482.194,103.385 482.5,100.5C 488.5,100.5 494.5,100.5 500.5,100.5 Z"/></g>
<g><path style="opacity:1" fill="#ef898f" d="M 204.5,78.5 C 204.5,90.8333 204.5,103.167 204.5,115.5C 210.833,115.5 217.167,115.5 223.5,115.5C 217.021,116.491 210.354,116.824 203.5,116.5C 203.171,103.656 203.505,90.989 204.5,78.5 Z"/></g>
<g><path style="opacity:1" fill="#7d7d81" d="M 641.5,118.5 C 646.284,117.839 650.618,118.839 654.5,121.5C 654.023,122.931 653.357,124.264 652.5,125.5C 649.656,123.897 646.656,123.397 643.5,124C 642.167,125.667 642.167,127.333 643.5,129C 647.342,130.614 650.842,132.781 654,135.5C 654.667,138.5 654.667,141.5 654,144.5C 652.786,146.049 651.286,147.215 649.5,148C 644.796,148.648 640.129,148.481 635.5,147.5C 635.201,145.396 635.534,143.396 636.5,141.5C 640.002,143.262 643.668,143.762 647.5,143C 648.833,141.333 648.833,139.667 647.5,138C 643.169,136.592 639.669,134.092 637,130.5C 635.474,125.239 636.974,121.239 641.5,118.5 Z"/></g>
<g><path style="opacity:1" fill="#7c7c80" d="M 659.5,119.5 C 665.167,119.5 670.833,119.5 676.5,119.5C 676.5,121.167 676.5,122.833 676.5,124.5C 672.833,124.5 669.167,124.5 665.5,124.5C 665.5,126.5 665.5,128.5 665.5,130.5C 668.833,130.5 672.167,130.5 675.5,130.5C 675.5,132.167 675.5,133.833 675.5,135.5C 672.167,135.5 668.833,135.5 665.5,135.5C 665.5,138.167 665.5,140.833 665.5,143.5C 668.833,143.5 672.167,143.5 675.5,143.5C 675.5,144.833 675.5,146.167 675.5,147.5C 670.167,147.5 664.833,147.5 659.5,147.5C 659.5,138.167 659.5,128.833 659.5,119.5 Z"/></g>
<g><path style="opacity:1" fill="#7e7e82" d="M 688.5,118.5 C 691.167,118.5 693.833,118.5 696.5,118.5C 699.427,128.281 702.761,137.948 706.5,147.5C 704.257,148.474 701.924,148.808 699.5,148.5C 700.022,142.859 697.522,140.526 692,141.5C 690.167,141.833 688.333,142.167 686.5,142.5C 686.417,147.86 683.75,149.86 678.5,148.5C 681.232,138.303 684.566,128.303 688.5,118.5 Z"/></g>
<g><path style="opacity:1" fill="#eaeaea" d="M 691.5,124.5 C 692.117,124.611 692.617,124.944 693,125.5C 694.31,129.07 695.143,132.737 695.5,136.5C 693.167,136.5 690.833,136.5 688.5,136.5C 689.5,132.5 690.5,128.5 691.5,124.5 Z"/></g>
<g><path style="opacity:1" fill="#e1242d" d="M 345.5,132.5 C 351.509,132.334 357.509,132.501 363.5,133C 379.068,138.471 382.901,148.637 375,163.5C 371.896,166.933 368.063,169.1 363.5,170C 357.509,170.499 351.509,170.666 345.5,170.5C 345.5,157.833 345.5,145.167 345.5,132.5 Z"/></g>
<g><path style="opacity:1" fill="#fefcfc" d="M 350.5,136.5 C 359.852,134.428 367.352,137.095 373,144.5C 375.544,151.359 374.377,157.526 369.5,163C 367.593,164.122 365.593,164.955 363.5,165.5C 359.167,165.5 354.833,165.5 350.5,165.5C 350.5,155.833 350.5,146.167 350.5,136.5 Z"/></g>
<g><path style="opacity:1" fill="#f8ced2" d="M 350.5,136.5 C 350.5,146.167 350.5,155.833 350.5,165.5C 354.833,165.5 359.167,165.5 363.5,165.5C 359.03,166.486 354.363,166.819 349.5,166.5C 349.173,156.319 349.506,146.319 350.5,136.5 Z"/></g>
<g><path style="opacity:1" fill="#e22a30" d="M 394.5,131.5 C 401.084,131.14 407.084,132.807 412.5,136.5C 411.833,137.833 410.833,138.833 409.5,139.5C 405.262,136.587 400.595,135.42 395.5,136C 389.799,138.832 389.133,142.498 393.5,147C 396.957,148.743 400.623,149.743 404.5,150C 411.79,151.755 414.624,156.255 413,163.5C 411.5,166.333 409.333,168.5 406.5,170C 401.833,170.667 397.167,170.667 392.5,170C 389.424,169.089 387.091,167.256 385.5,164.5C 385.887,163.28 386.72,162.613 388,162.5C 393.954,167.827 400.454,168.661 407.5,165C 410.405,161.626 410.072,158.626 406.5,156C 401.547,154.228 396.547,152.562 391.5,151C 386.47,147.144 385.303,142.311 388,136.5C 390.326,134.934 392.492,133.268 394.5,131.5 Z"/></g>
<g><path style="opacity:1" fill="#e12a30" d="M 422.5,132.5 C 429.175,132.334 435.842,132.5 442.5,133C 449.666,135.834 452.166,141.001 450,148.5C 447.971,153.614 444.137,156.447 438.5,157C 434.514,157.499 430.514,157.666 426.5,157.5C 426.5,161.833 426.5,166.167 426.5,170.5C 425.167,170.5 423.833,170.5 422.5,170.5C 422.5,157.833 422.5,145.167 422.5,132.5 Z"/></g>
<g><path style="opacity:1" fill="#fef6f6" d="M 426.5,136.5 C 431.93,136.161 437.264,136.661 442.5,138C 446.696,140.981 447.529,144.814 445,149.5C 444.097,150.701 442.931,151.535 441.5,152C 436.599,153.325 431.599,153.825 426.5,153.5C 426.5,147.833 426.5,142.167 426.5,136.5 Z"/></g>
<g><path style="opacity:1" fill="#acacae" d="M 659.5,119.5 C 659.5,128.833 659.5,138.167 659.5,147.5C 664.833,147.5 670.167,147.5 675.5,147.5C 670.025,148.489 664.358,148.822 658.5,148.5C 658.173,138.652 658.506,128.986 659.5,119.5 Z"/></g>
<g><path style="opacity:1" fill="#adadaf" d="M 709.5,119.5 C 711.265,118.539 713.265,118.205 715.5,118.5C 715.5,126.5 715.5,134.5 715.5,142.5C 719.5,142.5 723.5,142.5 727.5,142.5C 727.5,144.5 727.5,146.5 727.5,148.5C 721.167,148.5 714.833,148.5 708.5,148.5C 708.173,138.652 708.506,128.986 709.5,119.5 Z"/></g>
<g><path style="opacity:1" fill="#77777b" d="M 709.5,119.5 C 711.167,119.5 712.833,119.5 714.5,119.5C 714.5,127.5 714.5,135.5 714.5,143.5C 718.5,143.5 722.5,143.5 726.5,143.5C 726.5,144.833 726.5,146.167 726.5,147.5C 720.833,147.5 715.167,147.5 709.5,147.5C 709.5,138.167 709.5,128.833 709.5,119.5 Z"/></g>
<g><path style="opacity:1" fill="#e23135" d="M 204.5,132.5 C 210.842,132.334 217.175,132.5 223.5,133C 238.337,138.511 242.17,148.345 235,162.5C 232.072,166.381 228.239,168.881 223.5,170C 217.175,170.5 210.842,170.666 204.5,170.5C 204.5,157.833 204.5,145.167 204.5,132.5 Z"/></g>
<g><path style="opacity:1" fill="#fefcfc" d="M 209.5,136.5 C 218.441,134.648 225.941,136.981 232,143.5C 236.337,154.869 232.837,162.369 221.5,166C 217.514,166.499 213.514,166.666 209.5,166.5C 209.5,156.5 209.5,146.5 209.5,136.5 Z"/></g>
<g><path style="opacity:1" fill="#e22f34" d="M 317.5,131.5 C 325.293,130.376 331.959,132.542 337.5,138C 336.646,139.022 335.646,139.855 334.5,140.5C 323.959,132.501 315.459,134.168 309,145.5C 306.057,159.522 311.557,166.689 325.5,167C 329.207,166.064 332.374,164.231 335,161.5C 337.952,163.193 338.118,165.026 335.5,167C 325,173.797 315.5,172.63 307,163.5C 299.957,149.273 303.457,138.607 317.5,131.5 Z"/></g>
<g><path style="opacity:1" fill="#e33537" d="M 246.5,132.5 C 248.167,132.5 249.833,132.5 251.5,132.5C 251.08,142.247 251.58,151.914 253,161.5C 255.075,165.537 258.408,167.204 263,166.5C 267.592,167.204 270.925,165.537 273,161.5C 274.391,151.9 274.891,142.233 274.5,132.5C 275.833,132.5 277.167,132.5 278.5,132.5C 278.666,141.839 278.5,151.173 278,160.5C 275.308,167.857 269.975,171.523 262,171.5C 255.399,170.867 250.732,167.533 248,161.5C 246.609,151.9 246.109,142.233 246.5,132.5 Z"/></g>
</svg>
