<?xml version="1.0" encoding="UTF-8"?>
<svg xmlns="http://www.w3.org/2000/svg" xmlns:xlink="http://www.w3.org/1999/xlink" width="1859px" height="678px" viewBox="0 0 466 170" version="1.1">
<defs>
<filter id="alpha" filterUnits="objectBoundingBox" x="0%" y="0%" width="100%" height="100%">
  <feColorMatrix type="matrix" in="SourceGraphic" values="0 0 0 0 1 0 0 0 0 1 0 0 0 0 1 0 0 0 1 0"/>
</filter>
<mask id="mask0">
  <g filter="url(#alpha)">
<rect x="0" y="0" width="466" height="170" style="fill:rgb(0%,0%,0%);fill-opacity:0.996078;stroke:none;"/>
  </g>
</mask>
<clipPath id="clip1">
  <rect x="0" y="0" width="466" height="170"/>
</clipPath>
<g id="surface5" clip-path="url(#clip1)">
<path style=" stroke:none;fill-rule:evenodd;fill:rgb(89.411765%,7.45098%,15.294118%);fill-opacity:1;" d="M 48.003906 -0.125 C 55.605469 -0.125 63.210938 -0.125 70.816406 -0.125 C 70.816406 45.257812 70.816406 90.640625 70.816406 136.023438 C 63.210938 136.023438 55.605469 136.023438 48.003906 136.023438 C 48.003906 90.640625 48.003906 45.257812 48.003906 -0.125 Z M 48.003906 -0.125 "/>
</g>
<mask id="mask1">
  <g filter="url(#alpha)">
<rect x="0" y="0" width="466" height="170" style="fill:rgb(0%,0%,0%);fill-opacity:0.945098;stroke:none;"/>
  </g>
</mask>
<clipPath id="clip2">
  <rect x="0" y="0" width="466" height="170"/>
</clipPath>
<g id="surface8" clip-path="url(#clip2)">
<path style=" stroke:none;fill-rule:evenodd;fill:rgb(31.764706%,17.254902%,38.039216%);fill-opacity:1;" d="M 87.609375 -0.125 C 89.617188 -0.125 91.621094 -0.125 93.625 -0.125 C 93.625 45.257812 93.625 90.640625 93.625 136.023438 C 91.621094 136.023438 89.617188 136.023438 87.609375 136.023438 C 87.609375 90.640625 87.609375 45.257812 87.609375 -0.125 Z M 87.609375 -0.125 "/>
</g>
<mask id="mask2">
  <g filter="url(#alpha)">
<rect x="0" y="0" width="466" height="170" style="fill:rgb(0%,0%,0%);fill-opacity:0.988235;stroke:none;"/>
  </g>
</mask>
<clipPath id="clip3">
  <rect x="0" y="0" width="466" height="170"/>
</clipPath>
<g id="surface11" clip-path="url(#clip3)">
<path style=" stroke:none;fill-rule:evenodd;fill:rgb(0.784314%,26.27451%,50.196078%);fill-opacity:1;" d="M 144.261719 -0.125 C 148.105469 -0.125 151.949219 -0.125 155.792969 -0.125 C 155.792969 45.257812 155.792969 90.640625 155.792969 136.023438 C 151.949219 136.023438 148.105469 136.023438 144.261719 136.023438 C 144.261719 90.640625 144.261719 45.257812 144.261719 -0.125 Z M 144.261719 -0.125 "/>
</g>
<mask id="mask3">
  <g filter="url(#alpha)">
<rect x="0" y="0" width="466" height="170" style="fill:rgb(0%,0%,0%);fill-opacity:0.984314;stroke:none;"/>
  </g>
</mask>
<clipPath id="clip4">
  <rect x="0" y="0" width="466" height="170"/>
</clipPath>
<g id="surface14" clip-path="url(#clip4)">
<path style=" stroke:none;fill-rule:evenodd;fill:rgb(0.784314%,26.27451%,50.196078%);fill-opacity:1;" d="M -0.125 11.15625 C 3.71875 11.15625 7.5625 11.15625 11.40625 11.15625 C 11.40625 56.542969 11.40625 101.925781 11.40625 147.308594 C 7.5625 147.308594 3.71875 147.308594 -0.125 147.308594 C -0.125 101.925781 -0.125 56.542969 -0.125 11.15625 Z M -0.125 11.15625 "/>
</g>
<mask id="mask4">
  <g filter="url(#alpha)">
<rect x="0" y="0" width="466" height="170" style="fill:rgb(0%,0%,0%);fill-opacity:0.996078;stroke:none;"/>
  </g>
</mask>
<clipPath id="clip5">
  <rect x="0" y="0" width="466" height="170"/>
</clipPath>
<g id="surface17" clip-path="url(#clip5)">
<path style=" stroke:none;fill-rule:evenodd;fill:rgb(31.764706%,17.254902%,38.039216%);fill-opacity:1;" d="M 22.433594 11.15625 C 30.039062 11.15625 37.644531 11.15625 45.246094 11.15625 C 45.246094 56.542969 45.246094 101.925781 45.246094 147.308594 C 37.644531 147.308594 30.039062 147.308594 22.433594 147.308594 C 22.433594 101.925781 22.433594 56.542969 22.433594 11.15625 Z M 22.433594 11.15625 "/>
</g>
<mask id="mask5">
  <g filter="url(#alpha)">
<rect x="0" y="0" width="466" height="170" style="fill:rgb(0%,0%,0%);fill-opacity:0.996078;stroke:none;"/>
  </g>
</mask>
<clipPath id="clip6">
  <rect x="0" y="0" width="466" height="170"/>
</clipPath>
<g id="surface20" clip-path="url(#clip6)">
<path style=" stroke:none;fill-rule:evenodd;fill:rgb(64.705882%,6.27451%,24.313725%);fill-opacity:1;" d="M 96.132812 11.15625 C 111.339844 11.15625 126.546875 11.15625 141.753906 11.15625 C 141.753906 56.542969 141.753906 101.925781 141.753906 147.308594 C 126.546875 147.308594 111.339844 147.308594 96.132812 147.308594 C 96.132812 101.925781 96.132812 56.542969 96.132812 11.15625 Z M 96.132812 11.15625 "/>
</g>
<mask id="mask6">
  <g filter="url(#alpha)">
<rect x="0" y="0" width="466" height="170" style="fill:rgb(0%,0%,0%);fill-opacity:0.988235;stroke:none;"/>
  </g>
</mask>
<clipPath id="clip7">
  <rect x="0" y="0" width="466" height="170"/>
</clipPath>
<g id="surface23" clip-path="url(#clip7)">
<path style=" stroke:none;fill-rule:evenodd;fill:rgb(0.784314%,26.27451%,50.196078%);fill-opacity:1;" d="M 73.574219 22.441406 C 77.414062 22.441406 81.257812 22.441406 85.101562 22.441406 C 85.101562 67.824219 85.101562 113.207031 85.101562 158.589844 C 81.257812 158.589844 77.414062 158.589844 73.574219 158.589844 C 73.574219 113.207031 73.574219 67.824219 73.574219 22.441406 Z M 73.574219 22.441406 "/>
</g>
<mask id="mask7">
  <g filter="url(#alpha)">
<rect x="0" y="0" width="466" height="170" style="fill:rgb(0%,0%,0%);fill-opacity:0.945098;stroke:none;"/>
  </g>
</mask>
<clipPath id="clip8">
  <rect x="0" y="0" width="466" height="170"/>
</clipPath>
<g id="surface26" clip-path="url(#clip8)">
<path style=" stroke:none;fill-rule:evenodd;fill:rgb(64.705882%,6.27451%,24.313725%);fill-opacity:1;" d="M 19.929688 169.875 C 17.921875 169.875 15.917969 169.875 13.914062 169.875 C 13.914062 124.492188 13.914062 79.109375 13.914062 33.722656 C 15.917969 33.722656 17.921875 33.722656 19.929688 33.722656 C 19.929688 79.109375 19.929688 124.492188 19.929688 169.875 Z M 19.929688 169.875 "/>
</g>
<mask id="mask8">
  <g filter="url(#alpha)">
<rect x="0" y="0" width="466" height="170" style="fill:rgb(0%,0%,0%);fill-opacity:0.941176;stroke:none;"/>
  </g>
</mask>
<clipPath id="clip9">
  <rect x="0" y="0" width="466" height="170"/>
</clipPath>
<g id="surface29" clip-path="url(#clip9)">
<path style=" stroke:none;fill-rule:evenodd;fill:rgb(89.411765%,7.45098%,15.294118%);fill-opacity:1;" d="M 191.890625 35.730469 C 197.324219 35.019531 202.253906 36.230469 206.679688 39.367188 C 207.472656 39.925781 208.140625 40.59375 208.683594 41.371094 C 207.808594 42.457031 206.890625 43.5 205.925781 44.507812 C 200.71875 39.351562 194.785156 38.304688 188.128906 41.371094 C 183.675781 44.386719 181.417969 48.609375 181.363281 54.035156 C 181.398438 59.328125 183.570312 63.46875 187.878906 66.445312 C 194.730469 69.78125 200.828125 68.734375 206.179688 63.3125 C 207.320312 64.15625 208.195312 65.160156 208.808594 66.320312 C 203.199219 71.890625 196.558594 73.605469 188.882812 71.460938 C 181.125 68.285156 177.117188 62.476562 176.847656 54.035156 C 177.4375 44.230469 182.449219 38.128906 191.890625 35.730469 Z M 191.890625 35.730469 "/>
</g>
<mask id="mask9">
  <g filter="url(#alpha)">
<rect x="0" y="0" width="466" height="170" style="fill:rgb(0%,0%,0%);fill-opacity:0.937255;stroke:none;"/>
  </g>
</mask>
<clipPath id="clip10">
  <rect x="0" y="0" width="466" height="170"/>
</clipPath>
<g id="surface32" clip-path="url(#clip10)">
<path style=" stroke:none;fill-rule:evenodd;fill:rgb(89.411765%,7.45098%,15.294118%);fill-opacity:1;" d="M 263.332031 35.730469 C 267.496094 35.398438 271.421875 36.191406 275.113281 38.113281 C 276.144531 38.6875 277.066406 39.398438 277.871094 40.242188 C 277.199219 41.417969 276.40625 42.503906 275.488281 43.503906 C 271.140625 39.6875 266.253906 38.726562 260.824219 40.621094 C 257.210938 43.28125 256.960938 46.207031 260.074219 49.394531 C 263.332031 50.984375 266.757812 52.070312 270.351562 52.65625 C 278.105469 54.757812 280.570312 59.5625 277.746094 67.074219 C 275 70.695312 271.324219 72.449219 266.714844 72.335938 C 261.082031 72.273438 256.273438 70.308594 252.300781 66.445312 C 253.175781 65.402344 254.054688 64.359375 254.933594 63.3125 C 259.960938 68.34375 265.769531 69.558594 272.355469 66.945312 C 274.3125 65.34375 275.019531 63.292969 274.484375 60.804688 C 274.183594 59.988281 273.722656 59.277344 273.109375 58.671875 C 272.007812 57.957031 270.839844 57.371094 269.597656 56.917969 C 265.824219 56.140625 262.148438 55.054688 258.570312 53.65625 C 254.484375 51.371094 252.9375 47.90625 253.929688 43.253906 C 254.546875 40.8125 255.925781 38.933594 258.066406 37.609375 C 259.773438 36.75 261.527344 36.125 263.332031 35.730469 Z M 263.332031 35.730469 "/>
</g>
<mask id="mask10">
  <g filter="url(#alpha)">
<rect x="0" y="0" width="466" height="170" style="fill:rgb(0%,0%,0%);fill-opacity:0.937255;stroke:none;"/>
  </g>
</mask>
<clipPath id="clip11">
  <rect x="0" y="0" width="466" height="170"/>
</clipPath>
<g id="surface35" clip-path="url(#clip11)">
<path style=" stroke:none;fill-rule:evenodd;fill:rgb(89.411765%,7.45098%,15.294118%);fill-opacity:1;" d="M 342.542969 35.730469 C 346.707031 35.398438 350.636719 36.191406 354.324219 38.113281 C 355.359375 38.6875 356.277344 39.398438 357.082031 40.242188 C 356.410156 41.417969 355.617188 42.503906 354.703125 43.503906 C 350.355469 39.6875 345.464844 38.726562 340.039062 40.621094 C 336.425781 43.28125 336.175781 46.207031 339.285156 49.394531 C 342.542969 50.984375 345.96875 52.070312 349.5625 52.65625 C 357.320312 54.757812 359.78125 59.5625 356.957031 67.074219 C 354.210938 70.695312 350.535156 72.449219 345.929688 72.335938 C 340.292969 72.273438 335.488281 70.308594 331.515625 66.445312 C 332.390625 65.402344 333.265625 64.359375 334.144531 63.3125 C 339.175781 68.34375 344.980469 69.558594 351.566406 66.945312 C 353.523438 65.34375 354.234375 63.292969 353.699219 60.804688 C 353.394531 59.988281 352.9375 59.277344 352.320312 58.671875 C 351.21875 57.957031 350.050781 57.371094 348.8125 56.917969 C 345.039062 56.140625 341.359375 55.054688 337.78125 53.65625 C 333.695312 51.371094 332.148438 47.90625 333.144531 43.253906 C 333.757812 40.8125 335.136719 38.933594 337.28125 37.609375 C 338.984375 36.75 340.738281 36.125 342.542969 35.730469 Z M 342.542969 35.730469 "/>
</g>
<mask id="mask11">
  <g filter="url(#alpha)">
<rect x="0" y="0" width="466" height="170" style="fill:rgb(0%,0%,0%);fill-opacity:0.941176;stroke:none;"/>
  </g>
</mask>
<clipPath id="clip12">
  <rect x="0" y="0" width="466" height="170"/>
</clipPath>
<g id="surface38" clip-path="url(#clip12)">
<path style=" stroke:none;fill-rule:evenodd;fill:rgb(89.411765%,7.45098%,15.294118%);fill-opacity:1;" d="M 215.703125 36.230469 C 220.632812 36.191406 225.5625 36.230469 230.492188 36.355469 C 240.71875 37.804688 246.148438 43.65625 246.785156 53.910156 C 246.6875 61.550781 243.175781 66.984375 236.257812 70.207031 C 234.796875 70.777344 233.292969 71.195312 231.746094 71.460938 C 226.40625 71.804688 221.058594 71.929688 215.703125 71.835938 C 215.703125 59.96875 215.703125 48.101562 215.703125 36.230469 Z M 219.964844 40.242188 C 223.476562 40.203125 226.984375 40.242188 230.492188 40.367188 C 239.558594 42.40625 243.441406 48.046875 242.148438 57.292969 C 241.027344 62.085938 238.144531 65.304688 233.5 66.945312 C 232.347656 67.277344 231.179688 67.527344 229.992188 67.699219 C 226.652344 67.824219 223.308594 67.867188 219.964844 67.824219 C 219.964844 58.628906 219.964844 49.4375 219.964844 40.242188 Z M 219.964844 40.242188 "/>
</g>
<mask id="mask12">
  <g filter="url(#alpha)">
<rect x="0" y="0" width="466" height="170" style="fill:rgb(0%,0%,0%);fill-opacity:0.952941;stroke:none;"/>
  </g>
</mask>
<clipPath id="clip13">
  <rect x="0" y="0" width="466" height="170"/>
</clipPath>
<g id="surface41" clip-path="url(#clip13)">
<path style=" stroke:none;fill-rule:evenodd;fill:rgb(89.411765%,7.45098%,15.294118%);fill-opacity:1;" d="M 286.894531 36.230469 C 292.074219 36.191406 297.257812 36.230469 302.4375 36.355469 C 311.617188 37.964844 315 43.269531 312.589844 52.277344 C 310.324219 56.488281 306.769531 58.785156 301.933594 59.175781 C 298.34375 59.300781 294.75 59.339844 291.15625 59.300781 C 291.15625 63.476562 291.15625 67.65625 291.15625 71.835938 C 289.734375 71.835938 288.316406 71.835938 286.894531 71.835938 C 286.894531 59.96875 286.894531 48.101562 286.894531 36.230469 Z M 291.15625 40.242188 C 294.832031 40.203125 298.511719 40.242188 302.1875 40.367188 C 307.664062 41.339844 309.878906 44.558594 308.828125 50.023438 C 307.117188 53.617188 304.234375 55.414062 300.179688 55.414062 C 297.171875 55.539062 294.164062 55.582031 291.15625 55.539062 C 291.15625 50.441406 291.15625 45.339844 291.15625 40.242188 Z M 291.15625 40.242188 "/>
</g>
<mask id="mask13">
  <g filter="url(#alpha)">
<rect x="0" y="0" width="466" height="170" style="fill:rgb(0%,0%,0%);fill-opacity:0.933333;stroke:none;"/>
  </g>
</mask>
<clipPath id="clip14">
  <rect x="0" y="0" width="466" height="170"/>
</clipPath>
<g id="surface44" clip-path="url(#clip14)">
<path style=" stroke:none;fill-rule:evenodd;fill:rgb(89.411765%,7.45098%,15.294118%);fill-opacity:1;" d="M 320.734375 36.230469 C 322.320312 36.230469 323.910156 36.230469 325.5 36.230469 C 325.539062 38.40625 325.5 40.578125 325.371094 42.75 C 324.699219 45.957031 322.78125 47.628906 319.605469 47.765625 C 319.445312 47.199219 319.234375 46.65625 318.980469 46.136719 C 320.238281 45.613281 321.28125 44.820312 322.113281 43.753906 C 322.386719 43.109375 322.511719 42.441406 322.488281 41.746094 C 321.90625 41.746094 321.320312 41.746094 320.734375 41.746094 C 320.734375 39.910156 320.734375 38.070312 320.734375 36.230469 Z M 320.734375 36.230469 "/>
</g>
<mask id="mask14">
  <g filter="url(#alpha)">
<rect x="0" y="0" width="466" height="170" style="fill:rgb(0%,0%,0%);fill-opacity:0.972549;stroke:none;"/>
  </g>
</mask>
<clipPath id="clip15">
  <rect x="0" y="0" width="466" height="170"/>
</clipPath>
<g id="surface47" clip-path="url(#clip15)">
<path style=" stroke:none;fill-rule:evenodd;fill:rgb(89.411765%,7.45098%,15.294118%);fill-opacity:1;" d="M 226.734375 86.378906 C 229.246094 86.296875 231.753906 86.378906 234.253906 86.628906 C 239.164062 98.421875 244.179688 110.164062 249.292969 121.859375 C 246.449219 122.066406 243.609375 122.027344 240.769531 121.734375 C 239.699219 119.339844 238.695312 116.914062 237.761719 114.460938 C 232.835938 114.167969 227.90625 114.128906 222.972656 114.335938 C 221.9375 116.863281 220.847656 119.371094 219.714844 121.859375 C 217.042969 121.984375 214.367188 122.027344 211.691406 121.984375 C 216.566406 110.058594 221.582031 98.191406 226.734375 86.378906 Z M 230.242188 96.410156 C 231.789062 99.871094 233.292969 103.382812 234.753906 106.941406 C 231.75 107.230469 228.742188 107.273438 225.730469 107.066406 C 227.257812 103.519531 228.761719 99.96875 230.242188 96.410156 Z M 230.242188 96.410156 "/>
</g>
<mask id="mask15">
  <g filter="url(#alpha)">
<rect x="0" y="0" width="466" height="170" style="fill:rgb(0%,0%,0%);fill-opacity:0.972549;stroke:none;"/>
  </g>
</mask>
<clipPath id="clip16">
  <rect x="0" y="0" width="466" height="170"/>
</clipPath>
<g id="surface50" clip-path="url(#clip16)">
<path style=" stroke:none;fill-rule:evenodd;fill:rgb(89.411765%,7.45098%,15.294118%);fill-opacity:1;" d="M 289.902344 86.378906 C 292.472656 86.300781 295.019531 86.382812 297.546875 86.628906 C 302.644531 98.371094 307.613281 110.15625 312.464844 121.984375 C 309.703125 122.027344 306.945312 121.984375 304.191406 121.859375 C 303.152344 119.332031 302.066406 116.824219 300.933594 114.335938 C 296.003906 114.210938 291.074219 114.167969 286.140625 114.210938 C 285.265625 116.804688 284.261719 119.355469 283.132812 121.859375 C 280.378906 122.027344 277.621094 122.027344 274.863281 121.859375 C 279.949219 110.0625 284.960938 98.234375 289.902344 86.378906 Z M 293.410156 96.410156 C 293.824219 96.722656 294.113281 97.140625 294.289062 97.664062 C 295.539062 100.820312 296.832031 103.957031 298.175781 107.066406 C 295.167969 107.230469 292.160156 107.230469 289.152344 107.066406 C 290.675781 103.550781 292.097656 100 293.410156 96.410156 Z M 293.410156 96.410156 "/>
</g>
<mask id="mask16">
  <g filter="url(#alpha)">
<rect x="0" y="0" width="466" height="170" style="fill:rgb(0%,0%,0%);fill-opacity:0.972549;stroke:none;"/>
  </g>
</mask>
<clipPath id="clip17">
  <rect x="0" y="0" width="466" height="170"/>
</clipPath>
<g id="surface53" clip-path="url(#clip17)">
<path style=" stroke:none;fill-rule:evenodd;fill:rgb(89.411765%,7.45098%,15.294118%);fill-opacity:1;" d="M 366.105469 86.378906 C 368.675781 86.300781 371.226562 86.382812 373.753906 86.628906 C 378.699219 98.339844 383.671875 110.042969 388.667969 121.734375 C 385.832031 121.984375 382.988281 122.066406 380.144531 121.984375 C 379.265625 119.390625 378.265625 116.839844 377.136719 114.335938 C 372.203125 114.128906 367.273438 114.167969 362.347656 114.460938 C 361.34375 116.886719 360.339844 119.308594 359.339844 121.734375 C 356.582031 122.066406 353.824219 122.066406 351.066406 121.734375 C 356.152344 109.972656 361.167969 98.1875 366.105469 86.378906 Z M 369.617188 96.410156 C 370.058594 97.007812 370.433594 97.675781 370.746094 98.414062 C 371.898438 101.339844 373.027344 104.265625 374.128906 107.191406 C 371.199219 107.273438 368.273438 107.191406 365.355469 106.941406 C 366.875 103.464844 368.296875 99.953125 369.617188 96.410156 Z M 369.617188 96.410156 "/>
</g>
<mask id="mask17">
  <g filter="url(#alpha)">
<rect x="0" y="0" width="466" height="170" style="fill:rgb(0%,0%,0%);fill-opacity:0.976471;stroke:none;"/>
  </g>
</mask>
<clipPath id="clip18">
  <rect x="0" y="0" width="466" height="170"/>
</clipPath>
<g id="surface56" clip-path="url(#clip18)">
<path style=" stroke:none;fill-rule:evenodd;fill:rgb(89.411765%,7.45098%,15.294118%);fill-opacity:1;" d="M 177.851562 86.628906 C 183.449219 86.589844 189.050781 86.628906 194.648438 86.753906 C 204.59375 88.425781 209.855469 94.277344 210.441406 104.308594 C 209.886719 114.222656 204.707031 120.074219 194.898438 121.859375 C 189.214844 121.984375 183.535156 122.027344 177.851562 121.984375 C 177.851562 110.199219 177.851562 98.414062 177.851562 86.628906 Z M 185.875 93.902344 C 188.464844 93.859375 191.054688 93.902344 193.644531 94.027344 C 199.125 95.246094 201.964844 98.671875 202.167969 104.308594 C 201.992188 109.832031 199.234375 113.257812 193.894531 114.585938 C 191.222656 114.710938 188.546875 114.753906 185.875 114.710938 C 185.875 107.773438 185.875 100.839844 185.875 93.902344 Z M 185.875 93.902344 "/>
</g>
<mask id="mask18">
  <g filter="url(#alpha)">
<rect x="0" y="0" width="466" height="170" style="fill:rgb(0%,0%,0%);fill-opacity:0.976471;stroke:none;"/>
  </g>
</mask>
<clipPath id="clip19">
  <rect x="0" y="0" width="466" height="170"/>
</clipPath>
<g id="surface59" clip-path="url(#clip19)">
<path style=" stroke:none;fill-rule:evenodd;fill:rgb(89.411765%,7.45098%,15.294118%);fill-opacity:1;" d="M 247.289062 86.628906 C 257.148438 86.628906 267.007812 86.628906 276.867188 86.628906 C 276.867188 89.054688 276.867188 91.476562 276.867188 93.902344 C 273.277344 93.902344 269.679688 93.902344 266.089844 93.902344 C 266.089844 103.261719 266.089844 112.621094 266.089844 121.984375 C 263.414062 121.984375 260.742188 121.984375 258.066406 121.984375 C 258.066406 112.621094 258.066406 103.261719 258.066406 93.902344 C 254.476562 93.902344 250.878906 93.902344 247.289062 93.902344 C 247.289062 91.476562 247.289062 89.054688 247.289062 86.628906 Z M 247.289062 86.628906 "/>
</g>
<mask id="mask19">
  <g filter="url(#alpha)">
<rect x="0" y="0" width="466" height="170" style="fill:rgb(0%,0%,0%);fill-opacity:0.976471;stroke:none;"/>
  </g>
</mask>
<clipPath id="clip20">
  <rect x="0" y="0" width="466" height="170"/>
</clipPath>
<g id="surface62" clip-path="url(#clip20)">
<path style=" stroke:none;fill-rule:evenodd;fill:rgb(89.411765%,7.45098%,15.294118%);fill-opacity:1;" d="M 317.726562 86.628906 C 324.160156 86.589844 330.597656 86.628906 337.027344 86.753906 C 344.867188 88.324219 347.5 92.878906 344.925781 100.421875 C 344.046875 101.632812 343.003906 102.675781 341.792969 103.554688 C 347.214844 105.921875 349.097656 109.976562 347.433594 115.714844 C 346.265625 118.386719 344.300781 120.183594 341.542969 121.105469 C 340.386719 121.4375 339.21875 121.6875 338.03125 121.859375 C 331.261719 121.984375 324.496094 122.027344 317.726562 121.984375 C 317.726562 110.199219 317.726562 98.414062 317.726562 86.628906 Z M 325.5 93.652344 C 328.589844 93.609375 331.683594 93.652344 334.773438 93.777344 C 337.769531 94.546875 338.644531 96.34375 337.40625 99.167969 C 336.746094 99.851562 335.953125 100.3125 335.023438 100.546875 C 331.859375 100.890625 328.683594 101.015625 325.5 100.921875 C 325.5 98.496094 325.5 96.074219 325.5 93.652344 Z M 325.5 107.441406 C 329.351562 107.347656 333.195312 107.472656 337.027344 107.816406 C 339.664062 108.617188 340.539062 110.328125 339.660156 112.957031 C 339.09375 113.691406 338.382812 114.234375 337.53125 114.585938 C 333.535156 114.949219 329.523438 115.074219 325.5 114.964844 C 325.5 112.457031 325.5 109.949219 325.5 107.441406 Z M 325.5 107.441406 "/>
</g>
<mask id="mask20">
  <g filter="url(#alpha)">
<rect x="0" y="0" width="466" height="170" style="fill:rgb(0%,0%,0%);fill-opacity:0.976471;stroke:none;"/>
  </g>
</mask>
<clipPath id="clip21">
  <rect x="0" y="0" width="466" height="170"/>
</clipPath>
<g id="surface65" clip-path="url(#clip21)">
<path style=" stroke:none;fill-rule:evenodd;fill:rgb(89.411765%,7.45098%,15.294118%);fill-opacity:1;" d="M 393.933594 86.628906 C 396.441406 86.589844 398.949219 86.628906 401.453125 86.753906 C 406.757812 93.734375 412.0625 100.714844 417.371094 107.691406 C 417.496094 100.671875 417.539062 93.652344 417.496094 86.628906 C 420.167969 86.628906 422.839844 86.628906 425.515625 86.628906 C 425.515625 98.414062 425.515625 110.199219 425.515625 121.984375 C 423.175781 122.027344 420.835938 121.984375 418.496094 121.859375 C 412.941406 114.628906 407.386719 107.398438 401.828125 100.167969 C 401.703125 107.441406 401.660156 114.710938 401.703125 121.984375 C 399.113281 121.984375 396.519531 121.984375 393.933594 121.984375 C 393.933594 110.199219 393.933594 98.414062 393.933594 86.628906 Z M 393.933594 86.628906 "/>
</g>
<mask id="mask21">
  <g filter="url(#alpha)">
<rect x="0" y="0" width="466" height="170" style="fill:rgb(0%,0%,0%);fill-opacity:0.980392;stroke:none;"/>
  </g>
</mask>
<clipPath id="clip22">
  <rect x="0" y="0" width="466" height="170"/>
</clipPath>
<g id="surface68" clip-path="url(#clip22)">
<path style=" stroke:none;fill-rule:evenodd;fill:rgb(89.411765%,7.45098%,15.294118%);fill-opacity:1;" d="M 465.875 121.480469 C 465.875 121.648438 465.875 121.816406 465.875 121.984375 C 462.699219 122.027344 459.523438 121.984375 456.347656 121.859375 C 452.84375 116.976562 449.253906 112.167969 445.570312 107.441406 C 444.238281 108.648438 442.941406 109.902344 441.683594 111.203125 C 441.558594 114.792969 441.515625 118.390625 441.558594 121.984375 C 438.96875 121.984375 436.378906 121.984375 433.789062 121.984375 C 433.789062 110.199219 433.789062 98.414062 433.789062 86.628906 C 436.378906 86.628906 438.96875 86.628906 441.558594 86.628906 C 441.515625 91.644531 441.558594 96.660156 441.683594 101.675781 C 446.320312 96.699219 450.960938 91.726562 455.597656 86.753906 C 458.855469 86.589844 462.113281 86.589844 465.375 86.753906 C 460.519531 91.695312 455.753906 96.707031 451.085938 101.800781 C 455.992188 108.398438 460.917969 114.960938 465.875 121.480469 Z M 465.875 121.480469 "/>
</g>
</defs>
<g id="surface1">
<use xlink:href="#surface5" mask="url(#mask0)"/>
<use xlink:href="#surface8" mask="url(#mask1)"/>
<use xlink:href="#surface11" mask="url(#mask2)"/>
<use xlink:href="#surface14" mask="url(#mask3)"/>
<use xlink:href="#surface17" mask="url(#mask4)"/>
<use xlink:href="#surface20" mask="url(#mask5)"/>
<use xlink:href="#surface23" mask="url(#mask6)"/>
<use xlink:href="#surface26" mask="url(#mask7)"/>
<use xlink:href="#surface29" mask="url(#mask8)"/>
<use xlink:href="#surface32" mask="url(#mask9)"/>
<use xlink:href="#surface35" mask="url(#mask10)"/>
<use xlink:href="#surface38" mask="url(#mask11)"/>
<use xlink:href="#surface41" mask="url(#mask12)"/>
<use xlink:href="#surface44" mask="url(#mask13)"/>
<use xlink:href="#surface47" mask="url(#mask14)"/>
<use xlink:href="#surface50" mask="url(#mask15)"/>
<use xlink:href="#surface53" mask="url(#mask16)"/>
<use xlink:href="#surface56" mask="url(#mask17)"/>
<use xlink:href="#surface59" mask="url(#mask18)"/>
<use xlink:href="#surface62" mask="url(#mask19)"/>
<use xlink:href="#surface65" mask="url(#mask20)"/>
<use xlink:href="#surface68" mask="url(#mask21)"/>
</g>
</svg>
