<?xml version="1.0" encoding="UTF-8"?>
<!DOCTYPE svg PUBLIC "-//W3C//DTD SVG 1.1//EN" "http://www.w3.org/Graphics/SVG/1.1/DTD/svg11.dtd">
<svg xmlns="http://www.w3.org/2000/svg" version="1.1" width="1859px" height="678px" style="shape-rendering:geometricPrecision; text-rendering:geometricPrecision; image-rendering:optimizeQuality; fill-rule:evenodd; clip-rule:evenodd" xmlns:xlink="http://www.w3.org/1999/xlink">
<g><path style="opacity:0.996" fill="#e41327" d="M 191.5,-0.5 C 221.833,-0.5 252.167,-0.5 282.5,-0.5C 282.5,180.5 282.5,361.5 282.5,542.5C 252.167,542.5 221.833,542.5 191.5,542.5C 191.5,361.5 191.5,180.5 191.5,-0.5 Z"/></g>
<g><path style="opacity:0.947" fill="#512c61" d="M 349.5,-0.5 C 357.5,-0.5 365.5,-0.5 373.5,-0.5C 373.5,180.5 373.5,361.5 373.5,542.5C 365.5,542.5 357.5,542.5 349.5,542.5C 349.5,361.5 349.5,180.5 349.5,-0.5 Z"/></g>
<g><path style="opacity:0.988" fill="#024380" d="M 575.5,-0.5 C 590.833,-0.5 606.167,-0.5 621.5,-0.5C 621.5,180.5 621.5,361.5 621.5,542.5C 606.167,542.5 590.833,542.5 575.5,542.5C 575.5,361.5 575.5,180.5 575.5,-0.5 Z"/></g>
<g><path style="opacity:0.983" fill="#024380" d="M -0.5,44.5 C 14.8333,44.5 30.1667,44.5 45.5,44.5C 45.5,225.5 45.5,406.5 45.5,587.5C 30.1667,587.5 14.8333,587.5 -0.5,587.5C -0.5,406.5 -0.5,225.5 -0.5,44.5 Z"/></g>
<g><path style="opacity:0.997" fill="#512c61" d="M 89.5,44.5 C 119.833,44.5 150.167,44.5 180.5,44.5C 180.5,225.5 180.5,406.5 180.5,587.5C 150.167,587.5 119.833,587.5 89.5,587.5C 89.5,406.5 89.5,225.5 89.5,44.5 Z"/></g>
<g><path style="opacity:0.995" fill="#a5103e" d="M 383.5,44.5 C 444.167,44.5 504.833,44.5 565.5,44.5C 565.5,225.5 565.5,406.5 565.5,587.5C 504.833,587.5 444.167,587.5 383.5,587.5C 383.5,406.5 383.5,225.5 383.5,44.5 Z"/></g>
<g><path style="opacity:0.989" fill="#024380" d="M 293.5,89.5 C 308.833,89.5 324.167,89.5 339.5,89.5C 339.5,270.5 339.5,451.5 339.5,632.5C 324.167,632.5 308.833,632.5 293.5,632.5C 293.5,451.5 293.5,270.5 293.5,89.5 Z"/></g>
<g><path style="opacity:0.947" fill="#a5103e" d="M 79.5,677.5 C 71.5,677.5 63.5,677.5 55.5,677.5C 55.5,496.5 55.5,315.5 55.5,134.5C 63.5,134.5 71.5,134.5 79.5,134.5C 79.5,315.5 79.5,496.5 79.5,677.5 Z"/></g>
<g><path style="opacity:0.94" fill="#e41327" d="M 765.5,142.5 C 787.173,139.669 806.84,144.502 824.5,157C 827.659,159.232 830.326,161.899 832.5,165C 829.004,169.329 825.337,173.496 821.5,177.5C 800.721,156.936 777.054,152.77 750.5,165C 732.732,177.03 723.732,193.863 723.5,215.5C 723.641,236.621 732.308,253.121 749.5,265C 776.829,278.301 801.162,274.134 822.5,252.5C 827.054,255.867 830.554,259.867 833,264.5C 810.622,286.72 784.122,293.554 753.5,285C 722.564,272.334 706.564,249.167 705.5,215.5C 707.846,176.396 727.846,152.062 765.5,142.5 Z"/></g>
<g><path style="opacity:0.939" fill="#e41327" d="M 1050.5,142.5 C 1067.11,141.18 1082.78,144.347 1097.5,152C 1101.62,154.29 1105.29,157.124 1108.5,160.5C 1105.82,165.188 1102.66,169.521 1099,173.5C 1081.66,158.287 1062.16,154.453 1040.5,162C 1026.09,172.614 1025.09,184.28 1037.5,197C 1050.5,203.334 1064.17,207.667 1078.5,210C 1109.44,218.382 1119.27,237.549 1108,267.5C 1097.05,281.946 1082.38,288.946 1064,288.5C 1041.52,288.242 1022.35,280.408 1006.5,265C 1009.99,260.845 1013.49,256.678 1017,252.5C 1037.06,272.578 1060.22,277.411 1086.5,267C 1094.3,260.6 1097.13,252.433 1095,242.5C 1093.79,239.241 1091.96,236.408 1089.5,234C 1085.11,231.139 1080.45,228.806 1075.5,227C 1060.45,223.905 1045.78,219.572 1031.5,214C 1015.2,204.887 1009.03,191.054 1013,172.5C 1015.45,162.773 1020.95,155.273 1029.5,150C 1036.3,146.569 1043.3,144.069 1050.5,142.5 Z"/></g>
<g><path style="opacity:0.939" fill="#e41327" d="M 1366.5,142.5 C 1383.11,141.18 1398.78,144.347 1413.5,152C 1417.62,154.29 1421.29,157.124 1424.5,160.5C 1421.82,165.188 1418.66,169.521 1415,173.5C 1397.66,158.287 1378.16,154.453 1356.5,162C 1342.09,172.614 1341.09,184.28 1353.5,197C 1366.5,203.334 1380.17,207.667 1394.5,210C 1425.44,218.382 1435.27,237.549 1424,267.5C 1413.05,281.946 1398.38,288.946 1380,288.5C 1357.52,288.242 1338.35,280.408 1322.5,265C 1325.99,260.845 1329.49,256.678 1333,252.5C 1353.06,272.578 1376.22,277.411 1402.5,267C 1410.3,260.6 1413.13,252.433 1411,242.5C 1409.79,239.241 1407.96,236.408 1405.5,234C 1401.11,231.139 1396.45,228.806 1391.5,227C 1376.45,223.905 1361.78,219.572 1347.5,214C 1331.2,204.887 1325.03,191.054 1329,172.5C 1331.45,162.773 1336.95,155.273 1345.5,150C 1352.3,146.569 1359.3,144.069 1366.5,142.5 Z"/></g>
<g><path style="opacity:0.942" fill="#e41327" d="M 860.5,144.5 C 880.169,144.333 899.836,144.5 919.5,145C 960.285,150.779 981.952,174.113 984.5,215C 984.096,245.481 970.096,267.147 942.5,280C 936.668,282.277 930.668,283.944 924.5,285C 903.195,286.376 881.861,286.876 860.5,286.5C 860.5,239.167 860.5,191.833 860.5,144.5 Z M 877.5,160.5 C 891.504,160.333 905.504,160.5 919.5,161C 955.659,169.126 971.159,191.626 966,228.5C 961.524,247.614 950.024,260.447 931.5,267C 926.9,268.317 922.234,269.317 917.5,270C 904.171,270.5 890.837,270.667 877.5,270.5C 877.5,233.833 877.5,197.167 877.5,160.5 Z"/></g>
<g><path style="opacity:0.951" fill="#e41327" d="M 1144.5,144.5 C 1165.17,144.333 1185.84,144.5 1206.5,145C 1243.12,151.408 1256.62,172.574 1247,208.5C 1237.96,225.289 1223.79,234.456 1204.5,236C 1190.17,236.5 1175.84,236.667 1161.5,236.5C 1161.5,253.167 1161.5,269.833 1161.5,286.5C 1155.83,286.5 1150.17,286.5 1144.5,286.5C 1144.5,239.167 1144.5,191.833 1144.5,144.5 Z M 1161.5,160.5 C 1176.17,160.333 1190.84,160.5 1205.5,161C 1227.35,164.874 1236.19,177.707 1232,199.5C 1225.18,213.844 1213.68,221.01 1197.5,221C 1185.5,221.5 1173.5,221.667 1161.5,221.5C 1161.5,201.167 1161.5,180.833 1161.5,160.5 Z"/></g>
<g><path style="opacity:0.933" fill="#e41327" d="M 1279.5,144.5 C 1285.83,144.5 1292.17,144.5 1298.5,144.5C 1298.67,153.173 1298.5,161.84 1298,170.5C 1295.32,183.286 1287.66,189.953 1275,190.5C 1274.36,188.238 1273.52,186.071 1272.5,184C 1277.51,181.914 1281.68,178.747 1285,174.5C 1286.08,171.937 1286.58,169.271 1286.5,166.5C 1284.17,166.5 1281.83,166.5 1279.5,166.5C 1279.5,159.167 1279.5,151.833 1279.5,144.5 Z"/></g>
<g><path style="opacity:0.973" fill="#e41327" d="M 904.5,344.5 C 914.522,344.168 924.522,344.501 934.5,345.5C 954.095,392.522 974.095,439.356 994.5,486C 983.152,486.832 971.819,486.666 960.5,485.5C 956.224,475.948 952.224,466.281 948.5,456.5C 928.842,455.334 909.175,455.167 889.5,456C 885.361,466.082 881.028,476.082 876.5,486C 865.839,486.5 855.172,486.667 844.5,486.5C 863.945,438.942 883.945,391.609 904.5,344.5 Z M 918.5,384.5 C 924.67,398.317 930.67,412.317 936.5,426.5C 924.514,427.666 912.514,427.833 900.5,427C 906.6,412.862 912.6,398.695 918.5,384.5 Z"/></g>
<g><path style="opacity:0.973" fill="#e41327" d="M 1156.5,344.5 C 1166.75,344.181 1176.92,344.514 1187,345.5C 1207.33,392.332 1227.16,439.332 1246.5,486.5C 1235.49,486.667 1224.49,486.5 1213.5,486C 1209.36,475.918 1205.03,465.918 1200.5,456C 1180.84,455.5 1161.17,455.333 1141.5,455.5C 1138,465.846 1134,476.012 1129.5,486C 1118.5,486.667 1107.5,486.667 1096.5,486C 1116.79,438.949 1136.79,391.782 1156.5,344.5 Z M 1170.5,384.5 C 1172.14,385.749 1173.3,387.416 1174,389.5C 1178.98,402.098 1184.14,414.598 1189.5,427C 1177.5,427.667 1165.5,427.667 1153.5,427C 1159.59,412.986 1165.26,398.819 1170.5,384.5 Z"/></g>
<g><path style="opacity:0.973" fill="#e41327" d="M 1460.5,344.5 C 1470.75,344.181 1480.92,344.514 1491,345.5C 1510.74,392.208 1530.57,438.874 1550.5,485.5C 1539.19,486.499 1527.85,486.832 1516.5,486.5C 1513,476.154 1509,465.988 1504.5,456C 1484.82,455.167 1465.16,455.334 1445.5,456.5C 1441.5,466.167 1437.5,475.833 1433.5,485.5C 1422.5,486.833 1411.5,486.833 1400.5,485.5C 1420.79,438.594 1440.79,391.594 1460.5,344.5 Z M 1474.5,384.5 C 1476.26,386.885 1477.76,389.552 1479,392.5C 1483.61,404.163 1488.11,415.83 1492.5,427.5C 1480.81,427.832 1469.15,427.499 1457.5,426.5C 1463.56,412.636 1469.23,398.636 1474.5,384.5 Z"/></g>
<g><path style="opacity:0.975" fill="#e41327" d="M 709.5,345.5 C 731.836,345.333 754.169,345.5 776.5,346C 816.174,352.668 837.174,376.002 839.5,416C 837.295,455.546 816.628,478.879 777.5,486C 754.836,486.5 732.169,486.667 709.5,486.5C 709.5,439.5 709.5,392.5 709.5,345.5 Z M 741.5,374.5 C 751.839,374.334 762.172,374.5 772.5,375C 794.363,379.868 805.696,393.534 806.5,416C 805.794,438.032 794.794,451.698 773.5,457C 762.839,457.5 752.172,457.667 741.5,457.5C 741.5,429.833 741.5,402.167 741.5,374.5 Z"/></g>
<g><path style="opacity:0.976" fill="#e41327" d="M 986.5,345.5 C 1025.83,345.5 1065.17,345.5 1104.5,345.5C 1104.5,355.167 1104.5,364.833 1104.5,374.5C 1090.17,374.5 1075.83,374.5 1061.5,374.5C 1061.5,411.833 1061.5,449.167 1061.5,486.5C 1050.83,486.5 1040.17,486.5 1029.5,486.5C 1029.5,449.167 1029.5,411.833 1029.5,374.5C 1015.17,374.5 1000.83,374.5 986.5,374.5C 986.5,364.833 986.5,355.167 986.5,345.5 Z"/></g>
<g><path style="opacity:0.976" fill="#e41327" d="M 1267.5,345.5 C 1293.17,345.333 1318.84,345.5 1344.5,346C 1375.77,352.255 1386.27,370.421 1376,400.5C 1372.5,405.333 1368.33,409.5 1363.5,413C 1385.14,422.445 1392.64,438.611 1386,461.5C 1381.35,472.153 1373.51,479.32 1362.5,483C 1357.9,484.317 1353.23,485.317 1348.5,486C 1321.5,486.5 1294.5,486.667 1267.5,486.5C 1267.5,439.5 1267.5,392.5 1267.5,345.5 Z M 1298.5,373.5 C 1310.84,373.333 1323.17,373.5 1335.5,374C 1347.45,377.076 1350.95,384.243 1346,395.5C 1343.37,398.231 1340.21,400.064 1336.5,401C 1323.88,402.374 1311.21,402.874 1298.5,402.5C 1298.5,392.833 1298.5,383.167 1298.5,373.5 Z M 1298.5,428.5 C 1313.87,428.121 1329.21,428.621 1344.5,430C 1355.01,433.188 1358.51,440.022 1355,450.5C 1352.74,453.433 1349.9,455.6 1346.5,457C 1330.56,458.438 1314.56,458.938 1298.5,458.5C 1298.5,448.5 1298.5,438.5 1298.5,428.5 Z"/></g>
<g><path style="opacity:0.977" fill="#e41327" d="M 1571.5,345.5 C 1581.51,345.334 1591.51,345.5 1601.5,346C 1622.67,373.833 1643.83,401.667 1665,429.5C 1665.5,401.502 1665.67,373.502 1665.5,345.5C 1676.17,345.5 1686.83,345.5 1697.5,345.5C 1697.5,392.5 1697.5,439.5 1697.5,486.5C 1688.16,486.666 1678.83,486.5 1669.5,486C 1647.33,457.167 1625.17,428.333 1603,399.5C 1602.5,428.498 1602.33,457.498 1602.5,486.5C 1592.17,486.5 1581.83,486.5 1571.5,486.5C 1571.5,439.5 1571.5,392.5 1571.5,345.5 Z"/></g>
<g><path style="opacity:0.98" fill="#e41327" d="M 1858.5,484.5 C 1858.5,485.167 1858.5,485.833 1858.5,486.5C 1845.83,486.667 1833.16,486.5 1820.5,486C 1806.52,466.527 1792.19,447.36 1777.5,428.5C 1772.18,433.318 1767.01,438.318 1762,443.5C 1761.5,457.829 1761.33,472.163 1761.5,486.5C 1751.17,486.5 1740.83,486.5 1730.5,486.5C 1730.5,439.5 1730.5,392.5 1730.5,345.5C 1740.83,345.5 1751.17,345.5 1761.5,345.5C 1761.33,365.503 1761.5,385.503 1762,405.5C 1780.5,385.667 1799,365.833 1817.5,346C 1830.5,345.333 1843.5,345.333 1856.5,346C 1837.13,365.697 1818.13,385.697 1799.5,406C 1819.07,432.324 1838.73,458.491 1858.5,484.5 Z"/></g>
</svg>
