<svg xmlns="http://www.w3.org/2000/svg" viewBox="0 0 262.4 500"><path d="M142.1 258.7h-.1l-22-99.3c28-13.4 47.4-42 47.4-75.1 0-46-37.3-83.2-83.2-83.2S1 38.3 1 84.2s37.3 83.2 83.2 83.2c1 0 1.9 0 2.9-.1l21.3 96.1C58.4 278.1 22 324.2 22 378.8 22 445.2 75.8 499 142.1 499s120.2-53.8 120.2-120.2-53.8-120.1-120.2-120.1zM84.2 142c-31.9 0-57.8-25.9-57.8-57.8s25.9-57.8 57.8-57.8S142 52.3 142 84.2 116.1 142 84.2 142zm57.9 323.1c-47.7 0-86.3-38.6-86.3-86.3s38.6-86.3 86.3-86.3 86.3 38.6 86.3 86.3-38.6 86.3-86.3 86.3z" fill="#e6142d"/></svg>