<?xml version="1.0" encoding="UTF-8"?>
<svg xmlns="http://www.w3.org/2000/svg" xmlns:xlink="http://www.w3.org/1999/xlink" width="120px" height="120px" viewBox="0 0 750 750" version="1.1">
<g id="surface1">
<path style=" stroke:none;fill-rule:nonzero;fill:rgb(90.196078%,7.843137%,17.647059%);fill-opacity:1;" d="M 528 190.5 C 536.46875 189.832031 541.28125 190.4375 548.25 195.75 C 550.449219 196.484375 551.28125 196.515625 553.492188 196.257812 C 563.710938 195.394531 563.710938 195.394531 567.59375 198.265625 C 569.710938 200.128906 571.59375 202.191406 573.445312 204.320312 C 575 206.058594 576.730469 207.574219 578.484375 209.109375 C 579.074219 209.644531 579.664062 210.179688 580.273438 210.730469 C 581.425781 211.746094 582.601562 212.734375 583.796875 213.699219 C 584.625 214.375 584.625 214.375 585.46875 215.0625 C 585.957031 215.445312 586.445312 215.828125 586.953125 216.222656 C 588.359375 217.9375 588.199219 219.09375 588 221.25 C 586.828125 221.503906 585.65625 221.753906 584.484375 222 C 583.832031 222.140625 583.179688 222.277344 582.507812 222.421875 C 580.542969 222.742188 578.734375 222.773438 576.75 222.75 C 577.996094 225.15625 579.246094 227.5625 580.5 229.96875 C 580.871094 230.6875 581.246094 231.402344 581.628906 232.140625 C 583.308594 235.359375 585 238.554688 586.859375 241.671875 C 587.269531 242.363281 587.269531 242.363281 587.6875 243.070312 C 588.417969 244.277344 589.160156 245.472656 589.90625 246.671875 C 591.253906 249.542969 591.496094 251.847656 591.75 255 C 589.25 254.5 586.75 254 584.25 253.5 C 583.753906 254.488281 583.261719 255.480469 582.75 256.5 C 583.335938 256.804688 583.921875 257.109375 584.523438 257.421875 C 587.664062 259.425781 590.398438 261.210938 591.480469 264.878906 C 592.183594 269.574219 592.003906 274.3125 591.890625 279.046875 C 591.886719 280.496094 591.882812 281.949219 591.886719 283.398438 C 591.882812 286.933594 591.832031 290.464844 591.75 294 C 590.03125 294.175781 590.03125 294.175781 588 294 C 586.679688 292.828125 586.679688 292.828125 585.5 291.210938 C 584.859375 290.347656 584.859375 290.347656 584.203125 289.46875 C 583.769531 288.859375 583.335938 288.25 582.890625 287.625 C 582.441406 287.015625 581.996094 286.410156 581.53125 285.78125 C 580.425781 284.277344 579.335938 282.769531 578.25 281.25 C 577.753906 281.746094 577.261719 282.238281 576.75 282.75 C 576.808594 287.234375 580.378906 290.996094 582.855469 294.503906 C 584.433594 296.832031 585.625 298.785156 586.351562 301.515625 C 585.371094 305.15625 582.84375 307.324219 580.21875 309.9375 C 579.671875 310.5 579.121094 311.066406 578.558594 311.644531 C 576.96875 313.277344 575.363281 314.890625 573.75 316.5 C 573.347656 316.902344 572.945312 317.308594 572.53125 317.722656 C 570.972656 319.285156 569.40625 320.839844 567.835938 322.390625 C 565.851562 324.402344 564 326.503906 562.179688 328.65625 C 560.847656 330.171875 559.429688 331.578125 558 333 C 559.714844 340.394531 562.441406 347.421875 565.097656 354.511719 C 565.941406 356.773438 566.785156 359.039062 567.625 361.300781 C 568.515625 363.691406 569.402344 366.078125 570.292969 368.46875 C 573.199219 376.28125 576.082031 384.101562 578.957031 391.929688 C 579.796875 394.214844 580.636719 396.496094 581.476562 398.78125 C 584.332031 406.554688 587.167969 414.335938 589.964844 422.125 C 590.523438 423.675781 591.082031 425.226562 591.640625 426.773438 C 592.695312 429.703125 593.742188 432.636719 594.789062 435.570312 C 595.257812 436.878906 595.730469 438.191406 596.203125 439.5 C 596.414062 440.101562 596.625 440.703125 596.84375 441.320312 C 597.734375 444.335938 597.734375 444.335938 600 446.25 C 600 447.984375 600 449.714844 600 451.5 C 599.503906 451.5 599.011719 451.5 598.5 451.5 C 598.394531 451.914062 598.292969 452.332031 598.183594 452.757812 C 596.195312 460.363281 593.679688 467.800781 591.234375 475.265625 C 590.773438 476.671875 590.316406 478.082031 589.855469 479.488281 C 588.738281 482.910156 587.621094 486.332031 586.5 489.75 C 593.640625 495.09375 601.054688 500.007812 608.484375 504.9375 C 609.710938 505.75 610.933594 506.566406 612.160156 507.382812 C 614.894531 509.199219 617.628906 511.015625 620.363281 512.828125 C 621.261719 513.425781 622.15625 514.03125 623.046875 514.640625 C 624.871094 515.886719 626.386719 516.796875 628.5 517.5 C 628.125 523.160156 626.65625 527.960938 624.722656 533.277344 C 624.460938 534.023438 624.195312 534.765625 623.921875 535.535156 C 622.941406 538.292969 621.945312 541.042969 620.953125 543.796875 C 618.742188 549.96875 616.527344 556.140625 614.25 562.5 C 598.410156 562.5 582.570312 562.5 566.25 562.5 C 564.75 549 564.75 549 564.75 546.75 C 570.9375 546.75 577.125 546.75 583.5 546.75 C 583.996094 544.027344 584.488281 541.304688 585 538.5 C 585.402344 536.453125 585.804688 534.40625 586.21875 532.359375 C 586.511719 530.90625 586.511719 530.90625 586.8125 529.421875 C 587.027344 528.347656 587.027344 528.347656 587.25 527.25 C 586.53125 526.757812 585.8125 526.269531 585.074219 525.761719 C 579.179688 521.726562 573.316406 517.65625 567.492188 513.527344 C 563.246094 510.523438 558.984375 507.539062 554.71875 504.5625 C 549.519531 500.929688 544.351562 497.265625 539.25 493.5 C 539.761719 489.816406 541.238281 486.65625 542.726562 483.28125 C 543.273438 482.011719 543.820312 480.742188 544.367188 479.472656 C 545.230469 477.480469 546.097656 475.492188 546.972656 473.503906 C 547.8125 471.578125 548.644531 469.648438 549.476562 467.71875 C 549.738281 467.125 550.003906 466.535156 550.273438 465.925781 C 552.058594 461.808594 552.058594 461.808594 551.25 457.5 C 550.390625 456.027344 550.390625 456.027344 549.25 454.679688 C 548.625 453.894531 548.625 453.894531 547.984375 453.09375 C 547.53125 452.539062 547.078125 451.980469 546.609375 451.40625 C 545.644531 450.195312 544.683594 448.984375 543.71875 447.769531 C 542.980469 446.835938 542.980469 446.835938 542.222656 445.882812 C 539.898438 442.914062 537.675781 439.875 535.453125 436.828125 C 530.988281 430.726562 526.425781 424.710938 521.820312 418.71875 C 517.832031 413.527344 513.863281 408.320312 509.910156 403.101562 C 508.589844 401.367188 507.25 399.648438 505.90625 397.933594 C 505.144531 396.945312 504.382812 395.957031 503.625 394.96875 C 503.277344 394.535156 502.929688 394.105469 502.574219 393.660156 C 500.953125 391.523438 500.246094 389.972656 499.808594 387.3125 C 500.371094 384.039062 501.507812 382.972656 503.953125 380.765625 C 506.574219 378.519531 506.574219 378.519531 508.5 375.75 C 497.925781 381.632812 487.398438 387.5625 477 393.75 C 477.132812 394.550781 477.265625 395.351562 477.402344 396.179688 C 477.898438 399.183594 478.390625 402.1875 478.882812 405.195312 C 479.09375 406.488281 479.308594 407.785156 479.519531 409.078125 C 481.898438 423.464844 481.898438 423.464844 482.25 429 C 481.5 429.75 481.5 429.75 480.148438 429.820312 C 479.554688 429.808594 478.964844 429.796875 478.351562 429.785156 C 477.671875 429.773438 476.992188 429.761719 476.292969 429.75 C 475.542969 429.734375 474.792969 429.71875 474.015625 429.703125 C 472.386719 429.675781 470.753906 429.648438 469.125 429.625 C 467.820312 429.601562 467.820312 429.601562 466.488281 429.578125 C 460.929688 429.488281 455.371094 429.441406 449.8125 429.382812 C 444.921875 429.332031 440.035156 429.265625 435.144531 429.167969 C 430.421875 429.074219 425.699219 429.023438 420.976562 428.996094 C 419.179688 428.980469 417.378906 428.949219 415.582031 428.902344 C 405.847656 428.125 405.847656 428.125 397.1875 431.542969 C 395.46875 433.625 394.234375 435.605469 393 438 C 392.242188 438.957031 391.460938 439.898438 390.640625 440.804688 C 390.304688 441.203125 389.96875 441.597656 389.621094 442.007812 C 389.296875 442.386719 388.972656 442.765625 388.640625 443.15625 C 386.300781 445.902344 383.992188 448.667969 381.75 451.5 C 378.710938 451.117188 377.328125 450.433594 375.273438 448.175781 C 374.777344 447.640625 374.28125 447.105469 373.769531 446.554688 C 373.265625 445.988281 372.757812 445.425781 372.234375 444.84375 C 371.742188 444.308594 371.25 443.773438 370.742188 443.21875 C 370.242188 442.675781 369.742188 442.128906 369.226562 441.570312 C 368.71875 441.035156 368.210938 440.5 367.691406 439.949219 C 366 438 366 438 364.722656 435.875 C 362.507812 432.601562 360.527344 430.253906 356.648438 429.292969 C 350.867188 428.5625 345.039062 428.804688 339.226562 428.945312 C 337.339844 428.960938 335.449219 428.972656 333.558594 428.980469 C 329.109375 429.007812 324.664062 429.074219 320.214844 429.15625 C 315.144531 429.25 310.074219 429.292969 305.003906 429.335938 C 294.585938 429.421875 284.167969 429.566406 273.75 429.75 C 272.964844 426.273438 273.097656 423.136719 273.417969 419.609375 C 273.496094 418.691406 273.496094 418.691406 273.574219 417.753906 C 273.738281 415.796875 273.90625 413.84375 274.078125 411.890625 C 274.246094 409.945312 274.410156 408 274.574219 406.050781 C 274.675781 404.84375 274.78125 403.636719 274.886719 402.429688 C 275.199219 398.769531 275.296875 395.171875 275.25 391.5 C 274.460938 391.191406 273.675781 390.882812 272.863281 390.5625 C 267.28125 388.296875 262.5625 386.175781 258.21875 381.898438 C 256.058594 379.824219 253.753906 378 251.390625 376.171875 C 250.976562 375.84375 250.5625 375.515625 250.136719 375.179688 C 247.242188 372.859375 247.242188 372.859375 243.75 372 C 241.671875 373.765625 241.671875 373.765625 240 375.75 C 240.476562 375.917969 240.949219 376.085938 241.4375 376.257812 C 244.667969 377.644531 247.675781 379.371094 250.734375 381.09375 C 251.363281 381.445312 251.988281 381.796875 252.632812 382.15625 C 254.175781 383.019531 255.710938 383.882812 257.25 384.75 C 257.753906 387.976562 257.132812 389.738281 255.324219 392.332031 C 254.445312 393.5 253.554688 394.660156 252.65625 395.8125 C 251.949219 396.746094 251.949219 396.746094 251.222656 397.699219 C 249.746094 399.644531 248.25 401.574219 246.75 403.5 C 246.292969 404.089844 245.835938 404.679688 245.367188 405.285156 C 243.175781 408.117188 240.976562 410.941406 238.769531 413.761719 C 236.054688 417.238281 233.402344 420.769531 230.765625 424.304688 C 227.574219 428.578125 224.34375 432.824219 221.109375 437.0625 C 217.355469 441.980469 213.605469 446.894531 209.933594 451.871094 C 208.960938 453.144531 207.949219 454.390625 206.902344 455.605469 C 206.410156 456.183594 205.914062 456.761719 205.40625 457.359375 C 204.972656 457.84375 204.535156 458.328125 204.085938 458.828125 C 202.839844 461.320312 203.464844 463.050781 204 465.75 C 204.921875 468.234375 204.921875 468.234375 206.125 470.699219 C 206.441406 471.371094 206.441406 471.371094 206.761719 472.054688 C 207.429688 473.472656 208.105469 474.882812 208.78125 476.296875 C 209.230469 477.246094 209.675781 478.195312 210.125 479.144531 C 212.472656 484.15625 212.472656 484.15625 215.019531 489.070312 C 216.035156 491.332031 216.46875 492.566406 216 495 C 214.710938 496.246094 214.710938 496.246094 212.890625 497.347656 C 212.21875 497.761719 211.550781 498.175781 210.859375 498.605469 C 209.761719 499.257812 209.761719 499.257812 208.640625 499.921875 C 207.113281 500.859375 205.589844 501.792969 204.0625 502.730469 C 203.292969 503.199219 202.523438 503.664062 201.730469 504.144531 C 198.539062 506.085938 195.386719 508.089844 192.234375 510.09375 C 191.082031 510.824219 189.925781 511.550781 188.769531 512.28125 C 188.199219 512.640625 187.628906 513 187.039062 513.371094 C 185.144531 514.566406 183.25 515.761719 181.355469 516.953125 C 180.710938 517.359375 180.070312 517.765625 179.40625 518.183594 C 178.183594 518.953125 176.960938 519.722656 175.738281 520.496094 C 173.277344 522.046875 170.832031 523.605469 168.4375 525.257812 C 166.5 526.5 166.5 526.5 165 526.5 C 165.203125 527.082031 165.410156 527.664062 165.621094 528.265625 C 166.539062 530.894531 167.457031 533.527344 168.375 536.15625 C 168.859375 537.53125 168.859375 537.53125 169.351562 538.9375 C 169.65625 539.8125 169.960938 540.6875 170.273438 541.585938 C 170.554688 542.398438 170.839844 543.207031 171.128906 544.039062 C 171.75 546 171.75 546 171.75 547.5 C 172.722656 547.578125 173.695312 547.652344 174.699219 547.730469 C 180.550781 548.316406 186.316406 549.46875 192.09375 550.546875 C 193.25 550.761719 194.410156 550.972656 195.570312 551.1875 C 198.378906 551.703125 201.191406 552.226562 204 552.75 C 203.894531 554.234375 203.785156 555.71875 203.671875 557.203125 C 203.609375 558.03125 203.550781 558.855469 203.488281 559.707031 C 203.25 561.75 203.25 561.75 202.5 562.5 C 200.582031 562.570312 198.6875 562.59375 196.769531 562.585938 C 195.871094 562.585938 195.871094 562.585938 194.953125 562.585938 C 192.957031 562.585938 190.964844 562.578125 188.972656 562.574219 C 187.597656 562.570312 186.21875 562.570312 184.839844 562.570312 C 181.207031 562.566406 177.574219 562.558594 173.9375 562.550781 C 170.234375 562.542969 166.53125 562.539062 162.824219 562.535156 C 155.550781 562.527344 148.273438 562.515625 141 562.5 C 139.753906 559.230469 138.539062 556 137.585938 552.628906 C 137.390625 551.933594 137.191406 551.238281 136.988281 550.523438 C 136.785156 549.792969 136.582031 549.0625 136.371094 548.308594 C 136.15625 547.542969 135.941406 546.773438 135.71875 545.984375 C 135.269531 544.375 134.820312 542.761719 134.375 541.152344 C 133.6875 538.683594 132.988281 536.21875 132.289062 533.75 C 131.851562 532.183594 131.417969 530.613281 130.980469 529.042969 C 130.769531 528.304688 130.558594 527.570312 130.34375 526.808594 C 130.15625 526.125 129.96875 525.4375 129.773438 524.730469 C 129.523438 523.828125 129.523438 523.828125 129.265625 522.910156 C 128.96875 521.0625 129.074219 519.988281 129.75 518.25 C 131.164062 516.984375 132.53125 515.886719 134.0625 514.78125 C 134.957031 514.117188 135.851562 513.449219 136.746094 512.78125 C 137.203125 512.445312 137.664062 512.109375 138.136719 511.761719 C 140.238281 510.203125 142.304688 508.601562 144.375 507 C 145.1875 506.375 146 505.75 146.8125 505.125 C 147.214844 504.816406 147.617188 504.507812 148.03125 504.1875 C 151.6875 501.375 151.6875 501.375 152.910156 500.4375 C 153.714844 499.816406 154.519531 499.195312 155.324219 498.574219 C 157.457031 496.933594 159.589844 495.296875 161.726562 493.664062 C 162.171875 493.324219 162.617188 492.980469 163.078125 492.628906 C 163.933594 491.976562 164.789062 491.320312 165.648438 490.667969 C 167.269531 489.421875 168.800781 488.199219 170.25 486.75 C 170.097656 486.304688 169.945312 485.855469 169.789062 485.394531 C 168.207031 480.726562 166.636719 476.054688 165.082031 471.378906 C 164.5 469.636719 163.910156 467.894531 163.320312 466.152344 C 162.46875 463.648438 161.632812 461.136719 160.800781 458.625 C 160.535156 457.851562 160.269531 457.078125 159.996094 456.28125 C 158 450.175781 157.894531 445.941406 160.566406 439.953125 C 160.902344 439.191406 161.234375 438.429688 161.582031 437.644531 C 161.949219 436.816406 162.320312 435.992188 162.703125 435.140625 C 163.519531 433.277344 164.335938 431.410156 165.152344 429.542969 C 165.375 429.039062 165.59375 428.535156 165.824219 428.015625 C 168.933594 420.898438 171.902344 413.71875 174.890625 406.546875 C 175.722656 404.550781 176.554688 402.558594 177.386719 400.566406 C 177.929688 399.261719 178.472656 397.957031 179.011719 396.648438 C 180.410156 393.28125 181.859375 389.949219 183.398438 386.640625 C 186.996094 378.835938 189.25 372.835938 188.71875 364.125 C 188.695312 363.167969 188.671875 362.214844 188.648438 361.230469 C 188.527344 356.234375 188.222656 351.25 187.90625 346.261719 C 187.753906 343.765625 187.632812 341.265625 187.511719 338.769531 C 187.410156 336.980469 187.261719 335.199219 187.109375 333.410156 C 186.785156 328.332031 186.695312 324.285156 190.15625 320.246094 C 191.695312 318.660156 193.335938 317.203125 195 315.75 C 195.246094 315.253906 195.496094 314.761719 195.75 314.25 C 193.027344 314.003906 190.304688 313.753906 187.5 313.5 C 187.25 309.425781 187.816406 307.027344 189.796875 303.472656 C 190.269531 302.609375 190.746094 301.746094 191.234375 300.855469 C 191.738281 299.960938 192.242188 299.066406 192.75 298.171875 C 193.257812 297.257812 193.761719 296.339844 194.269531 295.425781 C 195.503906 293.195312 196.746094 290.96875 198 288.75 C 196.472656 289.882812 194.984375 291.015625 193.546875 292.265625 C 192 293.25 192 293.25 188.25 293.25 C 188.496094 261.324219 188.746094 229.394531 189 196.5 C 192.75 196.5 192.75 196.5 194 197.464844 C 194.359375 197.902344 194.714844 198.34375 195.085938 198.796875 C 195.480469 199.269531 195.871094 199.746094 196.277344 200.234375 C 196.675781 200.734375 197.074219 201.234375 197.484375 201.75 C 197.898438 202.25 198.308594 202.75 198.734375 203.265625 C 199.75 204.503906 200.75 205.75 201.75 207 C 202.246094 203.289062 202.738281 199.574219 203.25 195.75 C 204.734375 195.75 206.21875 195.75 207.75 195.75 C 209.273438 197.292969 210.386719 198.628906 211.59375 200.390625 C 212.21875 201.261719 212.847656 202.132812 213.476562 203 C 213.769531 203.425781 214.066406 203.847656 214.371094 204.28125 C 215.195312 205.421875 216.085938 206.515625 216.980469 207.601562 C 218.25 209.25 218.25 209.25 218.25 210.75 C 219.117188 210.6875 219.980469 210.625 220.871094 210.5625 C 224.117188 210.339844 227.363281 210.171875 230.613281 210.015625 C 232.015625 209.945312 233.414062 209.855469 234.808594 209.753906 C 247.667969 208.832031 247.667969 208.832031 252.261719 212.507812 C 256.394531 216.371094 256.394531 216.371094 256.695312 219.625 C 256.632812 220.160156 256.566406 220.695312 256.5 221.25 C 254.519531 221.746094 252.539062 222.238281 250.5 222.75 C 251.425781 222.707031 252.347656 222.664062 253.300781 222.617188 C 254.554688 222.582031 255.808594 222.546875 257.0625 222.515625 C 257.667969 222.484375 258.269531 222.453125 258.894531 222.421875 C 263.484375 222.328125 266.746094 223.402344 270.898438 225.28125 C 274.574219 226.90625 278.378906 228.179688 282.175781 229.492188 C 282.933594 229.753906 283.691406 230.015625 284.472656 230.289062 C 286.835938 231.105469 289.199219 231.921875 291.5625 232.734375 C 293.183594 233.296875 294.804688 233.855469 296.425781 234.417969 C 300.367188 235.78125 304.308594 237.140625 308.25 238.5 C 308.347656 241.6875 307.917969 243.246094 306.1875 245.953125 C 305.613281 246.867188 305.613281 246.867188 305.027344 247.800781 C 304.605469 248.445312 304.183594 249.085938 303.75 249.75 C 303.339844 250.519531 302.925781 251.292969 302.5 252.085938 C 300.75 254.25 300.75 254.25 298.339844 254.820312 C 296.910156 254.824219 296.910156 254.824219 295.453125 254.828125 C 294.925781 254.835938 294.398438 254.84375 293.855469 254.855469 C 292.117188 254.875 290.382812 254.863281 288.644531 254.851562 C 287.4375 254.863281 286.230469 254.871094 285.023438 254.882812 C 281.855469 254.910156 278.683594 254.910156 275.511719 254.90625 C 272.273438 254.90625 269.035156 254.929688 265.796875 254.953125 C 259.449219 254.992188 253.101562 255.003906 246.75 255 C 245.230469 287.460938 245.230469 287.460938 255.695312 317.460938 C 258.679688 322.640625 260.917969 328.230469 263.316406 333.695312 C 264.949219 337.398438 266.617188 341.085938 268.289062 344.769531 C 269.734375 347.960938 271.144531 351.164062 272.503906 354.390625 C 272.796875 355.074219 273.089844 355.757812 273.390625 356.460938 C 273.949219 357.765625 274.5 359.078125 275.039062 360.394531 C 275.292969 360.988281 275.550781 361.578125 275.816406 362.1875 C 276.03125 362.707031 276.25 363.226562 276.472656 363.765625 C 277.929688 365.871094 279.835938 366.929688 282 368.25 C 282.074219 367.390625 282.148438 366.527344 282.222656 365.640625 C 282.914062 357.539062 283.609375 349.4375 284.308594 341.339844 C 284.667969 337.171875 285.023438 333.007812 285.378906 328.84375 C 285.722656 324.824219 286.066406 320.808594 286.414062 316.792969 C 286.546875 315.257812 286.679688 313.722656 286.808594 312.1875 C 286.992188 310.042969 287.175781 307.898438 287.363281 305.753906 C 287.417969 305.113281 287.472656 304.476562 287.527344 303.816406 C 287.914062 299.421875 287.914062 299.421875 288.75 297.75 C 297.9375 297.628906 307.121094 297.535156 316.308594 297.476562 C 320.574219 297.449219 324.839844 297.414062 329.105469 297.355469 C 333.226562 297.296875 337.34375 297.265625 341.460938 297.25 C 343.03125 297.242188 344.601562 297.222656 346.171875 297.195312 C 348.375 297.15625 350.574219 297.152344 352.777344 297.152344 C 353.746094 297.125 353.746094 297.125 354.730469 297.097656 C 359.304688 297.152344 361.53125 298.53125 364.773438 301.71875 C 365.179688 302.140625 365.582031 302.566406 366 303 C 366.566406 303.515625 367.132812 304.03125 367.714844 304.558594 C 368.152344 304.972656 368.59375 305.382812 369.046875 305.808594 C 369.535156 306.265625 370.023438 306.722656 370.527344 307.195312 C 371.011719 307.652344 371.5 308.109375 372 308.578125 C 372.765625 309.292969 372.765625 309.292969 373.542969 310.023438 C 374.78125 311.183594 376.015625 312.339844 377.25 313.5 C 379.933594 312.421875 380.898438 311.238281 382.363281 308.78125 C 385.957031 303.640625 390.027344 298.921875 396.277344 297.285156 C 406.921875 295.40625 418.058594 296.09375 428.8125 296.378906 C 433.050781 296.476562 437.292969 296.484375 441.535156 296.503906 C 447.703125 296.546875 453.867188 296.617188 460.03125 296.757812 C 460.679688 296.769531 461.328125 296.78125 461.996094 296.796875 C 466.410156 296.910156 466.410156 296.910156 467.25 297.75 C 467.390625 299.253906 467.492188 300.765625 467.574219 302.273438 C 467.941406 307.871094 468.589844 313.410156 469.328125 318.96875 C 469.554688 320.675781 469.777344 322.378906 470 324.085938 C 470.472656 327.699219 470.945312 331.308594 471.421875 334.921875 C 471.976562 339.136719 472.527344 343.347656 473.078125 347.5625 C 473.296875 349.238281 473.519531 350.914062 473.738281 352.589844 C 473.875 353.617188 474.007812 354.644531 474.140625 355.671875 C 474.261719 356.5625 474.378906 357.457031 474.5 358.375 C 474.71875 360.445312 474.800781 362.425781 474.75 364.5 C 482.21875 361.277344 488.441406 357.160156 491.652344 349.445312 C 493.894531 343.699219 495.597656 337.757812 497.28125 331.828125 C 498.097656 328.988281 498.976562 326.164062 499.847656 323.335938 C 501.539062 317.824219 503.164062 312.292969 504.75 306.75 C 505.246094 306.75 505.738281 306.75 506.25 306.75 C 506.25 306.253906 506.25 305.761719 506.25 305.25 C 507.488281 305.003906 508.726562 304.753906 510 304.5 C 509.503906 304.003906 509.011719 303.511719 508.5 303 C 508.4375 300.308594 508.503906 297.660156 508.625 294.972656 C 508.636719 294.414062 508.652344 293.855469 508.667969 293.28125 C 508.6875 292.769531 508.710938 292.261719 508.730469 291.738281 C 508.613281 290.175781 508.613281 290.175781 507.46875 288.957031 C 505.691406 286.46875 505.234375 283.839844 504.554688 280.886719 C 504.40625 280.273438 504.261719 279.664062 504.109375 279.03125 C 503.644531 277.085938 503.1875 275.136719 502.734375 273.1875 C 502.421875 271.863281 502.105469 270.539062 501.789062 269.21875 C 501.019531 265.980469 500.257812 262.742188 499.5 259.5 C 498.769531 259.664062 498.039062 259.824219 497.289062 259.992188 C 494.570312 260.597656 491.851562 261.191406 489.132812 261.785156 C 487.957031 262.042969 486.78125 262.300781 485.605469 262.5625 C 483.917969 262.941406 482.222656 263.308594 480.53125 263.675781 C 480.007812 263.792969 479.484375 263.914062 478.949219 264.035156 C 476.066406 264.648438 473.84375 264.832031 471 264 C 470.140625 260.546875 469.285156 257.089844 468.4375 253.632812 C 468.148438 252.457031 467.855469 251.28125 467.5625 250.105469 C 467.140625 248.414062 466.726562 246.722656 466.3125 245.03125 C 466.179688 244.507812 466.050781 243.984375 465.914062 243.449219 C 465.257812 240.746094 464.847656 238.285156 465 235.5 C 465.878906 235.378906 466.753906 235.257812 467.660156 235.132812 C 470.9375 234.679688 474.210938 234.214844 477.488281 233.742188 C 478.902344 233.539062 480.316406 233.34375 481.730469 233.148438 C 483.773438 232.867188 485.8125 232.574219 487.851562 232.277344 C 488.476562 232.195312 489.101562 232.113281 489.746094 232.027344 C 494.011719 231.386719 497.226562 230.097656 501 228 C 500.503906 227.503906 500.011719 227.011719 499.5 226.5 C 498.890625 222.902344 498.753906 219.257812 500.199219 215.851562 C 501.664062 214.148438 502.5625 213.625 504.75 213 C 508.203125 212.96875 511.574219 213.523438 514.96875 214.085938 C 519.398438 214.761719 523.171875 214.105469 527.25 212.25 C 527.242188 211.683594 527.234375 211.121094 527.222656 210.539062 C 527.167969 203.828125 527.519531 197.191406 528 190.5 Z M 528 190.5 "/>
<path style=" stroke:none;fill-rule:nonzero;fill:rgb(90.196078%,7.843137%,17.647059%);fill-opacity:1;" d="M 375.984375 26.109375 C 377.015625 26.109375 377.015625 26.109375 378.066406 26.109375 C 450.625 26.238281 524.691406 48.351562 587.25 93.75 C 588.03125 94.328125 588.816406 94.90625 589.625 95.5 C 600.535156 103.605469 611.003906 112.285156 621 121.5 C 621.472656 121.933594 621.945312 122.367188 622.429688 122.816406 C 629.273438 129.125 635.824219 135.535156 642 142.5 C 643.28125 143.890625 644.5625 145.28125 645.84375 146.671875 C 649.109375 150.273438 652.238281 153.957031 655.265625 157.761719 C 655.964844 158.640625 656.667969 159.515625 657.375 160.390625 C 697.949219 210.621094 723.09375 272.507812 730.6875 336.46875 C 730.75 336.988281 730.8125 337.511719 730.875 338.050781 C 732.382812 350.8125 732.90625 363.511719 732.890625 376.359375 C 732.890625 377.03125 732.890625 377.703125 732.886719 378.394531 C 732.804688 415.933594 726.746094 452.675781 714.75 488.25 C 714.496094 489.027344 714.238281 489.804688 713.976562 490.601562 C 703.871094 521.144531 688.574219 550.699219 669.75 576.75 C 669.339844 577.320312 668.933594 577.890625 668.511719 578.476562 C 663.542969 585.386719 658.46875 592.136719 652.886719 598.5625 C 651.066406 600.675781 649.316406 602.835938 647.578125 605.015625 C 644.757812 608.488281 641.703125 611.621094 638.503906 614.746094 C 636.953125 616.296875 635.503906 617.878906 634.078125 619.546875 C 629.886719 624.429688 625.289062 628.871094 620.40625 633.054688 C 618.789062 634.464844 617.222656 635.917969 615.65625 637.386719 C 610.871094 641.855469 605.859375 645.9375 600.660156 649.914062 C 599.226562 651.019531 597.800781 652.140625 596.382812 653.265625 C 584.035156 662.960938 570.886719 671.71875 557.25 679.5 C 556.75 679.789062 556.25 680.074219 555.738281 680.371094 C 492.226562 716.769531 418.480469 732.566406 282.332031 715.539062 C 276.429688 713.90625 270.582031 712.117188 264.75 710.25 C 263.558594 709.871094 263.558594 709.871094 262.34375 709.484375 C 224.164062 697.191406 188.386719 677.84375 156.75 653.25 C 155.816406 652.53125 154.882812 651.816406 153.949219 651.101562 C 149.34375 647.542969 144.882812 643.898438 140.609375 639.949219 C 139.054688 638.527344 137.480469 637.136719 135.890625 635.753906 C 126.8125 627.828125 118.347656 619.417969 110.25 610.5 C 109.300781 609.46875 109.300781 609.46875 108.335938 608.417969 C 104.660156 604.394531 101.144531 600.257812 97.75 596 C 97.042969 595.117188 96.332031 594.234375 95.621094 593.355469 C 55.015625 543.082031 29.65625 480.929688 22.3125 416.859375 C 22.25 416.316406 22.1875 415.773438 22.125 415.214844 C 20.710938 402.75 20.09375 390.351562 20.109375 377.8125 C 20.109375 377.160156 20.109375 376.503906 20.109375 375.832031 C 20.207031 325.128906 31.34375 276.277344 52.5 230.25 C 53.058594 229.007812 53.621094 227.765625 54.179688 226.519531 C 65.429688 201.824219 80.617188 178.902344 97.921875 158.058594 C 99.441406 156.214844 100.925781 154.347656 102.421875 152.484375 C 105.96875 148.15625 109.765625 144.078125 113.59375 139.996094 C 114.734375 138.765625 115.859375 137.527344 116.984375 136.28125 C 121.835938 130.90625 126.921875 125.921875 132.308594 121.082031 C 133.464844 120.03125 134.609375 118.964844 135.746094 117.894531 C 140.832031 113.121094 146.15625 108.769531 151.683594 104.519531 C 152.957031 103.53125 154.21875 102.527344 155.472656 101.515625 C 205.109375 61.59375 267.046875 37.007812 375.984375 26.109375 Z M 235.5 75.75 C 234.824219 76.046875 234.144531 76.34375 233.449219 76.648438 C 205.953125 88.84375 180.507812 105.996094 157.5 125.25 C 156.75 125.871094 156.003906 126.492188 155.230469 127.132812 C 148.722656 132.589844 142.628906 138.386719 136.644531 144.410156 C 135.132812 145.929688 133.613281 147.4375 132.09375 148.949219 C 126.714844 154.324219 121.703125 159.769531 117 165.75 C 116.308594 166.566406 115.609375 167.382812 114.90625 168.1875 C 65.4375 225 39.582031 302.101562 40.128906 399.929688 C 44.101562 456.097656 62.765625 510.457031 93.890625 557.296875 C 94.308594 557.925781 94.308594 557.925781 94.738281 558.570312 C 104.824219 573.699219 116.300781 587.777344 128.671875 601.085938 C 129.808594 602.316406 130.933594 603.554688 132.058594 604.796875 C 135.566406 608.660156 139.054688 612.449219 143.066406 615.804688 C 144.921875 617.398438 146.703125 619.0625 148.488281 620.742188 C 153.332031 625.296875 158.261719 629.648438 163.5 633.75 C 164.175781 634.28125 164.175781 634.28125 164.867188 634.828125 C 213.667969 673.171875 272.0625 698.195312 333.75 705.75 C 334.664062 705.863281 335.574219 705.972656 336.515625 706.089844 C 379.351562 711.109375 423.363281 708.101562 465 696.75 C 466.203125 696.421875 466.203125 696.421875 467.429688 696.089844 C 501.058594 686.800781 533.453125 672.660156 562.5 653.25 C 563.402344 652.648438 563.402344 652.648438 564.324219 652.039062 C 571.933594 646.960938 579.355469 641.714844 586.5 636 C 587.179688 635.457031 587.859375 634.914062 588.558594 634.351562 C 590.636719 632.671875 592.699219 630.964844 594.75 629.25 C 595.378906 628.726562 595.378906 628.726562 596.019531 628.1875 C 601.050781 623.972656 605.925781 619.710938 610.503906 614.996094 C 611.902344 613.597656 613.34375 612.332031 614.859375 611.0625 C 618.863281 607.621094 622.324219 603.660156 625.859375 599.753906 C 626.9375 598.570312 628.023438 597.402344 629.121094 596.238281 C 633.894531 591.152344 638.261719 585.832031 642.503906 580.292969 C 643.460938 579.050781 644.425781 577.820312 645.394531 576.589844 C 689.695312 520.164062 713.472656 448.886719 713.390625 377.34375 C 713.390625 376.597656 713.390625 375.847656 713.390625 375.078125 C 713.371094 363.730469 713.132812 352.523438 711.75 341.25 C 711.652344 340.4375 711.554688 339.625 711.457031 338.789062 C 705.238281 287.90625 687.546875 239.328125 659.203125 196.640625 C 658.921875 196.214844 658.640625 195.789062 658.351562 195.351562 C 648.5 180.527344 637.324219 166.679688 625.222656 153.636719 C 623.363281 151.621094 621.546875 149.574219 619.734375 147.515625 C 617.3125 144.8125 614.789062 142.414062 612.015625 140.078125 C 610.34375 138.613281 608.8125 137.058594 607.265625 135.46875 C 604.246094 132.414062 601.046875 129.703125 597.691406 127.023438 C 595.816406 125.507812 593.992188 123.953125 592.171875 122.375 C 576.234375 108.59375 558.253906 97.421875 540 87 C 539.464844 86.695312 538.933594 86.390625 538.382812 86.074219 C 513.707031 72.121094 486.441406 62.3125 459 55.5 C 457.769531 55.191406 457.769531 55.191406 456.515625 54.875 C 396.597656 40.003906 332.664062 42.832031 235.5 75.75 Z M 235.5 75.75 "/>
<path style=" stroke:none;fill-rule:nonzero;fill:rgb(90.196078%,7.843137%,17.647059%);fill-opacity:1;" d="M 129.75 240 C 132.558594 240.9375 133.265625 242.09375 135.09375 244.40625 C 135.691406 245.15625 136.292969 245.90625 136.910156 246.679688 C 137.820312 247.828125 137.820312 247.828125 138.75 249 C 139.839844 250.347656 140.933594 251.691406 142.03125 253.03125 C 142.585938 253.707031 143.140625 254.386719 143.710938 255.085938 C 145.675781 257.464844 147.671875 259.820312 149.671875 262.171875 C 152.574219 265.582031 155.398438 269.042969 158.179688 272.554688 C 160.667969 275.636719 163.246094 278.640625 165.820312 281.648438 C 166.15625 282.066406 166.492188 282.484375 166.839844 282.914062 C 167.992188 284.304688 167.992188 284.304688 169.484375 285.539062 C 175.511719 291.4375 175 298.578125 175.09375 306.488281 C 175.101562 307.726562 175.101562 307.726562 175.113281 308.988281 C 175.140625 310.710938 175.167969 312.433594 175.195312 314.15625 C 175.246094 317.78125 175.269531 321.402344 175.277344 325.027344 C 175.289062 328.671875 175.351562 332.308594 175.460938 335.953125 C 176.195312 360.539062 173.347656 379.585938 161.917969 401.523438 C 158.28125 408.503906 155.253906 415.730469 152.25 423 C 149.570312 422.105469 148.925781 421.007812 147.617188 418.570312 C 146.535156 415.816406 146.550781 413.085938 146.53125 410.15625 C 146.554688 404.753906 146.554688 404.753906 144.75 399.75 C 143.976562 399.261719 143.976562 399.261719 143.1875 398.761719 C 141.75 397.5 141.75 397.5 141.320312 394.761719 C 141.277344 393.691406 141.25 392.617188 141.234375 391.546875 C 141.171875 386.964844 141.171875 386.964844 140.25 382.5 C 139.664062 382.625 139.074219 382.746094 138.46875 382.875 C 136.183594 383.191406 134.125 383.289062 131.828125 383.273438 C 131.160156 383.269531 130.488281 383.265625 129.796875 383.261719 C 129.285156 383.257812 128.773438 383.253906 128.25 383.25 C 128.121094 374.78125 127.996094 366.3125 127.875 357.84375 C 127.867188 357.214844 127.855469 356.589844 127.847656 355.945312 C 127.539062 334.042969 127.398438 312.152344 127.5 290.25 C 126.414062 290.507812 126.414062 290.507812 125.308594 290.769531 C 123.886719 291.09375 123.886719 291.09375 122.4375 291.421875 C 121.027344 291.75 121.027344 291.75 119.589844 292.082031 C 115.914062 292.675781 115.914062 292.675781 114 291.75 C 113.140625 289.175781 113.363281 288.609375 114.207031 286.117188 C 114.433594 285.433594 114.664062 284.75 114.898438 284.042969 C 115.28125 282.933594 115.28125 282.933594 115.671875 281.800781 C 115.929688 281.03125 116.1875 280.261719 116.453125 279.46875 C 117.285156 277 118.125 274.53125 118.96875 272.0625 C 119.519531 270.433594 120.070312 268.804688 120.617188 267.175781 C 121.675781 264.035156 122.742188 260.894531 123.804688 257.757812 C 125.558594 252.597656 127.285156 247.425781 129 242.25 C 129.246094 241.507812 129.496094 240.765625 129.75 240 Z M 129.75 240 "/>
<path style=" stroke:none;fill-rule:nonzero;fill:rgb(90.196078%,7.843137%,17.647059%);fill-opacity:1;" d="M 246.75 426.75 C 249.691406 427.730469 249.957031 428.804688 251.449219 431.480469 C 251.925781 432.328125 252.402344 433.171875 252.894531 434.046875 C 253.144531 434.5 253.398438 434.953125 253.65625 435.417969 C 254.441406 436.835938 255.238281 438.25 256.035156 439.660156 C 257.136719 441.621094 258.238281 443.578125 259.339844 445.539062 C 261.933594 450.164062 264.554688 454.773438 267.1875 459.375 C 267.652344 460.195312 268.117188 461.019531 268.59375 461.867188 C 269.03125 462.628906 269.46875 463.394531 269.917969 464.179688 C 270.296875 464.847656 270.675781 465.515625 271.066406 466.203125 C 272.289062 468.058594 273.628906 469.492188 275.25 471 C 273.78125 475.679688 272.039062 480.148438 270.03125 484.621094 C 269.605469 485.582031 269.605469 485.582031 269.167969 486.566406 C 268.558594 487.933594 267.949219 489.304688 267.335938 490.671875 C 266.378906 492.820312 265.429688 494.976562 264.484375 497.128906 C 261.78125 503.265625 259.070312 509.394531 256.152344 515.433594 C 255.117188 517.585938 254.101562 519.746094 253.089844 521.910156 C 252.617188 522.894531 252.136719 523.875 251.640625 524.847656 C 248.714844 530.550781 248.714844 530.550781 248.835938 536.769531 C 249.765625 539.183594 250.832031 541.445312 252 543.75 C 252 544.246094 252 544.738281 252 545.25 C 252.503906 545.339844 253.007812 545.429688 253.527344 545.523438 C 266.832031 547.914062 280.046875 550.59375 293.25 553.5 C 293.269531 554.859375 293.285156 556.21875 293.296875 557.578125 C 293.304688 558.335938 293.3125 559.09375 293.324219 559.871094 C 293.25 561.75 293.25 561.75 292.5 562.5 C 290.332031 562.570312 288.179688 562.59375 286.011719 562.585938 C 284.992188 562.585938 284.992188 562.585938 283.949219 562.585938 C 281.691406 562.585938 279.429688 562.578125 277.167969 562.574219 C 275.605469 562.570312 274.042969 562.570312 272.480469 562.570312 C 268.359375 562.566406 264.238281 562.558594 260.113281 562.550781 C 255.914062 562.542969 251.710938 562.539062 247.507812 562.535156 C 239.253906 562.527344 231.003906 562.515625 222.75 562.5 C 221.121094 558.515625 219.507812 554.523438 217.902344 550.53125 C 217.355469 549.171875 216.804688 547.816406 216.25 546.460938 C 215.453125 544.511719 214.667969 542.554688 213.886719 540.601562 C 213.636719 539.996094 213.386719 539.390625 213.128906 538.769531 C 211.585938 534.863281 211.261719 532.628906 212.90625 528.671875 C 213.167969 528.15625 213.429688 527.636719 213.699219 527.101562 C 213.996094 526.511719 214.296875 525.917969 214.601562 525.308594 C 214.925781 524.679688 215.246094 524.054688 215.578125 523.40625 C 215.910156 522.75 216.242188 522.097656 216.582031 521.421875 C 219.519531 515.640625 222.539062 509.902344 225.578125 504.175781 C 225.996094 503.375 225.996094 503.375 226.421875 502.558594 C 226.964844 501.539062 227.523438 500.535156 228.109375 499.539062 C 231.632812 493.289062 231.625 485.433594 230.25 478.5 C 228.578125 474.5625 225.757812 471.734375 222.75 468.75 C 220.957031 466.808594 220.957031 466.808594 219.75 465 C 220.035156 462.390625 221.242188 460.796875 222.828125 458.761719 C 223.558594 457.820312 223.558594 457.820312 224.300781 456.859375 C 224.824219 456.1875 225.351562 455.519531 225.890625 454.828125 C 226.984375 453.410156 228.078125 451.996094 229.171875 450.578125 C 229.726562 449.859375 230.28125 449.140625 230.851562 448.398438 C 233.367188 445.121094 235.820312 441.796875 238.265625 438.46875 C 238.6875 437.894531 239.109375 437.320312 239.546875 436.730469 C 241.972656 433.421875 244.371094 430.09375 246.75 426.75 Z M 246.75 426.75 "/>
<path style=" stroke:none;fill-rule:nonzero;fill:rgb(90.196078%,7.843137%,17.647059%);fill-opacity:1;" d="M 507.75 425.25 C 508.246094 425.25 508.738281 425.25 509.25 425.25 C 510.195312 426.308594 510.195312 426.308594 511.273438 427.8125 C 511.679688 428.375 512.085938 428.9375 512.507812 429.519531 C 512.949219 430.136719 513.390625 430.753906 513.84375 431.390625 C 514.789062 432.695312 515.738281 434 516.6875 435.304688 C 517.183594 435.988281 517.683594 436.675781 518.195312 437.382812 C 520.792969 440.917969 523.457031 444.40625 526.125 447.890625 C 529.03125 451.691406 529.03125 451.691406 530.421875 453.519531 C 531.304688 454.671875 532.207031 455.8125 533.125 456.9375 C 533.546875 457.460938 533.964844 457.984375 534.398438 458.523438 C 534.773438 458.976562 535.148438 459.433594 535.535156 459.902344 C 536.25 461.25 536.25 461.25 536.105469 462.761719 C 535.464844 464.335938 534.742188 465.441406 533.675781 466.761719 C 533.3125 467.214844 532.949219 467.667969 532.574219 468.136719 C 532.195312 468.601562 531.8125 469.066406 531.421875 469.546875 C 530.671875 470.476562 529.921875 471.40625 529.175781 472.339844 C 528.84375 472.746094 528.507812 473.15625 528.164062 473.578125 C 524.230469 478.613281 524.734375 484.898438 525.296875 491.054688 C 526.609375 498.136719 530.671875 504.5 534.195312 510.691406 C 535.796875 513.523438 537.296875 516.398438 538.792969 519.285156 C 539.945312 521.503906 541.117188 523.707031 542.296875 525.910156 C 542.527344 526.351562 542.761719 526.792969 543 527.25 C 543.292969 527.707031 543.585938 528.167969 543.886719 528.640625 C 545.464844 532.789062 542.816406 537.40625 541.214844 541.257812 C 540.996094 541.800781 540.773438 542.339844 540.546875 542.898438 C 539.730469 544.902344 538.902344 546.90625 538.078125 548.90625 C 536.238281 553.390625 534.398438 557.878906 532.5 562.5 C 514.433594 562.5 496.363281 562.5 477.75 562.5 C 477.300781 556.660156 476.882812 551.066406 477 545.25 C 479.222656 544.140625 481.492188 544.386719 483.929688 544.363281 C 485.035156 544.332031 486.140625 544.300781 487.246094 544.265625 C 488.992188 544.214844 490.730469 544.171875 492.476562 544.164062 C 496.199219 544.144531 499.652344 544.015625 503.25 543 C 505.441406 540.742188 506.273438 538.527344 507 535.5 C 507.152344 535.023438 507.308594 534.550781 507.46875 534.058594 C 507.808594 532.175781 507.511719 531.390625 506.730469 529.664062 C 506.484375 529.109375 506.238281 528.558594 505.988281 527.992188 C 505.714844 527.394531 505.4375 526.796875 505.15625 526.179688 C 504.871094 525.546875 504.589844 524.914062 504.296875 524.261719 C 503.683594 522.894531 503.0625 521.523438 502.441406 520.15625 C 501.464844 518.003906 500.496094 515.847656 499.53125 513.691406 C 498.195312 510.707031 496.859375 507.722656 495.519531 504.742188 C 492.664062 498.398438 489.835938 492.042969 487.039062 485.675781 C 486.195312 483.769531 485.347656 481.867188 484.496094 479.964844 C 483.984375 478.804688 483.476562 477.644531 482.964844 476.484375 C 482.726562 475.957031 482.488281 475.433594 482.246094 474.890625 C 480.664062 471.257812 480.664062 471.257812 481.5 468.75 C 482.246094 467.996094 482.996094 467.246094 483.75 466.5 C 484.445312 465.402344 485.105469 464.277344 485.734375 463.140625 C 486.300781 462.121094 486.300781 462.121094 486.882812 461.082031 C 487.285156 460.347656 487.691406 459.613281 488.109375 458.859375 C 488.980469 457.300781 489.851562 455.742188 490.726562 454.183594 C 491.179688 453.375 491.632812 452.566406 492.097656 451.734375 C 494.402344 447.648438 496.761719 443.597656 499.125 439.546875 C 499.554688 438.804688 499.988281 438.066406 500.429688 437.304688 C 501.613281 435.28125 502.804688 433.265625 504 431.25 C 504.535156 430.335938 504.535156 430.335938 505.085938 429.402344 C 505.929688 427.992188 506.835938 426.617188 507.75 425.25 Z M 507.75 425.25 "/>
<path style=" stroke:none;fill-rule:nonzero;fill:rgb(90.196078%,7.843137%,17.647059%);fill-opacity:1;" d="M 633 270.75 C 633.742188 270.75 634.484375 270.75 635.25 270.75 C 635.792969 272.101562 636.335938 273.449219 636.875 274.800781 C 637.234375 275.691406 637.589844 276.578125 637.957031 277.492188 C 638.757812 279.492188 639.554688 281.496094 640.34375 283.5 C 642.273438 288.378906 644.226562 293.238281 646.328125 298.042969 C 651.578125 310.046875 655.433594 320.316406 654.191406 333.671875 C 653.894531 337.261719 653.816406 340.855469 653.710938 344.453125 C 653.589844 348.386719 653.421875 352.320312 653.25 356.25 C 652.261719 356.25 651.269531 356.25 650.25 356.25 C 648.972656 354.769531 647.9375 353.375 646.875 351.75 C 646.207031 350.773438 645.539062 349.800781 644.871094 348.828125 C 644.523438 348.320312 644.175781 347.8125 643.816406 347.285156 C 642.089844 344.800781 640.265625 342.394531 638.4375 339.984375 C 633.679688 333.679688 629 327.324219 624.328125 320.957031 C 623.226562 319.464844 622.113281 317.980469 621 316.5 C 618.820312 317.484375 617.273438 318.539062 615.59375 320.234375 C 614.917969 320.910156 614.917969 320.910156 614.230469 321.601562 C 613.753906 322.085938 613.277344 322.570312 612.785156 323.070312 C 612.289062 323.566406 611.792969 324.0625 611.285156 324.574219 C 609.707031 326.160156 608.132812 327.753906 606.5625 329.34375 C 605.492188 330.421875 604.421875 331.5 603.351562 332.574219 C 600.730469 335.210938 598.113281 337.855469 595.5 340.5 C 597.214844 347.195312 599.347656 353.730469 601.554688 360.277344 C 601.917969 361.367188 602.28125 362.460938 602.648438 363.550781 C 603.597656 366.398438 604.554688 369.242188 605.507812 372.089844 C 607.042969 376.660156 608.574219 381.230469 610.105469 385.804688 C 610.636719 387.394531 611.171875 388.984375 611.707031 390.574219 C 612.035156 391.546875 612.359375 392.523438 612.6875 393.496094 C 612.96875 394.34375 613.253906 395.191406 613.546875 396.066406 C 615.207031 401.230469 615.207031 401.230469 614.328125 404.277344 C 614.164062 404.859375 613.996094 405.445312 613.828125 406.050781 C 613.644531 406.675781 613.457031 407.296875 613.269531 407.941406 C 613.085938 408.585938 612.898438 409.230469 612.710938 409.894531 C 612.121094 411.953125 611.523438 414.007812 610.921875 416.0625 C 610.519531 417.457031 610.121094 418.851562 609.71875 420.25 C 608.738281 423.667969 607.746094 427.085938 606.75 430.5 C 606.007812 430.5 605.265625 430.5 604.5 430.5 C 601.460938 421.398438 598.421875 412.296875 595.382812 403.191406 C 593.972656 398.964844 592.5625 394.734375 591.148438 390.507812 C 589.78125 386.414062 588.417969 382.316406 587.050781 378.222656 C 586.535156 376.675781 586.015625 375.125 585.5 373.578125 C 582.800781 365.5 580.125 357.414062 577.515625 349.304688 C 577.285156 348.605469 577.058594 347.902344 576.824219 347.179688 C 576.617188 346.53125 576.410156 345.886719 576.195312 345.21875 C 576.011719 344.648438 575.828125 344.082031 575.640625 343.496094 C 575.25 342 575.25 342 575.25 339.75 C 574.507812 339.503906 573.765625 339.253906 573 339 C 573.964844 336.890625 574.996094 335.300781 576.59375 333.621094 C 577.003906 333.1875 577.410156 332.753906 577.832031 332.308594 C 578.261719 331.855469 578.695312 331.402344 579.140625 330.9375 C 580.03125 329.992188 580.925781 329.042969 581.816406 328.09375 C 582.242188 327.644531 582.667969 327.191406 583.105469 326.726562 C 584.835938 324.875 586.492188 322.960938 588.148438 321.039062 C 589.941406 319 591.78125 317 593.625 315 C 595.902344 312.523438 598.171875 310.042969 600.375 307.5 C 602.929688 304.550781 605.574219 301.6875 608.214844 298.816406 C 610.128906 296.734375 612.023438 294.636719 613.875 292.5 C 616.078125 289.957031 618.347656 287.476562 620.625 285 C 626.371094 278.808594 626.371094 278.808594 631.6875 272.25 C 632.335938 271.507812 632.335938 271.507812 633 270.75 Z M 633 270.75 "/>
</g>
</svg>
