<svg xmlns="http://www.w3.org/2000/svg" viewBox="0 0 1150 326"><svg xmlns="http://www.w3.org/2000/svg" xmlns:xlink="http://www.w3.org/1999/xlink" width="1000" height="326" viewBox="0 0 1039 339" version="1.1" x="0"><g id="surface1"><path style=" stroke:none;fill-rule:evenodd;fill:rgb(15.686275%,22.352941%,45.882353%);fill-opacity:1;" d="M 174.914062 135.75 L 174.914062 271.5 L 186.910156 271.5 L 186.910156 0 L 174.914062 0 L 174.914062 135.75 M 287.863281 135.75 L 287.863281 271.5 L 311.351562 271.5 L 311.351562 0 L 287.863281 0 L 287.863281 135.75 M 0 158.25 L 0 294 L 22.988281 294 L 22.988281 22.5 L 0 22.5 L 0 158.25 M 44.976562 158.25 L 44.976562 294 L 90.957031 294 L 90.957031 22.5 L 44.976562 22.5 L 44.976562 158.25 M 146.929688 180.75 L 146.929688 316.5 L 169.917969 316.5 L 169.917969 45 L 146.929688 45 L 146.929688 180.75 " /><path style=" stroke:none;fill-rule:evenodd;fill:rgb(89.019608%,7.843137%,17.254902%);fill-opacity:1;" d="M 95.953125 135.75 L 95.953125 271.5 L 141.433594 271.5 L 141.433594 0 L 95.953125 0 L 95.953125 135.75 M 614.953125 21.519531 C 610.316406 22.226562 604.289062 24.277344 600.710938 26.359375 C 598.925781 27.398438 595.640625 30.054688 593.417969 32.261719 C 590.097656 35.554688 588.957031 37.121094 587.046875 41.011719 C 583.863281 47.492188 583.035156 50.996094 583.035156 58 C 583.03125 68.613281 586 75.832031 593.4375 83.28125 C 601.171875 91.023438 608.828125 94.128906 620.203125 94.128906 C 627.433594 94.128906 632.238281 93.074219 637.894531 90.253906 L 641.355469 88.523438 L 645.019531 91.804688 C 647.035156 93.609375 648.898438 95.007812 649.160156 94.917969 C 649.421875 94.824219 651.773438 92.386719 654.386719 89.5 L 659.140625 84.25 L 657.289062 82.5 C 656.269531 81.539062 654.691406 80.136719 653.78125 79.382812 L 652.128906 78.015625 L 654.152344 73.882812 C 657.058594 67.957031 657.886719 64.320312 657.886719 57.5 C 657.886719 50.699219 657.050781 47.019531 654.207031 41.25 C 648.332031 29.347656 636.824219 22.082031 622.628906 21.316406 C 620.054688 21.175781 616.601562 21.269531 614.953125 21.519531 M 451.136719 22.625 C 451 22.96875 444.3125 38.664062 436.28125 57.5 C 428.246094 76.335938 421.566406 92.03125 421.433594 92.375 C 421.246094 92.859375 423.039062 93 429.410156 93 L 437.632812 93 L 439.042969 89.375 C 439.820312 87.382812 441.226562 83.890625 442.171875 81.617188 L 443.890625 77.484375 L 458.640625 77.617188 L 473.386719 77.75 L 476.453125 85.367188 L 479.519531 92.980469 L 487.945312 92.992188 C 494.488281 92.996094 496.3125 92.859375 496.117188 92.375 C 495.980469 92.03125 489.296875 76.335938 481.269531 57.5 C 473.238281 38.664062 466.558594 22.96875 466.417969 22.625 C 466.234375 22.164062 464.222656 22 458.777344 22 C 453.335938 22 451.324219 22.164062 451.136719 22.625 M 191.90625 158.25 L 191.90625 294 L 282.863281 294 L 282.863281 22.5 L 191.90625 22.5 L 191.90625 158.25 M 354.828125 57.75 L 354.828125 93 L 374.277344 93 C 389.390625 93 394.585938 92.835938 397.597656 92.257812 C 405.140625 90.816406 410.6875 87.101562 413.328125 81.738281 C 415.085938 78.164062 415.34375 70.476562 413.839844 66.464844 C 412.582031 63.105469 409.304688 59.644531 405.492188 57.652344 C 404.015625 56.882812 402.808594 56.136719 402.8125 56 C 402.8125 55.863281 403.589844 55.222656 404.539062 54.574219 C 406.671875 53.121094 408.539062 50.710938 409.929688 47.617188 C 411.542969 44.019531 411.441406 37.703125 409.710938 33.941406 C 407.988281 30.195312 405.449219 27.484375 401.894531 25.585938 C 396.542969 22.734375 394.550781 22.515625 373.695312 22.507812 L 354.828125 22.5 L 354.828125 57.75 M 506.757812 57.75 L 506.757812 93 L 522.238281 93 L 522.367188 71.058594 L 522.5 49.121094 L 539.207031 71.058594 L 555.914062 93 L 569.726562 93 L 569.726562 22.5 L 553.746094 22.5 L 553.613281 43.570312 L 553.484375 64.640625 L 521.5 22.539062 L 506.757812 22.5 L 506.757812 57.75 M 670.300781 46.375 C 670.5 72.859375 670.492188 72.765625 673.976562 79.90625 C 677.304688 86.726562 683.621094 91.417969 691.964844 93.277344 C 697.648438 94.542969 708.589844 94.089844 713.460938 92.386719 C 720.429688 89.953125 725.460938 85.546875 728.453125 79.25 C 731.800781 72.203125 731.804688 72.1875 732.023438 46.125 L 732.226562 22.5 L 716.15625 22.5 L 716.15625 43.40625 C 716.15625 56.355469 715.949219 65.4375 715.609375 67.261719 C 714.097656 75.460938 709.535156 79.234375 701.128906 79.246094 C 697.34375 79.25 696.5 79.074219 693.878906 77.738281 C 690.726562 76.128906 688.292969 73.210938 687.082031 69.589844 C 686.644531 68.277344 686.417969 61.277344 686.292969 45.125 L 686.121094 22.5 L 670.117188 22.5 L 670.300781 46.375 M 747.140625 57.75 L 747.140625 93 L 801.113281 93 L 801.113281 79 L 763.132812 79 L 763.132812 64.5 L 796.117188 64.5 L 796.117188 50.5 L 763.132812 50.5 L 763.132812 36.5 L 800.613281 36.5 L 800.613281 22.5 L 747.140625 22.5 L 747.140625 57.75 M 616.453125 36.261719 C 616.179688 36.363281 615.019531 36.6875 613.875 36.980469 C 610.660156 37.804688 605.957031 41.230469 603.6875 44.402344 C 600.679688 48.601562 599.527344 52.945312 599.816406 58.984375 C 600.015625 63.09375 600.296875 64.382812 601.597656 67.167969 C 605.472656 75.453125 612.875 79.902344 621.90625 79.382812 C 624.128906 79.257812 626.695312 78.835938 627.605469 78.449219 L 629.257812 77.75 L 624.226562 73.546875 C 621.457031 71.234375 618.953125 69.050781 618.65625 68.695312 C 618.25 68.203125 619.292969 66.730469 623.035156 62.527344 C 625.738281 59.488281 628.058594 57.007812 628.199219 57.011719 C 628.335938 57.015625 630.921875 59.242188 633.945312 61.960938 C 636.96875 64.679688 639.597656 66.808594 639.78125 66.695312 C 640.601562 66.1875 641.300781 60.796875 641.109375 56.449219 C 640.9375 52.484375 640.660156 51.226562 639.332031 48.386719 C 635.652344 40.53125 628.554688 35.941406 620.234375 36.039062 C 618.429688 36.0625 616.726562 36.160156 616.453125 36.261719 M 370.320312 43.773438 L 370.320312 51.121094 L 379.441406 50.90625 C 389.859375 50.65625 392.402344 49.972656 394.324219 46.910156 C 396.246094 43.839844 394.996094 39.449219 391.683594 37.636719 C 390.320312 36.890625 388.484375 36.722656 380.191406 36.585938 L 370.320312 36.425781 L 370.320312 43.773438 M 454.179688 52.15625 L 449.851562 62.75 L 458.382812 62.886719 C 463.078125 62.960938 467 62.941406 467.101562 62.839844 C 467.25 62.691406 458.949219 42.007812 458.601562 41.65625 C 458.550781 41.601562 456.558594 46.328125 454.179688 52.15625 M 370.320312 71.484375 L 370.320312 79.066406 L 381.941406 78.90625 C 392.496094 78.765625 393.714844 78.660156 395.257812 77.75 C 397.929688 76.175781 399.0625 74.296875 399.023438 71.511719 C 398.976562 68.398438 397.828125 66.683594 394.894531 65.339844 C 392.785156 64.375 391.5 64.253906 381.441406 64.089844 L 370.320312 63.902344 L 370.320312 71.484375 M 27.988281 203.25 L 27.988281 339 L 39.980469 339 L 39.980469 67.5 L 27.988281 67.5 L 27.988281 203.25 M 884.460938 103.601562 C 880.753906 108.234375 874.078125 117.007812 874.078125 117.246094 C 874.078125 117.386719 876.796875 117.5 880.121094 117.5 L 886.164062 117.5 L 892.847656 112.625 C 896.527344 109.945312 899.542969 107.613281 899.550781 107.449219 C 899.5625 107.222656 891.027344 103.382812 886.554688 101.601562 C 886.347656 101.519531 885.40625 102.417969 884.460938 103.601562 M 636.445312 122.230469 C 617.875 125.632812 605.28125 141.546875 606.367188 160.230469 C 606.714844 166.199219 607.683594 170.023438 610.035156 174.722656 C 613.605469 181.84375 619.066406 187.179688 626.449219 190.742188 C 632.246094 193.542969 636.675781 194.5 643.832031 194.5 C 656.117188 194.5 666.398438 189.714844 673.621094 180.640625 C 682.21875 169.839844 683.707031 154.003906 677.335938 141.109375 C 675.074219 136.527344 669.453125 130.394531 664.847656 127.484375 C 656.71875 122.347656 646.3125 120.421875 636.445312 122.230469 M 1006.894531 122.042969 C 997.445312 123.089844 991 127.460938 987.421875 135.25 C 986.4375 137.398438 986.273438 138.5625 986.273438 143.5 C 986.273438 148.675781 986.40625 149.53125 987.601562 152.078125 C 990.351562 157.945312 996.078125 161.507812 1008.015625 164.765625 C 1011.726562 165.78125 1015.945312 167.050781 1017.394531 167.59375 C 1022.597656 169.539062 1024.398438 172.398438 1022.816406 176.191406 C 1021.660156 178.957031 1018.542969 180.226562 1013.011719 180.191406 C 1006.824219 180.148438 1001.167969 178.121094 995.125 173.777344 C 993.765625 172.800781 992.546875 172 992.417969 172 C 992.289062 172 990.089844 174.507812 987.535156 177.570312 L 982.882812 183.136719 L 984.082031 184.085938 C 992.082031 190.4375 1000.941406 193.84375 1010.773438 194.351562 C 1023.535156 195.011719 1032.902344 190.652344 1037.113281 182.097656 C 1038.699219 178.875 1038.75 178.574219 1038.75 172.511719 C 1038.75 166.878906 1038.628906 166 1037.527344 163.761719 C 1034.484375 157.574219 1029.160156 154.417969 1015.203125 150.515625 C 1007.453125 148.351562 1003.363281 146.582031 1002.535156 145.035156 C 1002.25 144.5 1002.019531 143.082031 1002.019531 141.875 C 1002.019531 134.515625 1014.71875 134 1025.734375 140.914062 L 1028.972656 142.945312 L 1032.785156 137.390625 C 1034.878906 134.335938 1036.703125 131.558594 1036.832031 131.21875 C 1037.316406 129.953125 1029.285156 125.394531 1023.324219 123.554688 C 1021.433594 122.972656 1018.285156 122.375 1016.328125 122.222656 C 1014.367188 122.074219 1012.199219 121.890625 1011.511719 121.8125 C 1010.824219 121.734375 1008.746094 121.839844 1006.894531 122.042969 M 354.828125 158.21875 L 354.828125 193.5 L 370.351562 193.5 C 379.085938 193.5 387.410156 193.261719 389.390625 192.953125 C 409.136719 189.890625 421.753906 173.699219 419.765625 153.976562 C 418.949219 145.882812 415.957031 139.621094 410.074219 133.707031 C 405.636719 129.242188 401.804688 126.855469 395.558594 124.664062 L 391.5625 123.261719 L 354.828125 122.933594 L 354.828125 158.21875 M 433.292969 158.25 L 433.292969 193.5 L 487.265625 193.5 L 487.265625 179.5 L 449.285156 179.5 L 449.285156 165 L 482.269531 165 L 482.269531 151 L 449.285156 151 L 449.285156 137 L 486.765625 137 L 486.765625 123 L 433.292969 123 L 433.292969 158.25 M 530.746094 158.25 L 530.746094 193.570312 L 548.359375 193.375 C 568.058594 193.15625 569.109375 193.011719 576.472656 189.488281 C 585.917969 184.964844 592.59375 176.730469 595.0625 166.5625 C 596.125 162.179688 596.113281 153.777344 595.039062 149.34375 C 593.535156 143.132812 591 138.757812 585.980469 133.71875 C 581.125 128.839844 577.488281 126.59375 570.976562 124.445312 C 567.625 123.339844 566.691406 123.285156 549.109375 123.113281 L 530.746094 122.933594 L 530.746094 158.25 M 694.664062 158.25 L 694.664062 193.5 L 710.648438 193.5 L 710.777344 171.757812 L 710.90625 150.019531 L 727.398438 171.730469 L 743.890625 193.445312 L 750.765625 193.472656 L 757.636719 193.5 L 757.636719 123 L 741.652344 123 L 741.394531 164.859375 L 725.453125 143.929688 L 709.515625 123 L 694.664062 123 L 694.664062 158.25 M 774.128906 158.25 L 774.128906 193.5 L 789.609375 193.5 L 789.738281 171.507812 L 789.871094 149.515625 L 806.613281 171.5 L 823.355469 193.488281 L 830.226562 193.492188 L 837.097656 193.5 L 837.097656 123 L 821.117188 123 L 820.984375 144.011719 L 820.855469 165.019531 L 788.871094 123.003906 L 781.5 123 L 774.128906 123 L 774.128906 158.25 M 853.589844 158.25 L 853.589844 193.5 L 907.5625 193.5 L 907.5625 179.5 L 869.082031 179.5 L 869.082031 165 L 902.566406 165 L 902.566406 151 L 869.082031 151 L 869.082031 137 L 907.0625 137 L 907.0625 123 L 853.589844 123 L 853.589844 158.25 M 920.558594 158.25 L 920.558594 193.5 L 974.53125 193.5 L 974.53125 179.5 L 936.550781 179.5 L 936.550781 165 L 969.535156 165 L 969.535156 151 L 936.550781 151 L 936.550781 137 L 974.03125 137 L 974.03125 123 L 920.558594 123 L 920.558594 158.25 M 637.441406 137.171875 C 631.175781 139.238281 626.429688 143.941406 624.105469 150.382812 C 622.703125 154.265625 622.609375 161.167969 623.90625 165 C 627.429688 175.410156 636.933594 181.363281 647.210938 179.601562 C 659.734375 177.449219 667.273438 165.164062 663.933594 152.339844 C 662.300781 146.074219 658.277344 141.0625 652.722656 138.378906 C 649.8125 136.976562 648.871094 136.777344 644.441406 136.652344 C 641.277344 136.566406 638.710938 136.753906 637.441406 137.171875 M 370.820312 157.980469 L 370.820312 179.097656 L 379.441406 178.894531 C 389.113281 178.664062 391.1875 178.144531 395.757812 174.789062 C 406.199219 167.121094 405.777344 148.375 394.992188 140.953125 C 390.925781 138.152344 387.910156 137.433594 378.941406 137.132812 L 370.820312 136.859375 L 370.820312 157.980469 M 546.738281 157.929688 L 546.738281 179 L 554.128906 179 C 564.679688 179 569.0625 177.6875 573.558594 173.191406 C 574.789062 171.960938 576.511719 169.441406 577.386719 167.601562 C 578.894531 164.414062 578.972656 163.953125 578.972656 158.25 C 578.972656 152.578125 578.886719 152.070312 577.425781 149 C 575.574219 145.105469 573.859375 142.984375 570.910156 140.953125 C 566.839844 138.152344 563.824219 137.433594 554.859375 137.132812 L 546.738281 136.859375 L 546.738281 157.929688 M 565.976562 222.738281 C 552.839844 225.632812 542.550781 235.898438 539.171875 249.476562 C 537.652344 255.566406 538.003906 265.007812 539.953125 270.75 C 545.070312 285.800781 557.875 295 573.71875 295 C 584.054688 295 593.65625 291.117188 600.1875 284.292969 L 601.917969 282.488281 L 599.234375 279.773438 L 596.554688 277.058594 L 593.980469 279.257812 C 590.34375 282.367188 586.003906 284.871094 582.21875 286.042969 C 578.328125 287.246094 571.703125 287.464844 567.726562 286.515625 C 561.46875 285.027344 555.609375 280.953125 552.082031 275.644531 C 540.9375 258.878906 548.570312 235.578125 566.792969 230.726562 C 569.9375 229.890625 577.605469 229.777344 580.46875 230.53125 C 584.761719 231.652344 588.132812 233.339844 592.035156 236.320312 L 596.101562 239.421875 L 601.71875 233.0625 L 598.089844 230.210938 C 593.539062 226.628906 587.605469 223.777344 582.617188 222.773438 C 577.996094 221.84375 570.109375 221.828125 565.976562 222.738281 M 709.332031 222.515625 C 700.980469 224.019531 694.640625 228.777344 692.140625 235.417969 C 690.753906 239.097656 690.929688 246.035156 692.496094 249.5 C 695.0625 255.183594 701.292969 258.847656 713.667969 261.960938 C 729.511719 265.949219 732.816406 268.308594 732.769531 275.617188 C 732.726562 282.800781 726.820312 287.070312 716.90625 287.089844 C 709.390625 287.101562 702.378906 284.589844 696.453125 279.757812 C 694.929688 278.515625 693.507812 277.511719 693.296875 277.527344 C 693.089844 277.542969 691.847656 278.871094 690.542969 280.476562 L 688.171875 283.398438 L 689.875 284.894531 C 694.304688 288.789062 699.171875 291.40625 705.507812 293.308594 C 709.214844 294.421875 710.933594 294.640625 716.40625 294.691406 C 721.855469 294.738281 723.476562 294.566406 726.472656 293.625 C 730.414062 292.386719 734.644531 289.8125 736.785156 287.347656 C 740.375 283.222656 742.089844 277.140625 741.210938 271.671875 C 739.789062 262.855469 733.925781 258.414062 718.535156 254.5 C 714.207031 253.398438 709.511719 252.058594 708.101562 251.523438 C 702.167969 249.269531 699.664062 246.21875 699.664062 241.25 C 699.664062 234.148438 705.140625 230 714.515625 230 C 721.164062 230 726.613281 231.777344 732.234375 235.78125 L 734.570312 237.441406 L 736.621094 234.722656 C 737.75 233.226562 738.800781 231.671875 738.957031 231.269531 C 739.277344 230.429688 733.941406 226.777344 729.898438 225.074219 C 724.128906 222.640625 714.953125 221.5 709.332031 222.515625 M 356.328125 258.496094 L 356.328125 294.09375 L 372.195312 293.871094 C 390.214844 293.617188 391.355469 293.441406 399.308594 289.636719 C 403.34375 287.707031 404.695312 286.722656 408.328125 283.058594 C 415.386719 275.941406 418.332031 268.722656 418.351562 258.5 C 418.359375 252.746094 417.917969 250.167969 416.097656 245.328125 C 412.292969 235.214844 403.59375 227.679688 391.992188 224.449219 C 388.433594 223.457031 386.566406 223.332031 372.195312 223.125 L 356.328125 222.898438 L 356.328125 258.496094 M 433.898438 247.605469 L 434.054688 272.25 L 435.417969 276.289062 C 437.746094 283.191406 442.507812 288.859375 448.535156 291.886719 C 456.515625 295.894531 469.261719 295.945312 477.53125 291.996094 C 482.234375 289.75 486.839844 285.265625 489.007812 280.816406 C 492.460938 273.738281 492.449219 273.851562 492.640625 247.125 L 492.816406 223 L 484.320312 223 L 484.152344 247.125 C 483.992188 270.261719 483.945312 271.363281 482.929688 274.054688 C 480.722656 279.902344 477.332031 283.59375 472.3125 285.613281 C 469.945312 286.570312 468.582031 286.738281 463.277344 286.742188 C 457.296875 286.75 456.886719 286.683594 453.703125 285.171875 C 448.585938 282.746094 445.207031 278.730469 443.242188 272.75 C 442.757812 271.265625 442.515625 264.625 442.3125 247 L 442.039062 223.25 L 437.886719 223.105469 L 433.738281 222.957031 L 433.898438 247.605469 M 615.203125 258.546875 L 615.203125 294.09375 L 631.070312 293.878906 C 645.390625 293.683594 647.324219 293.554688 650.90625 292.578125 C 663.925781 289.019531 673.183594 279.949219 676.507812 267.5 C 677.679688 263.117188 677.683594 253.929688 676.523438 249.5 C 672.84375 235.488281 661.265625 225.632812 646.027344 223.535156 C 643.878906 223.242188 636.0625 223 628.660156 223 L 615.203125 223 L 615.203125 258.546875 M 757.136719 258.453125 L 757.136719 294 L 765.632812 294 L 765.632812 269.089844 L 777.75 268.882812 C 788.640625 268.699219 790.222656 268.5625 793.367188 267.546875 C 804.355469 263.988281 810.109375 256.496094 810.109375 245.75 C 810.109375 234.765625 804.34375 227.496094 792.949219 224.121094 C 790.941406 223.527344 786.683594 223.308594 773.753906 223.132812 L 757.136719 222.910156 L 757.136719 258.453125 M 364.824219 258.5 L 364.824219 286 L 374.988281 286 C 383.398438 286 385.804688 285.832031 388.929688 285.035156 C 401.273438 281.875 408.851562 272.894531 409.660156 260.457031 C 410.398438 249.113281 404.84375 239.027344 395.257812 234.304688 C 389.753906 231.597656 386.144531 231.019531 374.695312 231.007812 L 364.824219 231 L 364.824219 258.5 M 623.699219 258.5 L 623.699219 286 L 633.820312 285.992188 C 649.242188 285.976562 654.347656 284.4375 660.96875 277.796875 C 666.386719 272.367188 668.679688 266.625 668.679688 258.5 C 668.679688 245.273438 660.863281 235.308594 647.882812 231.984375 C 644.667969 231.164062 642.347656 231 633.863281 231 L 623.699219 231 L 623.699219 258.5 M 765.632812 246.210938 L 765.632812 261.5 L 774.753906 261.496094 C 785.578125 261.492188 789.3125 260.988281 793.472656 258.964844 C 799.253906 256.15625 801.9375 251.425781 801.503906 244.808594 C 801.109375 238.777344 798.121094 234.761719 792.308594 232.453125 C 789.582031 231.371094 788.519531 231.273438 777.5 231.105469 L 765.632812 230.921875 L 765.632812 246.210938 " /></g></svg><svg xmlns="http://www.w3.org/2000/svg" xmlns:xlink="http://www.w3.org/1999/xlink" width="150" height="150" viewBox="0 0 255 255" version="1.1" x="1000"><g id="surface1"><path style=" stroke:none;fill-rule:nonzero;fill:rgb(42.745098%,43.137255%,44.313725%);fill-opacity:1;" d="M 188.664062 53.921875 C 190.691406 55.703125 192.667969 57.515625 194.5 59.5 C 194.765625 59.789062 195.035156 60.074219 195.308594 60.371094 C 203.027344 68.941406 213.746094 82.246094 215.1875 94.03125 C 215 95.5 215 95.5 214.21875 96.6875 C 212.550781 97.800781 211.464844 97.75 209.5 97.5 C 208.191406 96.46875 207.648438 95.386719 207.046875 93.855469 C 206.871094 93.429688 206.699219 93.003906 206.523438 92.566406 C 206.339844 92.109375 206.15625 91.65625 205.96875 91.1875 C 202.902344 83.816406 199.027344 77.21875 194 71 C 193.683594 70.605469 193.683594 70.605469 193.359375 70.203125 C 178.738281 52.199219 158.761719 40.761719 136 36.5 C 135.660156 36.433594 135.320312 36.367188 134.96875 36.300781 C 112.535156 32.164062 87.71875 38.382812 69 51.089844 C 62.082031 55.914062 55.285156 61.394531 50 68 C 49.628906 68.453125 49.257812 68.90625 48.875 69.371094 C 33.351562 88.644531 26.105469 113.207031 28.472656 137.808594 C 30.675781 157.898438 39.140625 176.75 53 191.5 C 53.386719 191.914062 53.386719 191.914062 53.777344 192.335938 C 70.667969 210.273438 94.226562 220.140625 118.707031 221.0625 C 135.996094 221.347656 153.53125 217.09375 168.3125 208 C 170.542969 206.660156 171.917969 205.949219 174.5 206.5 C 175.46875 207.03125 175.46875 207.03125 176 208 C 176.25 209.6875 176.25 209.6875 176 211.5 C 173.863281 214.242188 170.820312 215.597656 167.78125 217.15625 C 167.226562 217.441406 166.671875 217.726562 166.097656 218.019531 C 142.359375 229.976562 114.71875 231.753906 89.457031 223.699219 C 70.664062 217.492188 53.589844 205.746094 41.5 190 C 40.917969 189.242188 40.917969 189.242188 40.320312 188.464844 C 24.335938 167.15625 17.769531 140.28125 21.257812 113.957031 C 22.503906 105.585938 24.613281 97.269531 28 89.5 C 28.257812 88.902344 28.257812 88.902344 28.523438 88.296875 C 39.65625 63.066406 59.957031 43.914062 85.625 33.90625 C 90.660156 32.011719 95.734375 30.582031 101 29.5 C 101.382812 29.417969 101.765625 29.335938 102.160156 29.25 C 133.320312 22.851562 165.0625 33.488281 188.664062 53.921875 Z M 188.664062 53.921875 " /><path style=" stroke:none;fill-rule:nonzero;fill:rgb(96.862745%,58.039216%,11.764706%);fill-opacity:1;" d="M 229.375 102.75 C 231.316406 104.019531 232.515625 105.730469 233 108 C 232.902344 111.132812 232.160156 113.824219 230.984375 116.703125 C 230.828125 117.097656 230.671875 117.488281 230.511719 117.894531 C 230.003906 119.179688 229.484375 120.464844 228.96875 121.75 C 228.605469 122.664062 228.242188 123.578125 227.882812 124.492188 C 227.128906 126.386719 226.375 128.285156 225.621094 130.179688 C 224.058594 134.105469 222.523438 138.046875 220.992188 141.984375 C 220.164062 144.117188 219.332031 146.246094 218.5 148.375 C 218.167969 149.230469 217.832031 150.082031 217.5 150.9375 C 215.5 156.0625 215.5 156.0625 215 157.34375 C 214.667969 158.199219 214.332031 159.054688 214 159.90625 C 213.171875 162.03125 212.339844 164.15625 211.511719 166.28125 C 209.960938 170.25 208.414062 174.21875 206.871094 178.1875 C 206.152344 180.046875 205.429688 181.898438 204.707031 183.753906 C 204.367188 184.632812 204.027344 185.507812 203.6875 186.382812 C 202.117188 190.433594 200.539062 194.480469 198.859375 198.484375 C 198.628906 199.03125 198.398438 199.574219 198.164062 200.136719 C 197.1875 202.144531 196.480469 202.949219 194.5 204 C 192.152344 204.667969 190.4375 204.628906 188.09375 203.9375 C 184.941406 202.082031 183.640625 199.007812 182.054688 195.84375 C 181.820312 195.386719 181.589844 194.929688 181.347656 194.460938 C 180.59375 192.972656 179.84375 191.488281 179.09375 190 C 178.3125 188.464844 177.535156 186.925781 176.753906 185.390625 C 176.234375 184.371094 175.714844 183.347656 175.199219 182.324219 C 172.789062 177.578125 170.347656 172.851562 167.890625 168.128906 C 167.359375 167.109375 166.832031 166.085938 166.304688 165.0625 C 165.722656 163.925781 165.125 162.800781 164.523438 161.679688 C 164.195312 161.0625 163.871094 160.445312 163.546875 159.828125 C 163.25 159.273438 162.957031 158.722656 162.652344 158.152344 C 161.792969 155.976562 161.675781 154.085938 162.351562 151.835938 C 163.421875 149.75 164.21875 148.382812 166.5 147.5 C 169.519531 146.820312 171.242188 146.886719 174 148.5 C 176.316406 150.914062 177.65625 153.59375 179.09375 156.59375 C 179.574219 157.578125 180.058594 158.5625 180.542969 159.546875 C 180.785156 160.042969 181.027344 160.535156 181.277344 161.046875 C 182.367188 163.238281 183.507812 165.402344 184.65625 167.5625 C 186.488281 171.015625 188.277344 174.488281 190 178 C 191.304688 176.695312 191.753906 175.226562 192.386719 173.53125 C 192.523438 173.171875 192.660156 172.808594 192.804688 172.4375 C 193.105469 171.640625 193.40625 170.847656 193.707031 170.050781 C 194.542969 167.835938 195.386719 165.628906 196.234375 163.421875 C 196.414062 162.945312 196.59375 162.472656 196.78125 161.984375 C 198.972656 156.246094 201.222656 150.53125 203.46875 144.8125 C 204.320312 142.652344 205.167969 140.488281 206.015625 138.328125 C 206.226562 137.796875 206.433594 137.265625 206.648438 136.71875 C 208.042969 133.171875 209.429688 129.617188 210.8125 126.0625 C 210.992188 125.597656 211.175781 125.128906 211.363281 124.644531 C 212.210938 122.46875 213.054688 120.289062 213.898438 118.109375 C 214.621094 116.246094 215.351562 114.386719 216.089844 112.53125 C 216.363281 111.84375 216.632812 111.15625 216.902344 110.464844 C 217.285156 109.492188 217.671875 108.523438 218.066406 107.554688 C 218.285156 107.011719 218.5 106.46875 218.726562 105.90625 C 220.894531 101.964844 225.386719 100.800781 229.375 102.75 Z M 229.375 102.75 " /><path style=" stroke:none;fill-rule:nonzero;fill:rgb(42.745098%,43.137255%,44.313725%);fill-opacity:1;" d="M 113.476562 67.066406 C 116.460938 69.792969 118.269531 73.71875 118.601562 77.730469 C 118.652344 79.125 118.660156 80.511719 118.65625 81.90625 C 118.664062 82.375 118.671875 82.839844 118.679688 83.320312 C 118.683594 88.4375 117.566406 92.722656 114 96.5 C 110.550781 99.902344 106.269531 101.003906 101.5 101.1875 C 96.214844 101 91.886719 99.53125 88.1875 95.71875 C 84.503906 91.347656 83.664062 85.554688 84 80 C 84.5 75.210938 85.601562 70.226562 89.5 67 C 97.09375 62.496094 106.023438 61.761719 113.476562 67.066406 Z M 94.875 73.1875 C 92.171875 77.242188 91.996094 82.125 92.84375 86.8125 C 93.414062 89.078125 94.320312 90.859375 96 92.5 C 98.414062 93.914062 100.730469 94.464844 103.5 94 C 105.785156 93.300781 107.179688 92.398438 108.6875 90.53125 C 110.929688 85.832031 110.835938 80.429688 109.5 75.5 C 108.636719 73.523438 107.34375 72.128906 105.5 71 C 101.613281 69.703125 97.753906 70.148438 94.875 73.1875 Z M 94.875 73.1875 " /><path style=" stroke:none;fill-rule:nonzero;fill:rgb(96.862745%,58.039216%,11.764706%);fill-opacity:1;" d="M 84 105 C 102.992188 105 102.992188 105 106.746094 108.742188 C 109.234375 111.574219 109.199219 114.101562 109.171875 117.734375 C 108.859375 120.925781 107.4375 122.628906 105.15625 124.75 C 104 125.5 104 125.5 103 125.5 C 103.304688 125.949219 103.605469 126.398438 103.917969 126.859375 C 105.039062 128.523438 106.15625 130.1875 107.273438 131.855469 C 107.757812 132.574219 108.242188 133.296875 108.726562 134.015625 C 109.425781 135.050781 110.117188 136.085938 110.8125 137.121094 C 111.03125 137.445312 111.25 137.765625 111.476562 138.101562 C 113 140.386719 113 140.386719 113 141.5 C 110 142.070312 106.929688 142.597656 104 141.5 C 100.882812 138.722656 99.242188 134.488281 97.40625 130.8125 C 97.210938 130.453125 97.011719 130.089844 96.804688 129.71875 C 96.636719 129.398438 96.46875 129.078125 96.296875 128.75 C 95.25 127.621094 95.25 127.621094 92 127.5 C 92 132.121094 92 136.738281 92 141.5 C 89.359375 141.5 86.71875 141.5 84 141.5 C 84 129.453125 84 117.410156 84 105 Z M 92 112 C 92 114.96875 92 117.941406 92 121 C 96.675781 121.300781 96.675781 121.300781 100.5 119 C 101.214844 117.574219 101.15625 116.582031 101 115 C 99.925781 113.332031 99.398438 112.632812 97.5 112 C 96.550781 111.964844 95.605469 111.957031 94.65625 111.96875 C 93.78125 111.980469 92.902344 111.988281 92 112 Z M 92 112 " /><path style=" stroke:none;fill-rule:nonzero;fill:rgb(42.745098%,43.137255%,44.313725%);fill-opacity:1;" d="M 124 64 C 141.660156 64 141.660156 64 145.5 66.5 C 148.035156 69.152344 149.140625 71.300781 149.15625 74.96875 C 149.097656 77.390625 148.988281 79.015625 147.5 81 C 146.738281 81.707031 145.96875 82.402344 145.1875 83.085938 C 144.777344 83.445312 144.367188 83.804688 143.949219 84.171875 C 143.636719 84.445312 143.324219 84.71875 143 85 C 143.230469 85.332031 143.464844 85.664062 143.703125 86.007812 C 144.761719 87.527344 145.816406 89.042969 146.875 90.5625 C 147.238281 91.085938 147.605469 91.609375 147.980469 92.148438 C 148.335938 92.65625 148.6875 93.167969 149.054688 93.691406 C 149.378906 94.15625 149.703125 94.625 150.039062 95.105469 C 150.355469 95.566406 150.671875 96.023438 151 96.5 C 151.371094 97.03125 151.742188 97.566406 152.121094 98.113281 C 153 99.5 153 99.5 153 100.5 C 149.976562 101.179688 146.9375 101.742188 144 100.5 C 141.191406 97.820312 139.417969 94.222656 137.671875 90.792969 C 137.449219 90.367188 137.226562 89.941406 137 89.5 C 136.796875 89.042969 136.59375 88.585938 136.382812 88.117188 C 135.367188 86.570312 135.367188 86.570312 132 86.5 C 132 91.121094 132 95.738281 132 100.5 C 129.359375 100.5 126.71875 100.5 124 100.5 C 124 88.453125 124 76.410156 124 64 Z M 132 71 C 132 73.96875 132 76.941406 132 80 C 136.359375 80.09375 136.359375 80.09375 140 78.5 C 141.136719 77.171875 141 76.488281 140.90625 74.71875 C 140.441406 72.75 140.441406 72.75 139 71.5 C 137.425781 70.976562 136.304688 70.949219 134.65625 70.96875 C 133.78125 70.980469 132.902344 70.988281 132 71 Z M 132 71 " /><path style=" stroke:none;fill-rule:nonzero;fill:rgb(42.745098%,43.137255%,44.313725%);fill-opacity:1;" d="M 118.5 146 C 121.800781 146 125.101562 146 128.5 146 C 128.773438 146.773438 129.042969 147.546875 129.324219 148.34375 C 130.347656 151.253906 131.371094 154.160156 132.394531 157.070312 C 132.835938 158.320312 133.273438 159.570312 133.714844 160.824219 C 134.140625 162.039062 134.570312 163.253906 135 164.46875 C 135.417969 165.660156 135.835938 166.851562 136.253906 168.042969 C 137.15625 170.609375 138.0625 173.175781 138.976562 175.738281 C 139.121094 176.136719 139.261719 176.539062 139.410156 176.949219 C 139.667969 177.667969 139.925781 178.386719 140.183594 179.105469 C 141 181.390625 141 181.390625 141 182.5 C 138.195312 182.5 135.390625 182.5 132.5 182.5 C 131.210938 179.464844 130.476562 177.332031 130 174 C 125.710938 174 121.421875 174 117 174 C 116.671875 175.648438 116.339844 177.300781 116 179 C 115.503906 180.15625 115.011719 181.308594 114.5 182.5 C 111.695312 182.5 108.890625 182.5 106 182.5 C 107.105469 178.230469 108.460938 174.089844 109.925781 169.9375 C 110.15625 169.273438 110.390625 168.609375 110.621094 167.949219 C 111.105469 166.574219 111.585938 165.199219 112.070312 163.824219 C 112.691406 162.058594 113.3125 160.296875 113.929688 158.53125 C 114.40625 157.167969 114.886719 155.808594 115.363281 154.445312 C 115.589844 153.796875 115.820312 153.144531 116.046875 152.492188 C 116.367188 151.589844 116.683594 150.683594 117.003906 149.78125 C 117.183594 149.265625 117.363281 148.75 117.550781 148.222656 C 118 147 118 147 118.5 146 Z M 123 154 C 122.414062 155.882812 121.832031 157.769531 121.25 159.65625 C 121.082031 160.191406 120.917969 160.726562 120.742188 161.28125 C 120.585938 161.792969 120.429688 162.308594 120.265625 162.835938 C 120.117188 163.3125 119.972656 163.785156 119.820312 164.273438 C 119.4375 165.53125 119.4375 165.53125 119.5 167 C 122.140625 167 124.78125 167 127.5 167 C 126.730469 162.527344 125.398438 158.304688 124 154 C 123.671875 154 123.339844 154 123 154 Z M 123 154 " /><path style=" stroke:none;fill-rule:nonzero;fill:rgb(96.862745%,58.039216%,11.764706%);fill-opacity:1;" d="M 114.5 105 C 117.140625 105 119.78125 105 122.5 105 C 122.507812 105.742188 122.515625 106.484375 122.523438 107.246094 C 122.550781 110.003906 122.589844 112.761719 122.632812 115.515625 C 122.648438 116.707031 122.660156 117.902344 122.671875 119.09375 C 122.691406 120.808594 122.714844 122.523438 122.742188 124.238281 C 122.746094 124.769531 122.75 125.300781 122.753906 125.847656 C 122.808594 128.59375 122.929688 130.640625 124.5 133 C 126.402344 134.730469 128.347656 134.726562 130.8125 134.644531 C 132.375 134.453125 133.3125 134.039062 134.5 133 C 136.621094 130.136719 136.097656 125.210938 136.15625 121.796875 C 136.167969 121.3125 136.179688 120.832031 136.191406 120.335938 C 136.222656 118.804688 136.25 117.277344 136.28125 115.75 C 136.304688 114.707031 136.324219 113.667969 136.347656 112.625 C 136.398438 110.082031 136.449219 107.542969 136.5 105 C 139.140625 105 141.78125 105 144.5 105 C 144.523438 108.476562 144.542969 111.957031 144.554688 115.433594 C 144.558594 116.617188 144.566406 117.796875 144.574219 118.980469 C 144.585938 120.683594 144.59375 122.386719 144.597656 124.09375 C 144.601562 124.617188 144.609375 125.140625 144.613281 125.679688 C 144.613281 130.714844 144.148438 134.804688 140.5 138.5 C 136.195312 142.003906 131.378906 142.40625 126 142 C 122.492188 141.414062 119.492188 140.078125 117 137.5 C 115.320312 134.929688 114.4375 132.425781 114.441406 129.351562 C 114.441406 128.539062 114.441406 128.539062 114.441406 127.714844 C 114.445312 127.128906 114.449219 126.546875 114.453125 125.945312 C 114.453125 125.351562 114.453125 124.753906 114.453125 124.136719 C 114.457031 122.226562 114.460938 120.316406 114.46875 118.40625 C 114.472656 117.113281 114.472656 115.820312 114.476562 114.523438 C 114.480469 111.347656 114.488281 108.175781 114.5 105 Z M 114.5 105 " /><path style=" stroke:none;fill-rule:nonzero;fill:rgb(42.745098%,43.137255%,44.313725%);fill-opacity:1;" d="M 156 64 C 162.929688 64 169.859375 64 177 64 C 177 66.308594 177 68.621094 177 71 C 172.710938 71 168.421875 71 164 71 C 164 73.308594 164 75.621094 164 78 C 167.960938 78 171.921875 78 176 78 C 176 80.308594 176 82.621094 176 85 C 172.039062 85 168.078125 85 164 85 C 164 87.804688 164 90.609375 164 93.5 C 168.289062 93.5 172.578125 93.5 177 93.5 C 177 95.808594 177 98.121094 177 100.5 C 170.070312 100.5 163.140625 100.5 156 100.5 C 156 88.453125 156 76.410156 156 64 Z M 156 64 " /><path style=" stroke:none;fill-rule:nonzero;fill:rgb(42.745098%,43.137255%,44.313725%);fill-opacity:1;" d="M 82.5 146.5 C 89.429688 146.5 96.359375 146.5 103.5 146.5 C 103.5 148.644531 103.5 150.789062 103.5 153 C 99.210938 153 94.921875 153 90.5 153 C 90.5 155.476562 90.5 157.949219 90.5 160.5 C 94.625 160.5 98.75 160.5 103 160.5 C 103 162.644531 103 164.789062 103 167 C 98.875 167 94.75 167 90.5 167 C 90.5 169.96875 90.5 172.941406 90.5 176 C 94.789062 176 99.078125 176 103.5 176 C 103.5 178.144531 103.5 180.289062 103.5 182.5 C 96.570312 182.5 89.640625 182.5 82.5 182.5 C 82.5 170.621094 82.5 158.738281 82.5 146.5 Z M 82.5 146.5 " /><path style=" stroke:none;fill-rule:nonzero;fill:rgb(96.862745%,58.039216%,11.764706%);fill-opacity:1;" d="M 172.5 107 C 172.273438 107.707031 172.042969 108.417969 171.8125 109.125 C 171.621094 109.714844 171.621094 109.714844 171.425781 110.320312 C 171.023438 111.433594 170.550781 112.453125 170 113.5 C 169.292969 113.34375 168.582031 113.1875 167.875 113.03125 C 167.480469 112.945312 167.085938 112.855469 166.679688 112.765625 C 165.941406 112.601562 165.207031 112.421875 164.476562 112.226562 C 162.808594 111.839844 161.199219 111.75 159.5 112 C 158.164062 112.75 158.164062 112.75 157.5 114 C 157.382812 115.285156 157.382812 115.285156 158 116.5 C 160.3125 118.636719 163.074219 119.875 165.882812 121.234375 C 168.835938 122.730469 170.617188 124.253906 172.144531 127.273438 C 172.984375 130.179688 172.964844 133.363281 171.75 136.15625 C 170.109375 138.96875 167.683594 140.550781 164.6875 141.6875 C 159.503906 142.675781 153.769531 142.386719 149 140 C 149 137.359375 149 134.71875 149 132 C 150.113281 132.414062 151.226562 132.824219 152.375 133.25 C 155.683594 134.398438 158.984375 135.1875 162.5 134.5 C 163.511719 134.019531 163.511719 134.019531 164 133 C 164.265625 131.269531 164.265625 131.269531 163.5 129.5 C 162.027344 128.335938 160.382812 127.578125 158.6875 126.78125 C 154.496094 124.777344 151.195312 122.695312 149.25 118.3125 C 148.710938 114.402344 149.121094 111.191406 151.5 108 C 157.109375 102.390625 165.921875 104.453125 172.5 107 Z M 172.5 107 " /><path style=" stroke:none;fill-rule:nonzero;fill:rgb(42.745098%,43.137255%,44.313725%);fill-opacity:1;" d="M 76.453125 147.464844 C 77.5 148 77.5 148 78 149 C 77.679688 150.171875 77.679688 150.171875 77.15625 151.53125 C 76.988281 151.980469 76.824219 152.429688 76.648438 152.890625 C 76 154 76 154 75.09375 154.449219 C 73.699219 154.515625 72.644531 154.199219 71.3125 153.78125 C 68.851562 153.066406 66.855469 152.597656 64.34375 153.34375 C 63.390625 153.960938 63.390625 153.960938 63.09375 155.1875 C 62.960938 156.90625 62.960938 156.90625 63.5 158.5 C 64.328125 158.847656 65.164062 159.175781 66 159.5 C 67.265625 160.117188 68.507812 160.777344 69.75 161.4375 C 70.074219 161.605469 70.402344 161.777344 70.734375 161.953125 C 73.746094 163.550781 76.175781 165.121094 77.636719 168.292969 C 78.519531 171.230469 78.382812 174.285156 77.46875 177.1875 C 75.132812 180.351562 72.417969 182.339844 68.5 183 C 63.855469 183.347656 59.402344 183.210938 55 181.5 C 54.5 181 54.5 181 54.453125 179.3125 C 54.453125 178.613281 54.460938 177.914062 54.46875 177.21875 C 54.472656 176.863281 54.472656 176.507812 54.476562 176.140625 C 54.480469 175.261719 54.492188 174.378906 54.5 173.5 C 54.785156 173.597656 55.070312 173.695312 55.367188 173.792969 C 61.726562 176.015625 61.726562 176.015625 68.15625 175.3125 C 68.601562 175.042969 69.042969 174.777344 69.5 174.5 C 69.71875 172.363281 69.71875 172.363281 68.75 170.53125 C 67.085938 169.160156 65.277344 168.316406 63.34375 167.375 C 59.382812 165.355469 56.601562 163.480469 54.75 159.3125 C 54.289062 155.964844 54.441406 152.675781 56.3125 149.765625 C 61.234375 144.273438 70.175781 145.140625 76.453125 147.464844 Z M 76.453125 147.464844 " /><path style=" stroke:none;fill-rule:nonzero;fill:rgb(42.745098%,43.137255%,44.313725%);fill-opacity:1;" d="M 82.5 66 C 82.234375 68.675781 81.265625 70.679688 80 73 C 79.492188 72.785156 79.492188 72.785156 78.972656 72.5625 C 75.789062 71.292969 72.9375 70.40625 69.5 71 C 67.058594 72.175781 65.742188 73.605469 64.5 76 C 63.042969 80.34375 62.980469 85.539062 64.8125 89.78125 C 65.945312 91.691406 67.363281 92.867188 69.5 93.5 C 73.648438 94.078125 77.5 93.03125 81.5 92 C 81.5 94.308594 81.5 96.621094 81.5 99 C 78.828125 100.097656 76.402344 100.816406 73.5 101 C 73.15625 101.027344 72.8125 101.054688 72.460938 101.078125 C 67.640625 101.28125 63.144531 100.1875 59.453125 97.007812 C 54.933594 92.222656 54.71875 86.191406 54.84375 79.96875 C 55.058594 75.265625 56.546875 70.8125 60 67.5 C 66.527344 62.519531 75.25 62.050781 82.5 66 Z M 82.5 66 " /><path style=" stroke:none;fill-rule:nonzero;fill:rgb(96.862745%,58.039216%,11.764706%);fill-opacity:1;" d="M 53 105 C 62.074219 105 71.148438 105 80.5 105 C 80.5 107.308594 80.5 109.621094 80.5 112 C 77.363281 112 74.230469 112 71 112 C 71 121.734375 71 131.46875 71 141.5 C 68.195312 141.5 65.390625 141.5 62.5 141.5 C 62.5 131.765625 62.5 122.03125 62.5 112 C 59.363281 112 56.230469 112 53 112 C 53 109.691406 53 107.378906 53 105 Z M 53 105 " /><path style=" stroke:none;fill-rule:nonzero;fill:rgb(96.862745%,58.039216%,11.764706%);fill-opacity:1;" d="M 175 105 C 183.910156 105 192.820312 105 202 105 C 202 107.308594 202 109.621094 202 112 C 198.863281 112 195.730469 112 192.5 112 C 192.5 121.734375 192.5 131.46875 192.5 141.5 C 189.859375 141.5 187.21875 141.5 184.5 141.5 C 184.5 131.765625 184.5 122.03125 184.5 112 C 181.363281 112 178.230469 112 175 112 C 175 109.691406 175 107.378906 175 105 Z M 175 105 " /><path style=" stroke:none;fill-rule:nonzero;fill:rgb(42.745098%,43.137255%,44.313725%);fill-opacity:1;" d="M 144 146.5 C 146.640625 146.5 149.28125 146.5 152 146.5 C 152 156.234375 152 165.96875 152 176 C 156.785156 176 161.570312 176 166.5 176 C 166.5 178.144531 166.5 180.289062 166.5 182.5 C 159.074219 182.5 151.648438 182.5 144 182.5 C 144 170.621094 144 158.738281 144 146.5 Z M 144 146.5 " /></g></svg></svg>