<?xml version="1.0" encoding="UTF-8"?>
<svg xmlns="http://www.w3.org/2000/svg" xmlns:xlink="http://www.w3.org/1999/xlink" width="1000px" height="326px" viewBox="0 0 1039 339" version="1.1">
<g id="surface1">
<path style=" stroke:none;fill-rule:evenodd;fill:rgb(15.686275%,22.352941%,45.882353%);fill-opacity:1;" d="M 174.914062 135.75 L 174.914062 271.5 L 186.910156 271.5 L 186.910156 0 L 174.914062 0 L 174.914062 135.75 M 287.863281 135.75 L 287.863281 271.5 L 311.351562 271.5 L 311.351562 0 L 287.863281 0 L 287.863281 135.75 M 0 158.25 L 0 294 L 22.988281 294 L 22.988281 22.5 L 0 22.5 L 0 158.25 M 44.976562 158.25 L 44.976562 294 L 90.957031 294 L 90.957031 22.5 L 44.976562 22.5 L 44.976562 158.25 M 146.929688 180.75 L 146.929688 316.5 L 169.917969 316.5 L 169.917969 45 L 146.929688 45 L 146.929688 180.75 "/>
<path style=" stroke:none;fill-rule:evenodd;fill:rgb(89.019608%,7.843137%,17.254902%);fill-opacity:1;" d="M 95.953125 135.75 L 95.953125 271.5 L 141.433594 271.5 L 141.433594 0 L 95.953125 0 L 95.953125 135.75 M 614.953125 21.519531 C 610.316406 22.226562 604.289062 24.277344 600.710938 26.359375 C 598.925781 27.398438 595.640625 30.054688 593.417969 32.261719 C 590.097656 35.554688 588.957031 37.121094 587.046875 41.011719 C 583.863281 47.492188 583.035156 50.996094 583.035156 58 C 583.03125 68.613281 586 75.832031 593.4375 83.28125 C 601.171875 91.023438 608.828125 94.128906 620.203125 94.128906 C 627.433594 94.128906 632.238281 93.074219 637.894531 90.253906 L 641.355469 88.523438 L 645.019531 91.804688 C 647.035156 93.609375 648.898438 95.007812 649.160156 94.917969 C 649.421875 94.824219 651.773438 92.386719 654.386719 89.5 L 659.140625 84.25 L 657.289062 82.5 C 656.269531 81.539062 654.691406 80.136719 653.78125 79.382812 L 652.128906 78.015625 L 654.152344 73.882812 C 657.058594 67.957031 657.886719 64.320312 657.886719 57.5 C 657.886719 50.699219 657.050781 47.019531 654.207031 41.25 C 648.332031 29.347656 636.824219 22.082031 622.628906 21.316406 C 620.054688 21.175781 616.601562 21.269531 614.953125 21.519531 M 451.136719 22.625 C 451 22.96875 444.3125 38.664062 436.28125 57.5 C 428.246094 76.335938 421.566406 92.03125 421.433594 92.375 C 421.246094 92.859375 423.039062 93 429.410156 93 L 437.632812 93 L 439.042969 89.375 C 439.820312 87.382812 441.226562 83.890625 442.171875 81.617188 L 443.890625 77.484375 L 458.640625 77.617188 L 473.386719 77.75 L 476.453125 85.367188 L 479.519531 92.980469 L 487.945312 92.992188 C 494.488281 92.996094 496.3125 92.859375 496.117188 92.375 C 495.980469 92.03125 489.296875 76.335938 481.269531 57.5 C 473.238281 38.664062 466.558594 22.96875 466.417969 22.625 C 466.234375 22.164062 464.222656 22 458.777344 22 C 453.335938 22 451.324219 22.164062 451.136719 22.625 M 191.90625 158.25 L 191.90625 294 L 282.863281 294 L 282.863281 22.5 L 191.90625 22.5 L 191.90625 158.25 M 354.828125 57.75 L 354.828125 93 L 374.277344 93 C 389.390625 93 394.585938 92.835938 397.597656 92.257812 C 405.140625 90.816406 410.6875 87.101562 413.328125 81.738281 C 415.085938 78.164062 415.34375 70.476562 413.839844 66.464844 C 412.582031 63.105469 409.304688 59.644531 405.492188 57.652344 C 404.015625 56.882812 402.808594 56.136719 402.8125 56 C 402.8125 55.863281 403.589844 55.222656 404.539062 54.574219 C 406.671875 53.121094 408.539062 50.710938 409.929688 47.617188 C 411.542969 44.019531 411.441406 37.703125 409.710938 33.941406 C 407.988281 30.195312 405.449219 27.484375 401.894531 25.585938 C 396.542969 22.734375 394.550781 22.515625 373.695312 22.507812 L 354.828125 22.5 L 354.828125 57.75 M 506.757812 57.75 L 506.757812 93 L 522.238281 93 L 522.367188 71.058594 L 522.5 49.121094 L 539.207031 71.058594 L 555.914062 93 L 569.726562 93 L 569.726562 22.5 L 553.746094 22.5 L 553.613281 43.570312 L 553.484375 64.640625 L 521.5 22.539062 L 506.757812 22.5 L 506.757812 57.75 M 670.300781 46.375 C 670.5 72.859375 670.492188 72.765625 673.976562 79.90625 C 677.304688 86.726562 683.621094 91.417969 691.964844 93.277344 C 697.648438 94.542969 708.589844 94.089844 713.460938 92.386719 C 720.429688 89.953125 725.460938 85.546875 728.453125 79.25 C 731.800781 72.203125 731.804688 72.1875 732.023438 46.125 L 732.226562 22.5 L 716.15625 22.5 L 716.15625 43.40625 C 716.15625 56.355469 715.949219 65.4375 715.609375 67.261719 C 714.097656 75.460938 709.535156 79.234375 701.128906 79.246094 C 697.34375 79.25 696.5 79.074219 693.878906 77.738281 C 690.726562 76.128906 688.292969 73.210938 687.082031 69.589844 C 686.644531 68.277344 686.417969 61.277344 686.292969 45.125 L 686.121094 22.5 L 670.117188 22.5 L 670.300781 46.375 M 747.140625 57.75 L 747.140625 93 L 801.113281 93 L 801.113281 79 L 763.132812 79 L 763.132812 64.5 L 796.117188 64.5 L 796.117188 50.5 L 763.132812 50.5 L 763.132812 36.5 L 800.613281 36.5 L 800.613281 22.5 L 747.140625 22.5 L 747.140625 57.75 M 616.453125 36.261719 C 616.179688 36.363281 615.019531 36.6875 613.875 36.980469 C 610.660156 37.804688 605.957031 41.230469 603.6875 44.402344 C 600.679688 48.601562 599.527344 52.945312 599.816406 58.984375 C 600.015625 63.09375 600.296875 64.382812 601.597656 67.167969 C 605.472656 75.453125 612.875 79.902344 621.90625 79.382812 C 624.128906 79.257812 626.695312 78.835938 627.605469 78.449219 L 629.257812 77.75 L 624.226562 73.546875 C 621.457031 71.234375 618.953125 69.050781 618.65625 68.695312 C 618.25 68.203125 619.292969 66.730469 623.035156 62.527344 C 625.738281 59.488281 628.058594 57.007812 628.199219 57.011719 C 628.335938 57.015625 630.921875 59.242188 633.945312 61.960938 C 636.96875 64.679688 639.597656 66.808594 639.78125 66.695312 C 640.601562 66.1875 641.300781 60.796875 641.109375 56.449219 C 640.9375 52.484375 640.660156 51.226562 639.332031 48.386719 C 635.652344 40.53125 628.554688 35.941406 620.234375 36.039062 C 618.429688 36.0625 616.726562 36.160156 616.453125 36.261719 M 370.320312 43.773438 L 370.320312 51.121094 L 379.441406 50.90625 C 389.859375 50.65625 392.402344 49.972656 394.324219 46.910156 C 396.246094 43.839844 394.996094 39.449219 391.683594 37.636719 C 390.320312 36.890625 388.484375 36.722656 380.191406 36.585938 L 370.320312 36.425781 L 370.320312 43.773438 M 454.179688 52.15625 L 449.851562 62.75 L 458.382812 62.886719 C 463.078125 62.960938 467 62.941406 467.101562 62.839844 C 467.25 62.691406 458.949219 42.007812 458.601562 41.65625 C 458.550781 41.601562 456.558594 46.328125 454.179688 52.15625 M 370.320312 71.484375 L 370.320312 79.066406 L 381.941406 78.90625 C 392.496094 78.765625 393.714844 78.660156 395.257812 77.75 C 397.929688 76.175781 399.0625 74.296875 399.023438 71.511719 C 398.976562 68.398438 397.828125 66.683594 394.894531 65.339844 C 392.785156 64.375 391.5 64.253906 381.441406 64.089844 L 370.320312 63.902344 L 370.320312 71.484375 M 27.988281 203.25 L 27.988281 339 L 39.980469 339 L 39.980469 67.5 L 27.988281 67.5 L 27.988281 203.25 M 884.460938 103.601562 C 880.753906 108.234375 874.078125 117.007812 874.078125 117.246094 C 874.078125 117.386719 876.796875 117.5 880.121094 117.5 L 886.164062 117.5 L 892.847656 112.625 C 896.527344 109.945312 899.542969 107.613281 899.550781 107.449219 C 899.5625 107.222656 891.027344 103.382812 886.554688 101.601562 C 886.347656 101.519531 885.40625 102.417969 884.460938 103.601562 M 636.445312 122.230469 C 617.875 125.632812 605.28125 141.546875 606.367188 160.230469 C 606.714844 166.199219 607.683594 170.023438 610.035156 174.722656 C 613.605469 181.84375 619.066406 187.179688 626.449219 190.742188 C 632.246094 193.542969 636.675781 194.5 643.832031 194.5 C 656.117188 194.5 666.398438 189.714844 673.621094 180.640625 C 682.21875 169.839844 683.707031 154.003906 677.335938 141.109375 C 675.074219 136.527344 669.453125 130.394531 664.847656 127.484375 C 656.71875 122.347656 646.3125 120.421875 636.445312 122.230469 M 1006.894531 122.042969 C 997.445312 123.089844 991 127.460938 987.421875 135.25 C 986.4375 137.398438 986.273438 138.5625 986.273438 143.5 C 986.273438 148.675781 986.40625 149.53125 987.601562 152.078125 C 990.351562 157.945312 996.078125 161.507812 1008.015625 164.765625 C 1011.726562 165.78125 1015.945312 167.050781 1017.394531 167.59375 C 1022.597656 169.539062 1024.398438 172.398438 1022.816406 176.191406 C 1021.660156 178.957031 1018.542969 180.226562 1013.011719 180.191406 C 1006.824219 180.148438 1001.167969 178.121094 995.125 173.777344 C 993.765625 172.800781 992.546875 172 992.417969 172 C 992.289062 172 990.089844 174.507812 987.535156 177.570312 L 982.882812 183.136719 L 984.082031 184.085938 C 992.082031 190.4375 1000.941406 193.84375 1010.773438 194.351562 C 1023.535156 195.011719 1032.902344 190.652344 1037.113281 182.097656 C 1038.699219 178.875 1038.75 178.574219 1038.75 172.511719 C 1038.75 166.878906 1038.628906 166 1037.527344 163.761719 C 1034.484375 157.574219 1029.160156 154.417969 1015.203125 150.515625 C 1007.453125 148.351562 1003.363281 146.582031 1002.535156 145.035156 C 1002.25 144.5 1002.019531 143.082031 1002.019531 141.875 C 1002.019531 134.515625 1014.71875 134 1025.734375 140.914062 L 1028.972656 142.945312 L 1032.785156 137.390625 C 1034.878906 134.335938 1036.703125 131.558594 1036.832031 131.21875 C 1037.316406 129.953125 1029.285156 125.394531 1023.324219 123.554688 C 1021.433594 122.972656 1018.285156 122.375 1016.328125 122.222656 C 1014.367188 122.074219 1012.199219 121.890625 1011.511719 121.8125 C 1010.824219 121.734375 1008.746094 121.839844 1006.894531 122.042969 M 354.828125 158.21875 L 354.828125 193.5 L 370.351562 193.5 C 379.085938 193.5 387.410156 193.261719 389.390625 192.953125 C 409.136719 189.890625 421.753906 173.699219 419.765625 153.976562 C 418.949219 145.882812 415.957031 139.621094 410.074219 133.707031 C 405.636719 129.242188 401.804688 126.855469 395.558594 124.664062 L 391.5625 123.261719 L 354.828125 122.933594 L 354.828125 158.21875 M 433.292969 158.25 L 433.292969 193.5 L 487.265625 193.5 L 487.265625 179.5 L 449.285156 179.5 L 449.285156 165 L 482.269531 165 L 482.269531 151 L 449.285156 151 L 449.285156 137 L 486.765625 137 L 486.765625 123 L 433.292969 123 L 433.292969 158.25 M 530.746094 158.25 L 530.746094 193.570312 L 548.359375 193.375 C 568.058594 193.15625 569.109375 193.011719 576.472656 189.488281 C 585.917969 184.964844 592.59375 176.730469 595.0625 166.5625 C 596.125 162.179688 596.113281 153.777344 595.039062 149.34375 C 593.535156 143.132812 591 138.757812 585.980469 133.71875 C 581.125 128.839844 577.488281 126.59375 570.976562 124.445312 C 567.625 123.339844 566.691406 123.285156 549.109375 123.113281 L 530.746094 122.933594 L 530.746094 158.25 M 694.664062 158.25 L 694.664062 193.5 L 710.648438 193.5 L 710.777344 171.757812 L 710.90625 150.019531 L 727.398438 171.730469 L 743.890625 193.445312 L 750.765625 193.472656 L 757.636719 193.5 L 757.636719 123 L 741.652344 123 L 741.394531 164.859375 L 725.453125 143.929688 L 709.515625 123 L 694.664062 123 L 694.664062 158.25 M 774.128906 158.25 L 774.128906 193.5 L 789.609375 193.5 L 789.738281 171.507812 L 789.871094 149.515625 L 806.613281 171.5 L 823.355469 193.488281 L 830.226562 193.492188 L 837.097656 193.5 L 837.097656 123 L 821.117188 123 L 820.984375 144.011719 L 820.855469 165.019531 L 788.871094 123.003906 L 781.5 123 L 774.128906 123 L 774.128906 158.25 M 853.589844 158.25 L 853.589844 193.5 L 907.5625 193.5 L 907.5625 179.5 L 869.082031 179.5 L 869.082031 165 L 902.566406 165 L 902.566406 151 L 869.082031 151 L 869.082031 137 L 907.0625 137 L 907.0625 123 L 853.589844 123 L 853.589844 158.25 M 920.558594 158.25 L 920.558594 193.5 L 974.53125 193.5 L 974.53125 179.5 L 936.550781 179.5 L 936.550781 165 L 969.535156 165 L 969.535156 151 L 936.550781 151 L 936.550781 137 L 974.03125 137 L 974.03125 123 L 920.558594 123 L 920.558594 158.25 M 637.441406 137.171875 C 631.175781 139.238281 626.429688 143.941406 624.105469 150.382812 C 622.703125 154.265625 622.609375 161.167969 623.90625 165 C 627.429688 175.410156 636.933594 181.363281 647.210938 179.601562 C 659.734375 177.449219 667.273438 165.164062 663.933594 152.339844 C 662.300781 146.074219 658.277344 141.0625 652.722656 138.378906 C 649.8125 136.976562 648.871094 136.777344 644.441406 136.652344 C 641.277344 136.566406 638.710938 136.753906 637.441406 137.171875 M 370.820312 157.980469 L 370.820312 179.097656 L 379.441406 178.894531 C 389.113281 178.664062 391.1875 178.144531 395.757812 174.789062 C 406.199219 167.121094 405.777344 148.375 394.992188 140.953125 C 390.925781 138.152344 387.910156 137.433594 378.941406 137.132812 L 370.820312 136.859375 L 370.820312 157.980469 M 546.738281 157.929688 L 546.738281 179 L 554.128906 179 C 564.679688 179 569.0625 177.6875 573.558594 173.191406 C 574.789062 171.960938 576.511719 169.441406 577.386719 167.601562 C 578.894531 164.414062 578.972656 163.953125 578.972656 158.25 C 578.972656 152.578125 578.886719 152.070312 577.425781 149 C 575.574219 145.105469 573.859375 142.984375 570.910156 140.953125 C 566.839844 138.152344 563.824219 137.433594 554.859375 137.132812 L 546.738281 136.859375 L 546.738281 157.929688 M 565.976562 222.738281 C 552.839844 225.632812 542.550781 235.898438 539.171875 249.476562 C 537.652344 255.566406 538.003906 265.007812 539.953125 270.75 C 545.070312 285.800781 557.875 295 573.71875 295 C 584.054688 295 593.65625 291.117188 600.1875 284.292969 L 601.917969 282.488281 L 599.234375 279.773438 L 596.554688 277.058594 L 593.980469 279.257812 C 590.34375 282.367188 586.003906 284.871094 582.21875 286.042969 C 578.328125 287.246094 571.703125 287.464844 567.726562 286.515625 C 561.46875 285.027344 555.609375 280.953125 552.082031 275.644531 C 540.9375 258.878906 548.570312 235.578125 566.792969 230.726562 C 569.9375 229.890625 577.605469 229.777344 580.46875 230.53125 C 584.761719 231.652344 588.132812 233.339844 592.035156 236.320312 L 596.101562 239.421875 L 601.71875 233.0625 L 598.089844 230.210938 C 593.539062 226.628906 587.605469 223.777344 582.617188 222.773438 C 577.996094 221.84375 570.109375 221.828125 565.976562 222.738281 M 709.332031 222.515625 C 700.980469 224.019531 694.640625 228.777344 692.140625 235.417969 C 690.753906 239.097656 690.929688 246.035156 692.496094 249.5 C 695.0625 255.183594 701.292969 258.847656 713.667969 261.960938 C 729.511719 265.949219 732.816406 268.308594 732.769531 275.617188 C 732.726562 282.800781 726.820312 287.070312 716.90625 287.089844 C 709.390625 287.101562 702.378906 284.589844 696.453125 279.757812 C 694.929688 278.515625 693.507812 277.511719 693.296875 277.527344 C 693.089844 277.542969 691.847656 278.871094 690.542969 280.476562 L 688.171875 283.398438 L 689.875 284.894531 C 694.304688 288.789062 699.171875 291.40625 705.507812 293.308594 C 709.214844 294.421875 710.933594 294.640625 716.40625 294.691406 C 721.855469 294.738281 723.476562 294.566406 726.472656 293.625 C 730.414062 292.386719 734.644531 289.8125 736.785156 287.347656 C 740.375 283.222656 742.089844 277.140625 741.210938 271.671875 C 739.789062 262.855469 733.925781 258.414062 718.535156 254.5 C 714.207031 253.398438 709.511719 252.058594 708.101562 251.523438 C 702.167969 249.269531 699.664062 246.21875 699.664062 241.25 C 699.664062 234.148438 705.140625 230 714.515625 230 C 721.164062 230 726.613281 231.777344 732.234375 235.78125 L 734.570312 237.441406 L 736.621094 234.722656 C 737.75 233.226562 738.800781 231.671875 738.957031 231.269531 C 739.277344 230.429688 733.941406 226.777344 729.898438 225.074219 C 724.128906 222.640625 714.953125 221.5 709.332031 222.515625 M 356.328125 258.496094 L 356.328125 294.09375 L 372.195312 293.871094 C 390.214844 293.617188 391.355469 293.441406 399.308594 289.636719 C 403.34375 287.707031 404.695312 286.722656 408.328125 283.058594 C 415.386719 275.941406 418.332031 268.722656 418.351562 258.5 C 418.359375 252.746094 417.917969 250.167969 416.097656 245.328125 C 412.292969 235.214844 403.59375 227.679688 391.992188 224.449219 C 388.433594 223.457031 386.566406 223.332031 372.195312 223.125 L 356.328125 222.898438 L 356.328125 258.496094 M 433.898438 247.605469 L 434.054688 272.25 L 435.417969 276.289062 C 437.746094 283.191406 442.507812 288.859375 448.535156 291.886719 C 456.515625 295.894531 469.261719 295.945312 477.53125 291.996094 C 482.234375 289.75 486.839844 285.265625 489.007812 280.816406 C 492.460938 273.738281 492.449219 273.851562 492.640625 247.125 L 492.816406 223 L 484.320312 223 L 484.152344 247.125 C 483.992188 270.261719 483.945312 271.363281 482.929688 274.054688 C 480.722656 279.902344 477.332031 283.59375 472.3125 285.613281 C 469.945312 286.570312 468.582031 286.738281 463.277344 286.742188 C 457.296875 286.75 456.886719 286.683594 453.703125 285.171875 C 448.585938 282.746094 445.207031 278.730469 443.242188 272.75 C 442.757812 271.265625 442.515625 264.625 442.3125 247 L 442.039062 223.25 L 437.886719 223.105469 L 433.738281 222.957031 L 433.898438 247.605469 M 615.203125 258.546875 L 615.203125 294.09375 L 631.070312 293.878906 C 645.390625 293.683594 647.324219 293.554688 650.90625 292.578125 C 663.925781 289.019531 673.183594 279.949219 676.507812 267.5 C 677.679688 263.117188 677.683594 253.929688 676.523438 249.5 C 672.84375 235.488281 661.265625 225.632812 646.027344 223.535156 C 643.878906 223.242188 636.0625 223 628.660156 223 L 615.203125 223 L 615.203125 258.546875 M 757.136719 258.453125 L 757.136719 294 L 765.632812 294 L 765.632812 269.089844 L 777.75 268.882812 C 788.640625 268.699219 790.222656 268.5625 793.367188 267.546875 C 804.355469 263.988281 810.109375 256.496094 810.109375 245.75 C 810.109375 234.765625 804.34375 227.496094 792.949219 224.121094 C 790.941406 223.527344 786.683594 223.308594 773.753906 223.132812 L 757.136719 222.910156 L 757.136719 258.453125 M 364.824219 258.5 L 364.824219 286 L 374.988281 286 C 383.398438 286 385.804688 285.832031 388.929688 285.035156 C 401.273438 281.875 408.851562 272.894531 409.660156 260.457031 C 410.398438 249.113281 404.84375 239.027344 395.257812 234.304688 C 389.753906 231.597656 386.144531 231.019531 374.695312 231.007812 L 364.824219 231 L 364.824219 258.5 M 623.699219 258.5 L 623.699219 286 L 633.820312 285.992188 C 649.242188 285.976562 654.347656 284.4375 660.96875 277.796875 C 666.386719 272.367188 668.679688 266.625 668.679688 258.5 C 668.679688 245.273438 660.863281 235.308594 647.882812 231.984375 C 644.667969 231.164062 642.347656 231 633.863281 231 L 623.699219 231 L 623.699219 258.5 M 765.632812 246.210938 L 765.632812 261.5 L 774.753906 261.496094 C 785.578125 261.492188 789.3125 260.988281 793.472656 258.964844 C 799.253906 256.15625 801.9375 251.425781 801.503906 244.808594 C 801.109375 238.777344 798.121094 234.761719 792.308594 232.453125 C 789.582031 231.371094 788.519531 231.273438 777.5 231.105469 L 765.632812 230.921875 L 765.632812 246.210938 "/>
</g>
</svg>
