<svg xmlns="http://www.w3.org/2000/svg" viewBox="0 0 2209 678"><svg xmlns="http://www.w3.org/2000/svg" version="1.1" width="1859" height="678" style="shape-rendering:geometricPrecision; text-rendering:geometricPrecision; image-rendering:optimizeQuality; fill-rule:evenodd; clip-rule:evenodd" xmlns:xlink="http://www.w3.org/1999/xlink" x="0"><g><path style="opacity:0.996" fill="#e41327" d="M 191.5,-0.5 C 221.833,-0.5 252.167,-0.5 282.5,-0.5C 282.5,180.5 282.5,361.5 282.5,542.5C 252.167,542.5 221.833,542.5 191.5,542.5C 191.5,361.5 191.5,180.5 191.5,-0.5 Z" /></g><g><path style="opacity:0.947" fill="#512c61" d="M 349.5,-0.5 C 357.5,-0.5 365.5,-0.5 373.5,-0.5C 373.5,180.5 373.5,361.5 373.5,542.5C 365.5,542.5 357.5,542.5 349.5,542.5C 349.5,361.5 349.5,180.5 349.5,-0.5 Z" /></g><g><path style="opacity:0.988" fill="#024380" d="M 575.5,-0.5 C 590.833,-0.5 606.167,-0.5 621.5,-0.5C 621.5,180.5 621.5,361.5 621.5,542.5C 606.167,542.5 590.833,542.5 575.5,542.5C 575.5,361.5 575.5,180.5 575.5,-0.5 Z" /></g><g><path style="opacity:0.983" fill="#024380" d="M -0.5,44.5 C 14.8333,44.5 30.1667,44.5 45.5,44.5C 45.5,225.5 45.5,406.5 45.5,587.5C 30.1667,587.5 14.8333,587.5 -0.5,587.5C -0.5,406.5 -0.5,225.5 -0.5,44.5 Z" /></g><g><path style="opacity:0.997" fill="#512c61" d="M 89.5,44.5 C 119.833,44.5 150.167,44.5 180.5,44.5C 180.5,225.5 180.5,406.5 180.5,587.5C 150.167,587.5 119.833,587.5 89.5,587.5C 89.5,406.5 89.5,225.5 89.5,44.5 Z" /></g><g><path style="opacity:0.995" fill="#a5103e" d="M 383.5,44.5 C 444.167,44.5 504.833,44.5 565.5,44.5C 565.5,225.5 565.5,406.5 565.5,587.5C 504.833,587.5 444.167,587.5 383.5,587.5C 383.5,406.5 383.5,225.5 383.5,44.5 Z" /></g><g><path style="opacity:0.989" fill="#024380" d="M 293.5,89.5 C 308.833,89.5 324.167,89.5 339.5,89.5C 339.5,270.5 339.5,451.5 339.5,632.5C 324.167,632.5 308.833,632.5 293.5,632.5C 293.5,451.5 293.5,270.5 293.5,89.5 Z" /></g><g><path style="opacity:0.947" fill="#a5103e" d="M 79.5,677.5 C 71.5,677.5 63.5,677.5 55.5,677.5C 55.5,496.5 55.5,315.5 55.5,134.5C 63.5,134.5 71.5,134.5 79.5,134.5C 79.5,315.5 79.5,496.5 79.5,677.5 Z" /></g><g><path style="opacity:0.94" fill="#e41327" d="M 765.5,142.5 C 787.173,139.669 806.84,144.502 824.5,157C 827.659,159.232 830.326,161.899 832.5,165C 829.004,169.329 825.337,173.496 821.5,177.5C 800.721,156.936 777.054,152.77 750.5,165C 732.732,177.03 723.732,193.863 723.5,215.5C 723.641,236.621 732.308,253.121 749.5,265C 776.829,278.301 801.162,274.134 822.5,252.5C 827.054,255.867 830.554,259.867 833,264.5C 810.622,286.72 784.122,293.554 753.5,285C 722.564,272.334 706.564,249.167 705.5,215.5C 707.846,176.396 727.846,152.062 765.5,142.5 Z" /></g><g><path style="opacity:0.939" fill="#e41327" d="M 1050.5,142.5 C 1067.11,141.18 1082.78,144.347 1097.5,152C 1101.62,154.29 1105.29,157.124 1108.5,160.5C 1105.82,165.188 1102.66,169.521 1099,173.5C 1081.66,158.287 1062.16,154.453 1040.5,162C 1026.09,172.614 1025.09,184.28 1037.5,197C 1050.5,203.334 1064.17,207.667 1078.5,210C 1109.44,218.382 1119.27,237.549 1108,267.5C 1097.05,281.946 1082.38,288.946 1064,288.5C 1041.52,288.242 1022.35,280.408 1006.5,265C 1009.99,260.845 1013.49,256.678 1017,252.5C 1037.06,272.578 1060.22,277.411 1086.5,267C 1094.3,260.6 1097.13,252.433 1095,242.5C 1093.79,239.241 1091.96,236.408 1089.5,234C 1085.11,231.139 1080.45,228.806 1075.5,227C 1060.45,223.905 1045.78,219.572 1031.5,214C 1015.2,204.887 1009.03,191.054 1013,172.5C 1015.45,162.773 1020.95,155.273 1029.5,150C 1036.3,146.569 1043.3,144.069 1050.5,142.5 Z" /></g><g><path style="opacity:0.939" fill="#e41327" d="M 1366.5,142.5 C 1383.11,141.18 1398.78,144.347 1413.5,152C 1417.62,154.29 1421.29,157.124 1424.5,160.5C 1421.82,165.188 1418.66,169.521 1415,173.5C 1397.66,158.287 1378.16,154.453 1356.5,162C 1342.09,172.614 1341.09,184.28 1353.5,197C 1366.5,203.334 1380.17,207.667 1394.5,210C 1425.44,218.382 1435.27,237.549 1424,267.5C 1413.05,281.946 1398.38,288.946 1380,288.5C 1357.52,288.242 1338.35,280.408 1322.5,265C 1325.99,260.845 1329.49,256.678 1333,252.5C 1353.06,272.578 1376.22,277.411 1402.5,267C 1410.3,260.6 1413.13,252.433 1411,242.5C 1409.79,239.241 1407.96,236.408 1405.5,234C 1401.11,231.139 1396.45,228.806 1391.5,227C 1376.45,223.905 1361.78,219.572 1347.5,214C 1331.2,204.887 1325.03,191.054 1329,172.5C 1331.45,162.773 1336.95,155.273 1345.5,150C 1352.3,146.569 1359.3,144.069 1366.5,142.5 Z" /></g><g><path style="opacity:0.942" fill="#e41327" d="M 860.5,144.5 C 880.169,144.333 899.836,144.5 919.5,145C 960.285,150.779 981.952,174.113 984.5,215C 984.096,245.481 970.096,267.147 942.5,280C 936.668,282.277 930.668,283.944 924.5,285C 903.195,286.376 881.861,286.876 860.5,286.5C 860.5,239.167 860.5,191.833 860.5,144.5 Z M 877.5,160.5 C 891.504,160.333 905.504,160.5 919.5,161C 955.659,169.126 971.159,191.626 966,228.5C 961.524,247.614 950.024,260.447 931.5,267C 926.9,268.317 922.234,269.317 917.5,270C 904.171,270.5 890.837,270.667 877.5,270.5C 877.5,233.833 877.5,197.167 877.5,160.5 Z" /></g><g><path style="opacity:0.951" fill="#e41327" d="M 1144.5,144.5 C 1165.17,144.333 1185.84,144.5 1206.5,145C 1243.12,151.408 1256.62,172.574 1247,208.5C 1237.96,225.289 1223.79,234.456 1204.5,236C 1190.17,236.5 1175.84,236.667 1161.5,236.5C 1161.5,253.167 1161.5,269.833 1161.5,286.5C 1155.83,286.5 1150.17,286.5 1144.5,286.5C 1144.5,239.167 1144.5,191.833 1144.5,144.5 Z M 1161.5,160.5 C 1176.17,160.333 1190.84,160.5 1205.5,161C 1227.35,164.874 1236.19,177.707 1232,199.5C 1225.18,213.844 1213.68,221.01 1197.5,221C 1185.5,221.5 1173.5,221.667 1161.5,221.5C 1161.5,201.167 1161.5,180.833 1161.5,160.5 Z" /></g><g><path style="opacity:0.933" fill="#e41327" d="M 1279.5,144.5 C 1285.83,144.5 1292.17,144.5 1298.5,144.5C 1298.67,153.173 1298.5,161.84 1298,170.5C 1295.32,183.286 1287.66,189.953 1275,190.5C 1274.36,188.238 1273.52,186.071 1272.5,184C 1277.51,181.914 1281.68,178.747 1285,174.5C 1286.08,171.937 1286.58,169.271 1286.5,166.5C 1284.17,166.5 1281.83,166.5 1279.5,166.5C 1279.5,159.167 1279.5,151.833 1279.5,144.5 Z" /></g><g><path style="opacity:0.973" fill="#e41327" d="M 904.5,344.5 C 914.522,344.168 924.522,344.501 934.5,345.5C 954.095,392.522 974.095,439.356 994.5,486C 983.152,486.832 971.819,486.666 960.5,485.5C 956.224,475.948 952.224,466.281 948.5,456.5C 928.842,455.334 909.175,455.167 889.5,456C 885.361,466.082 881.028,476.082 876.5,486C 865.839,486.5 855.172,486.667 844.5,486.5C 863.945,438.942 883.945,391.609 904.5,344.5 Z M 918.5,384.5 C 924.67,398.317 930.67,412.317 936.5,426.5C 924.514,427.666 912.514,427.833 900.5,427C 906.6,412.862 912.6,398.695 918.5,384.5 Z" /></g><g><path style="opacity:0.973" fill="#e41327" d="M 1156.5,344.5 C 1166.75,344.181 1176.92,344.514 1187,345.5C 1207.33,392.332 1227.16,439.332 1246.5,486.5C 1235.49,486.667 1224.49,486.5 1213.5,486C 1209.36,475.918 1205.03,465.918 1200.5,456C 1180.84,455.5 1161.17,455.333 1141.5,455.5C 1138,465.846 1134,476.012 1129.5,486C 1118.5,486.667 1107.5,486.667 1096.5,486C 1116.79,438.949 1136.79,391.782 1156.5,344.5 Z M 1170.5,384.5 C 1172.14,385.749 1173.3,387.416 1174,389.5C 1178.98,402.098 1184.14,414.598 1189.5,427C 1177.5,427.667 1165.5,427.667 1153.5,427C 1159.59,412.986 1165.26,398.819 1170.5,384.5 Z" /></g><g><path style="opacity:0.973" fill="#e41327" d="M 1460.5,344.5 C 1470.75,344.181 1480.92,344.514 1491,345.5C 1510.74,392.208 1530.57,438.874 1550.5,485.5C 1539.19,486.499 1527.85,486.832 1516.5,486.5C 1513,476.154 1509,465.988 1504.5,456C 1484.82,455.167 1465.16,455.334 1445.5,456.5C 1441.5,466.167 1437.5,475.833 1433.5,485.5C 1422.5,486.833 1411.5,486.833 1400.5,485.5C 1420.79,438.594 1440.79,391.594 1460.5,344.5 Z M 1474.5,384.5 C 1476.26,386.885 1477.76,389.552 1479,392.5C 1483.61,404.163 1488.11,415.83 1492.5,427.5C 1480.81,427.832 1469.15,427.499 1457.5,426.5C 1463.56,412.636 1469.23,398.636 1474.5,384.5 Z" /></g><g><path style="opacity:0.975" fill="#e41327" d="M 709.5,345.5 C 731.836,345.333 754.169,345.5 776.5,346C 816.174,352.668 837.174,376.002 839.5,416C 837.295,455.546 816.628,478.879 777.5,486C 754.836,486.5 732.169,486.667 709.5,486.5C 709.5,439.5 709.5,392.5 709.5,345.5 Z M 741.5,374.5 C 751.839,374.334 762.172,374.5 772.5,375C 794.363,379.868 805.696,393.534 806.5,416C 805.794,438.032 794.794,451.698 773.5,457C 762.839,457.5 752.172,457.667 741.5,457.5C 741.5,429.833 741.5,402.167 741.5,374.5 Z" /></g><g><path style="opacity:0.976" fill="#e41327" d="M 986.5,345.5 C 1025.83,345.5 1065.17,345.5 1104.5,345.5C 1104.5,355.167 1104.5,364.833 1104.5,374.5C 1090.17,374.5 1075.83,374.5 1061.5,374.5C 1061.5,411.833 1061.5,449.167 1061.5,486.5C 1050.83,486.5 1040.17,486.5 1029.5,486.5C 1029.5,449.167 1029.5,411.833 1029.5,374.5C 1015.17,374.5 1000.83,374.5 986.5,374.5C 986.5,364.833 986.5,355.167 986.5,345.5 Z" /></g><g><path style="opacity:0.976" fill="#e41327" d="M 1267.5,345.5 C 1293.17,345.333 1318.84,345.5 1344.5,346C 1375.77,352.255 1386.27,370.421 1376,400.5C 1372.5,405.333 1368.33,409.5 1363.5,413C 1385.14,422.445 1392.64,438.611 1386,461.5C 1381.35,472.153 1373.51,479.32 1362.5,483C 1357.9,484.317 1353.23,485.317 1348.5,486C 1321.5,486.5 1294.5,486.667 1267.5,486.5C 1267.5,439.5 1267.5,392.5 1267.5,345.5 Z M 1298.5,373.5 C 1310.84,373.333 1323.17,373.5 1335.5,374C 1347.45,377.076 1350.95,384.243 1346,395.5C 1343.37,398.231 1340.21,400.064 1336.5,401C 1323.88,402.374 1311.21,402.874 1298.5,402.5C 1298.5,392.833 1298.5,383.167 1298.5,373.5 Z M 1298.5,428.5 C 1313.87,428.121 1329.21,428.621 1344.5,430C 1355.01,433.188 1358.51,440.022 1355,450.5C 1352.74,453.433 1349.9,455.6 1346.5,457C 1330.56,458.438 1314.56,458.938 1298.5,458.5C 1298.5,448.5 1298.5,438.5 1298.5,428.5 Z" /></g><g><path style="opacity:0.977" fill="#e41327" d="M 1571.5,345.5 C 1581.51,345.334 1591.51,345.5 1601.5,346C 1622.67,373.833 1643.83,401.667 1665,429.5C 1665.5,401.502 1665.67,373.502 1665.5,345.5C 1676.17,345.5 1686.83,345.5 1697.5,345.5C 1697.5,392.5 1697.5,439.5 1697.5,486.5C 1688.16,486.666 1678.83,486.5 1669.5,486C 1647.33,457.167 1625.17,428.333 1603,399.5C 1602.5,428.498 1602.33,457.498 1602.5,486.5C 1592.17,486.5 1581.83,486.5 1571.5,486.5C 1571.5,439.5 1571.5,392.5 1571.5,345.5 Z" /></g><g><path style="opacity:0.98" fill="#e41327" d="M 1858.5,484.5 C 1858.5,485.167 1858.5,485.833 1858.5,486.5C 1845.83,486.667 1833.16,486.5 1820.5,486C 1806.52,466.527 1792.19,447.36 1777.5,428.5C 1772.18,433.318 1767.01,438.318 1762,443.5C 1761.5,457.829 1761.33,472.163 1761.5,486.5C 1751.17,486.5 1740.83,486.5 1730.5,486.5C 1730.5,439.5 1730.5,392.5 1730.5,345.5C 1740.83,345.5 1751.17,345.5 1761.5,345.5C 1761.33,365.503 1761.5,385.503 1762,405.5C 1780.5,385.667 1799,365.833 1817.5,346C 1830.5,345.333 1843.5,345.333 1856.5,346C 1837.13,365.697 1818.13,385.697 1799.5,406C 1819.07,432.324 1838.73,458.491 1858.5,484.5 Z" /></g></svg><svg xmlns="http://www.w3.org/2000/svg" xmlns:xlink="http://www.w3.org/1999/xlink" width="350" height="350" viewBox="0 0 255 255" version="1.1" x="1859"><g id="surface1"><path style=" stroke:none;fill-rule:nonzero;fill:rgb(42.745098%,43.137255%,44.313725%);fill-opacity:1;" d="M 188.664062 53.921875 C 190.691406 55.703125 192.667969 57.515625 194.5 59.5 C 194.765625 59.789062 195.035156 60.074219 195.308594 60.371094 C 203.027344 68.941406 213.746094 82.246094 215.1875 94.03125 C 215 95.5 215 95.5 214.21875 96.6875 C 212.550781 97.800781 211.464844 97.75 209.5 97.5 C 208.191406 96.46875 207.648438 95.386719 207.046875 93.855469 C 206.871094 93.429688 206.699219 93.003906 206.523438 92.566406 C 206.339844 92.109375 206.15625 91.65625 205.96875 91.1875 C 202.902344 83.816406 199.027344 77.21875 194 71 C 193.683594 70.605469 193.683594 70.605469 193.359375 70.203125 C 178.738281 52.199219 158.761719 40.761719 136 36.5 C 135.660156 36.433594 135.320312 36.367188 134.96875 36.300781 C 112.535156 32.164062 87.71875 38.382812 69 51.089844 C 62.082031 55.914062 55.285156 61.394531 50 68 C 49.628906 68.453125 49.257812 68.90625 48.875 69.371094 C 33.351562 88.644531 26.105469 113.207031 28.472656 137.808594 C 30.675781 157.898438 39.140625 176.75 53 191.5 C 53.386719 191.914062 53.386719 191.914062 53.777344 192.335938 C 70.667969 210.273438 94.226562 220.140625 118.707031 221.0625 C 135.996094 221.347656 153.53125 217.09375 168.3125 208 C 170.542969 206.660156 171.917969 205.949219 174.5 206.5 C 175.46875 207.03125 175.46875 207.03125 176 208 C 176.25 209.6875 176.25 209.6875 176 211.5 C 173.863281 214.242188 170.820312 215.597656 167.78125 217.15625 C 167.226562 217.441406 166.671875 217.726562 166.097656 218.019531 C 142.359375 229.976562 114.71875 231.753906 89.457031 223.699219 C 70.664062 217.492188 53.589844 205.746094 41.5 190 C 40.917969 189.242188 40.917969 189.242188 40.320312 188.464844 C 24.335938 167.15625 17.769531 140.28125 21.257812 113.957031 C 22.503906 105.585938 24.613281 97.269531 28 89.5 C 28.257812 88.902344 28.257812 88.902344 28.523438 88.296875 C 39.65625 63.066406 59.957031 43.914062 85.625 33.90625 C 90.660156 32.011719 95.734375 30.582031 101 29.5 C 101.382812 29.417969 101.765625 29.335938 102.160156 29.25 C 133.320312 22.851562 165.0625 33.488281 188.664062 53.921875 Z M 188.664062 53.921875 " /><path style=" stroke:none;fill-rule:nonzero;fill:rgb(96.862745%,58.039216%,11.764706%);fill-opacity:1;" d="M 229.375 102.75 C 231.316406 104.019531 232.515625 105.730469 233 108 C 232.902344 111.132812 232.160156 113.824219 230.984375 116.703125 C 230.828125 117.097656 230.671875 117.488281 230.511719 117.894531 C 230.003906 119.179688 229.484375 120.464844 228.96875 121.75 C 228.605469 122.664062 228.242188 123.578125 227.882812 124.492188 C 227.128906 126.386719 226.375 128.285156 225.621094 130.179688 C 224.058594 134.105469 222.523438 138.046875 220.992188 141.984375 C 220.164062 144.117188 219.332031 146.246094 218.5 148.375 C 218.167969 149.230469 217.832031 150.082031 217.5 150.9375 C 215.5 156.0625 215.5 156.0625 215 157.34375 C 214.667969 158.199219 214.332031 159.054688 214 159.90625 C 213.171875 162.03125 212.339844 164.15625 211.511719 166.28125 C 209.960938 170.25 208.414062 174.21875 206.871094 178.1875 C 206.152344 180.046875 205.429688 181.898438 204.707031 183.753906 C 204.367188 184.632812 204.027344 185.507812 203.6875 186.382812 C 202.117188 190.433594 200.539062 194.480469 198.859375 198.484375 C 198.628906 199.03125 198.398438 199.574219 198.164062 200.136719 C 197.1875 202.144531 196.480469 202.949219 194.5 204 C 192.152344 204.667969 190.4375 204.628906 188.09375 203.9375 C 184.941406 202.082031 183.640625 199.007812 182.054688 195.84375 C 181.820312 195.386719 181.589844 194.929688 181.347656 194.460938 C 180.59375 192.972656 179.84375 191.488281 179.09375 190 C 178.3125 188.464844 177.535156 186.925781 176.753906 185.390625 C 176.234375 184.371094 175.714844 183.347656 175.199219 182.324219 C 172.789062 177.578125 170.347656 172.851562 167.890625 168.128906 C 167.359375 167.109375 166.832031 166.085938 166.304688 165.0625 C 165.722656 163.925781 165.125 162.800781 164.523438 161.679688 C 164.195312 161.0625 163.871094 160.445312 163.546875 159.828125 C 163.25 159.273438 162.957031 158.722656 162.652344 158.152344 C 161.792969 155.976562 161.675781 154.085938 162.351562 151.835938 C 163.421875 149.75 164.21875 148.382812 166.5 147.5 C 169.519531 146.820312 171.242188 146.886719 174 148.5 C 176.316406 150.914062 177.65625 153.59375 179.09375 156.59375 C 179.574219 157.578125 180.058594 158.5625 180.542969 159.546875 C 180.785156 160.042969 181.027344 160.535156 181.277344 161.046875 C 182.367188 163.238281 183.507812 165.402344 184.65625 167.5625 C 186.488281 171.015625 188.277344 174.488281 190 178 C 191.304688 176.695312 191.753906 175.226562 192.386719 173.53125 C 192.523438 173.171875 192.660156 172.808594 192.804688 172.4375 C 193.105469 171.640625 193.40625 170.847656 193.707031 170.050781 C 194.542969 167.835938 195.386719 165.628906 196.234375 163.421875 C 196.414062 162.945312 196.59375 162.472656 196.78125 161.984375 C 198.972656 156.246094 201.222656 150.53125 203.46875 144.8125 C 204.320312 142.652344 205.167969 140.488281 206.015625 138.328125 C 206.226562 137.796875 206.433594 137.265625 206.648438 136.71875 C 208.042969 133.171875 209.429688 129.617188 210.8125 126.0625 C 210.992188 125.597656 211.175781 125.128906 211.363281 124.644531 C 212.210938 122.46875 213.054688 120.289062 213.898438 118.109375 C 214.621094 116.246094 215.351562 114.386719 216.089844 112.53125 C 216.363281 111.84375 216.632812 111.15625 216.902344 110.464844 C 217.285156 109.492188 217.671875 108.523438 218.066406 107.554688 C 218.285156 107.011719 218.5 106.46875 218.726562 105.90625 C 220.894531 101.964844 225.386719 100.800781 229.375 102.75 Z M 229.375 102.75 " /><path style=" stroke:none;fill-rule:nonzero;fill:rgb(42.745098%,43.137255%,44.313725%);fill-opacity:1;" d="M 113.476562 67.066406 C 116.460938 69.792969 118.269531 73.71875 118.601562 77.730469 C 118.652344 79.125 118.660156 80.511719 118.65625 81.90625 C 118.664062 82.375 118.671875 82.839844 118.679688 83.320312 C 118.683594 88.4375 117.566406 92.722656 114 96.5 C 110.550781 99.902344 106.269531 101.003906 101.5 101.1875 C 96.214844 101 91.886719 99.53125 88.1875 95.71875 C 84.503906 91.347656 83.664062 85.554688 84 80 C 84.5 75.210938 85.601562 70.226562 89.5 67 C 97.09375 62.496094 106.023438 61.761719 113.476562 67.066406 Z M 94.875 73.1875 C 92.171875 77.242188 91.996094 82.125 92.84375 86.8125 C 93.414062 89.078125 94.320312 90.859375 96 92.5 C 98.414062 93.914062 100.730469 94.464844 103.5 94 C 105.785156 93.300781 107.179688 92.398438 108.6875 90.53125 C 110.929688 85.832031 110.835938 80.429688 109.5 75.5 C 108.636719 73.523438 107.34375 72.128906 105.5 71 C 101.613281 69.703125 97.753906 70.148438 94.875 73.1875 Z M 94.875 73.1875 " /><path style=" stroke:none;fill-rule:nonzero;fill:rgb(96.862745%,58.039216%,11.764706%);fill-opacity:1;" d="M 84 105 C 102.992188 105 102.992188 105 106.746094 108.742188 C 109.234375 111.574219 109.199219 114.101562 109.171875 117.734375 C 108.859375 120.925781 107.4375 122.628906 105.15625 124.75 C 104 125.5 104 125.5 103 125.5 C 103.304688 125.949219 103.605469 126.398438 103.917969 126.859375 C 105.039062 128.523438 106.15625 130.1875 107.273438 131.855469 C 107.757812 132.574219 108.242188 133.296875 108.726562 134.015625 C 109.425781 135.050781 110.117188 136.085938 110.8125 137.121094 C 111.03125 137.445312 111.25 137.765625 111.476562 138.101562 C 113 140.386719 113 140.386719 113 141.5 C 110 142.070312 106.929688 142.597656 104 141.5 C 100.882812 138.722656 99.242188 134.488281 97.40625 130.8125 C 97.210938 130.453125 97.011719 130.089844 96.804688 129.71875 C 96.636719 129.398438 96.46875 129.078125 96.296875 128.75 C 95.25 127.621094 95.25 127.621094 92 127.5 C 92 132.121094 92 136.738281 92 141.5 C 89.359375 141.5 86.71875 141.5 84 141.5 C 84 129.453125 84 117.410156 84 105 Z M 92 112 C 92 114.96875 92 117.941406 92 121 C 96.675781 121.300781 96.675781 121.300781 100.5 119 C 101.214844 117.574219 101.15625 116.582031 101 115 C 99.925781 113.332031 99.398438 112.632812 97.5 112 C 96.550781 111.964844 95.605469 111.957031 94.65625 111.96875 C 93.78125 111.980469 92.902344 111.988281 92 112 Z M 92 112 " /><path style=" stroke:none;fill-rule:nonzero;fill:rgb(42.745098%,43.137255%,44.313725%);fill-opacity:1;" d="M 124 64 C 141.660156 64 141.660156 64 145.5 66.5 C 148.035156 69.152344 149.140625 71.300781 149.15625 74.96875 C 149.097656 77.390625 148.988281 79.015625 147.5 81 C 146.738281 81.707031 145.96875 82.402344 145.1875 83.085938 C 144.777344 83.445312 144.367188 83.804688 143.949219 84.171875 C 143.636719 84.445312 143.324219 84.71875 143 85 C 143.230469 85.332031 143.464844 85.664062 143.703125 86.007812 C 144.761719 87.527344 145.816406 89.042969 146.875 90.5625 C 147.238281 91.085938 147.605469 91.609375 147.980469 92.148438 C 148.335938 92.65625 148.6875 93.167969 149.054688 93.691406 C 149.378906 94.15625 149.703125 94.625 150.039062 95.105469 C 150.355469 95.566406 150.671875 96.023438 151 96.5 C 151.371094 97.03125 151.742188 97.566406 152.121094 98.113281 C 153 99.5 153 99.5 153 100.5 C 149.976562 101.179688 146.9375 101.742188 144 100.5 C 141.191406 97.820312 139.417969 94.222656 137.671875 90.792969 C 137.449219 90.367188 137.226562 89.941406 137 89.5 C 136.796875 89.042969 136.59375 88.585938 136.382812 88.117188 C 135.367188 86.570312 135.367188 86.570312 132 86.5 C 132 91.121094 132 95.738281 132 100.5 C 129.359375 100.5 126.71875 100.5 124 100.5 C 124 88.453125 124 76.410156 124 64 Z M 132 71 C 132 73.96875 132 76.941406 132 80 C 136.359375 80.09375 136.359375 80.09375 140 78.5 C 141.136719 77.171875 141 76.488281 140.90625 74.71875 C 140.441406 72.75 140.441406 72.75 139 71.5 C 137.425781 70.976562 136.304688 70.949219 134.65625 70.96875 C 133.78125 70.980469 132.902344 70.988281 132 71 Z M 132 71 " /><path style=" stroke:none;fill-rule:nonzero;fill:rgb(42.745098%,43.137255%,44.313725%);fill-opacity:1;" d="M 118.5 146 C 121.800781 146 125.101562 146 128.5 146 C 128.773438 146.773438 129.042969 147.546875 129.324219 148.34375 C 130.347656 151.253906 131.371094 154.160156 132.394531 157.070312 C 132.835938 158.320312 133.273438 159.570312 133.714844 160.824219 C 134.140625 162.039062 134.570312 163.253906 135 164.46875 C 135.417969 165.660156 135.835938 166.851562 136.253906 168.042969 C 137.15625 170.609375 138.0625 173.175781 138.976562 175.738281 C 139.121094 176.136719 139.261719 176.539062 139.410156 176.949219 C 139.667969 177.667969 139.925781 178.386719 140.183594 179.105469 C 141 181.390625 141 181.390625 141 182.5 C 138.195312 182.5 135.390625 182.5 132.5 182.5 C 131.210938 179.464844 130.476562 177.332031 130 174 C 125.710938 174 121.421875 174 117 174 C 116.671875 175.648438 116.339844 177.300781 116 179 C 115.503906 180.15625 115.011719 181.308594 114.5 182.5 C 111.695312 182.5 108.890625 182.5 106 182.5 C 107.105469 178.230469 108.460938 174.089844 109.925781 169.9375 C 110.15625 169.273438 110.390625 168.609375 110.621094 167.949219 C 111.105469 166.574219 111.585938 165.199219 112.070312 163.824219 C 112.691406 162.058594 113.3125 160.296875 113.929688 158.53125 C 114.40625 157.167969 114.886719 155.808594 115.363281 154.445312 C 115.589844 153.796875 115.820312 153.144531 116.046875 152.492188 C 116.367188 151.589844 116.683594 150.683594 117.003906 149.78125 C 117.183594 149.265625 117.363281 148.75 117.550781 148.222656 C 118 147 118 147 118.5 146 Z M 123 154 C 122.414062 155.882812 121.832031 157.769531 121.25 159.65625 C 121.082031 160.191406 120.917969 160.726562 120.742188 161.28125 C 120.585938 161.792969 120.429688 162.308594 120.265625 162.835938 C 120.117188 163.3125 119.972656 163.785156 119.820312 164.273438 C 119.4375 165.53125 119.4375 165.53125 119.5 167 C 122.140625 167 124.78125 167 127.5 167 C 126.730469 162.527344 125.398438 158.304688 124 154 C 123.671875 154 123.339844 154 123 154 Z M 123 154 " /><path style=" stroke:none;fill-rule:nonzero;fill:rgb(96.862745%,58.039216%,11.764706%);fill-opacity:1;" d="M 114.5 105 C 117.140625 105 119.78125 105 122.5 105 C 122.507812 105.742188 122.515625 106.484375 122.523438 107.246094 C 122.550781 110.003906 122.589844 112.761719 122.632812 115.515625 C 122.648438 116.707031 122.660156 117.902344 122.671875 119.09375 C 122.691406 120.808594 122.714844 122.523438 122.742188 124.238281 C 122.746094 124.769531 122.75 125.300781 122.753906 125.847656 C 122.808594 128.59375 122.929688 130.640625 124.5 133 C 126.402344 134.730469 128.347656 134.726562 130.8125 134.644531 C 132.375 134.453125 133.3125 134.039062 134.5 133 C 136.621094 130.136719 136.097656 125.210938 136.15625 121.796875 C 136.167969 121.3125 136.179688 120.832031 136.191406 120.335938 C 136.222656 118.804688 136.25 117.277344 136.28125 115.75 C 136.304688 114.707031 136.324219 113.667969 136.347656 112.625 C 136.398438 110.082031 136.449219 107.542969 136.5 105 C 139.140625 105 141.78125 105 144.5 105 C 144.523438 108.476562 144.542969 111.957031 144.554688 115.433594 C 144.558594 116.617188 144.566406 117.796875 144.574219 118.980469 C 144.585938 120.683594 144.59375 122.386719 144.597656 124.09375 C 144.601562 124.617188 144.609375 125.140625 144.613281 125.679688 C 144.613281 130.714844 144.148438 134.804688 140.5 138.5 C 136.195312 142.003906 131.378906 142.40625 126 142 C 122.492188 141.414062 119.492188 140.078125 117 137.5 C 115.320312 134.929688 114.4375 132.425781 114.441406 129.351562 C 114.441406 128.539062 114.441406 128.539062 114.441406 127.714844 C 114.445312 127.128906 114.449219 126.546875 114.453125 125.945312 C 114.453125 125.351562 114.453125 124.753906 114.453125 124.136719 C 114.457031 122.226562 114.460938 120.316406 114.46875 118.40625 C 114.472656 117.113281 114.472656 115.820312 114.476562 114.523438 C 114.480469 111.347656 114.488281 108.175781 114.5 105 Z M 114.5 105 " /><path style=" stroke:none;fill-rule:nonzero;fill:rgb(42.745098%,43.137255%,44.313725%);fill-opacity:1;" d="M 156 64 C 162.929688 64 169.859375 64 177 64 C 177 66.308594 177 68.621094 177 71 C 172.710938 71 168.421875 71 164 71 C 164 73.308594 164 75.621094 164 78 C 167.960938 78 171.921875 78 176 78 C 176 80.308594 176 82.621094 176 85 C 172.039062 85 168.078125 85 164 85 C 164 87.804688 164 90.609375 164 93.5 C 168.289062 93.5 172.578125 93.5 177 93.5 C 177 95.808594 177 98.121094 177 100.5 C 170.070312 100.5 163.140625 100.5 156 100.5 C 156 88.453125 156 76.410156 156 64 Z M 156 64 " /><path style=" stroke:none;fill-rule:nonzero;fill:rgb(42.745098%,43.137255%,44.313725%);fill-opacity:1;" d="M 82.5 146.5 C 89.429688 146.5 96.359375 146.5 103.5 146.5 C 103.5 148.644531 103.5 150.789062 103.5 153 C 99.210938 153 94.921875 153 90.5 153 C 90.5 155.476562 90.5 157.949219 90.5 160.5 C 94.625 160.5 98.75 160.5 103 160.5 C 103 162.644531 103 164.789062 103 167 C 98.875 167 94.75 167 90.5 167 C 90.5 169.96875 90.5 172.941406 90.5 176 C 94.789062 176 99.078125 176 103.5 176 C 103.5 178.144531 103.5 180.289062 103.5 182.5 C 96.570312 182.5 89.640625 182.5 82.5 182.5 C 82.5 170.621094 82.5 158.738281 82.5 146.5 Z M 82.5 146.5 " /><path style=" stroke:none;fill-rule:nonzero;fill:rgb(96.862745%,58.039216%,11.764706%);fill-opacity:1;" d="M 172.5 107 C 172.273438 107.707031 172.042969 108.417969 171.8125 109.125 C 171.621094 109.714844 171.621094 109.714844 171.425781 110.320312 C 171.023438 111.433594 170.550781 112.453125 170 113.5 C 169.292969 113.34375 168.582031 113.1875 167.875 113.03125 C 167.480469 112.945312 167.085938 112.855469 166.679688 112.765625 C 165.941406 112.601562 165.207031 112.421875 164.476562 112.226562 C 162.808594 111.839844 161.199219 111.75 159.5 112 C 158.164062 112.75 158.164062 112.75 157.5 114 C 157.382812 115.285156 157.382812 115.285156 158 116.5 C 160.3125 118.636719 163.074219 119.875 165.882812 121.234375 C 168.835938 122.730469 170.617188 124.253906 172.144531 127.273438 C 172.984375 130.179688 172.964844 133.363281 171.75 136.15625 C 170.109375 138.96875 167.683594 140.550781 164.6875 141.6875 C 159.503906 142.675781 153.769531 142.386719 149 140 C 149 137.359375 149 134.71875 149 132 C 150.113281 132.414062 151.226562 132.824219 152.375 133.25 C 155.683594 134.398438 158.984375 135.1875 162.5 134.5 C 163.511719 134.019531 163.511719 134.019531 164 133 C 164.265625 131.269531 164.265625 131.269531 163.5 129.5 C 162.027344 128.335938 160.382812 127.578125 158.6875 126.78125 C 154.496094 124.777344 151.195312 122.695312 149.25 118.3125 C 148.710938 114.402344 149.121094 111.191406 151.5 108 C 157.109375 102.390625 165.921875 104.453125 172.5 107 Z M 172.5 107 " /><path style=" stroke:none;fill-rule:nonzero;fill:rgb(42.745098%,43.137255%,44.313725%);fill-opacity:1;" d="M 76.453125 147.464844 C 77.5 148 77.5 148 78 149 C 77.679688 150.171875 77.679688 150.171875 77.15625 151.53125 C 76.988281 151.980469 76.824219 152.429688 76.648438 152.890625 C 76 154 76 154 75.09375 154.449219 C 73.699219 154.515625 72.644531 154.199219 71.3125 153.78125 C 68.851562 153.066406 66.855469 152.597656 64.34375 153.34375 C 63.390625 153.960938 63.390625 153.960938 63.09375 155.1875 C 62.960938 156.90625 62.960938 156.90625 63.5 158.5 C 64.328125 158.847656 65.164062 159.175781 66 159.5 C 67.265625 160.117188 68.507812 160.777344 69.75 161.4375 C 70.074219 161.605469 70.402344 161.777344 70.734375 161.953125 C 73.746094 163.550781 76.175781 165.121094 77.636719 168.292969 C 78.519531 171.230469 78.382812 174.285156 77.46875 177.1875 C 75.132812 180.351562 72.417969 182.339844 68.5 183 C 63.855469 183.347656 59.402344 183.210938 55 181.5 C 54.5 181 54.5 181 54.453125 179.3125 C 54.453125 178.613281 54.460938 177.914062 54.46875 177.21875 C 54.472656 176.863281 54.472656 176.507812 54.476562 176.140625 C 54.480469 175.261719 54.492188 174.378906 54.5 173.5 C 54.785156 173.597656 55.070312 173.695312 55.367188 173.792969 C 61.726562 176.015625 61.726562 176.015625 68.15625 175.3125 C 68.601562 175.042969 69.042969 174.777344 69.5 174.5 C 69.71875 172.363281 69.71875 172.363281 68.75 170.53125 C 67.085938 169.160156 65.277344 168.316406 63.34375 167.375 C 59.382812 165.355469 56.601562 163.480469 54.75 159.3125 C 54.289062 155.964844 54.441406 152.675781 56.3125 149.765625 C 61.234375 144.273438 70.175781 145.140625 76.453125 147.464844 Z M 76.453125 147.464844 " /><path style=" stroke:none;fill-rule:nonzero;fill:rgb(42.745098%,43.137255%,44.313725%);fill-opacity:1;" d="M 82.5 66 C 82.234375 68.675781 81.265625 70.679688 80 73 C 79.492188 72.785156 79.492188 72.785156 78.972656 72.5625 C 75.789062 71.292969 72.9375 70.40625 69.5 71 C 67.058594 72.175781 65.742188 73.605469 64.5 76 C 63.042969 80.34375 62.980469 85.539062 64.8125 89.78125 C 65.945312 91.691406 67.363281 92.867188 69.5 93.5 C 73.648438 94.078125 77.5 93.03125 81.5 92 C 81.5 94.308594 81.5 96.621094 81.5 99 C 78.828125 100.097656 76.402344 100.816406 73.5 101 C 73.15625 101.027344 72.8125 101.054688 72.460938 101.078125 C 67.640625 101.28125 63.144531 100.1875 59.453125 97.007812 C 54.933594 92.222656 54.71875 86.191406 54.84375 79.96875 C 55.058594 75.265625 56.546875 70.8125 60 67.5 C 66.527344 62.519531 75.25 62.050781 82.5 66 Z M 82.5 66 " /><path style=" stroke:none;fill-rule:nonzero;fill:rgb(96.862745%,58.039216%,11.764706%);fill-opacity:1;" d="M 53 105 C 62.074219 105 71.148438 105 80.5 105 C 80.5 107.308594 80.5 109.621094 80.5 112 C 77.363281 112 74.230469 112 71 112 C 71 121.734375 71 131.46875 71 141.5 C 68.195312 141.5 65.390625 141.5 62.5 141.5 C 62.5 131.765625 62.5 122.03125 62.5 112 C 59.363281 112 56.230469 112 53 112 C 53 109.691406 53 107.378906 53 105 Z M 53 105 " /><path style=" stroke:none;fill-rule:nonzero;fill:rgb(96.862745%,58.039216%,11.764706%);fill-opacity:1;" d="M 175 105 C 183.910156 105 192.820312 105 202 105 C 202 107.308594 202 109.621094 202 112 C 198.863281 112 195.730469 112 192.5 112 C 192.5 121.734375 192.5 131.46875 192.5 141.5 C 189.859375 141.5 187.21875 141.5 184.5 141.5 C 184.5 131.765625 184.5 122.03125 184.5 112 C 181.363281 112 178.230469 112 175 112 C 175 109.691406 175 107.378906 175 105 Z M 175 105 " /><path style=" stroke:none;fill-rule:nonzero;fill:rgb(42.745098%,43.137255%,44.313725%);fill-opacity:1;" d="M 144 146.5 C 146.640625 146.5 149.28125 146.5 152 146.5 C 152 156.234375 152 165.96875 152 176 C 156.785156 176 161.570312 176 166.5 176 C 166.5 178.144531 166.5 180.289062 166.5 182.5 C 159.074219 182.5 151.648438 182.5 144 182.5 C 144 170.621094 144 158.738281 144 146.5 Z M 144 146.5 " /></g></svg></svg>